<svg xmlns="http://www.w3.org/2000/svg" xmlns:xlink="http://www.w3.org/1999/xlink" viewBox="0 0 578 384"><defs><style>.cls-1,.cls-10,.cls-17,.cls-25,.cls-7,.cls-9{fill:none;}.cls-2,.cls-3{fill:#96a3e2;}.cls-2,.cls-7{stroke:#1c418c;}.cls-10,.cls-17,.cls-2,.cls-7,.cls-8,.cls-9{stroke-linecap:round;stroke-linejoin:round;}.cls-10,.cls-2,.cls-7,.cls-8,.cls-9{stroke-width:3.77px;}.cls-4{clip-path:url(#clip-path);}.cls-5{fill:#bbc6ef;}.cls-6{fill:#6b7fc6;}.cls-8{fill:#cae8ef;}.cls-10,.cls-8{stroke:#4b8087;}.cls-9{stroke:#82bbc4;}.cls-11{fill:#060b1c;}.cls-12{fill:#fff;}.cls-13{fill:#2b5599;}.cls-14{fill:#1c418c;}.cls-15{fill:#5a5d68;}.cls-16{fill:#2f3442;}.cls-17{stroke:#394251;}.cls-17,.cls-18,.cls-25,.cls-26{stroke-width:3.77px;}.cls-18{fill:#dddeed;stroke:#8489bc;}.cls-18,.cls-25,.cls-26{stroke-miterlimit:10;}.cls-19{fill:#4700a3;}.cls-20{fill:#c0c3d8;}.cls-21{fill:#a5a6ad;}.cls-22{fill:#808189;}.cls-23{clip-path:url(#clip-path-2);}.cls-24{fill:#cdced1;}.cls-25{stroke:#60626d;}.cls-26,.cls-30{fill:#d43e2b;}.cls-26{stroke:#a31d13;}.cls-27{fill:#fcfcfc;}.cls-28{opacity:0.3;}.cls-29{fill:#4046dd;}</style><clipPath id="clip-path"><path class="cls-1" d="M54.48,325.88c-15.5-66,13.5-201.5,147.34-183,144,19.91,86.33,188.33,86.33,188.33"/></clipPath><clipPath id="clip-path-2"><path class="cls-1" d="M457.75,292.69l-11.87-81.16a9.19,9.19,0,0,0-8.44-7.84L408,201.62a9.18,9.18,0,0,0-9.8,9.75l5.15,80.09a43.68,43.68,0,0,1-3.44,20l-5.72,13.4h57l3.79-9.25a44.07,44.07,0,0,0,2.81-22.94Z"/></clipPath></defs><title>illustration_web_webhint_3</title><g id="nellie3"><path class="cls-2" d="M268.73,305.88s28.59,16.33,47.42-2.34c6.57-6.51,18.42-24.19-17.62-32.51"/><path class="cls-3" d="M54.48,325.88c-15.5-66,13.5-201.5,147.34-183,144,19.91,86.33,188.33,86.33,188.33"/><g class="cls-4"><path class="cls-5" d="M88.15,340.21s46-82.33,142.67-72.67,73.49,99.34,73.49,99.34Z"/><ellipse class="cls-6" cx="85.98" cy="193.16" rx="36.18" ry="14.9" transform="translate(-125.28 184.6) rotate(-63.68)"/><path class="cls-6" d="M89,238.44c2.81,3.59,8.8-1,13.1-6.79s5.52-11.57,2.5-14.16c-2.36-2-7.11.07-11.42,5.85S87,235.88,89,238.44Z"/><ellipse class="cls-6" cx="76.89" cy="240.79" rx="6.15" ry="3.24" transform="translate(-164.44 165.61) rotate(-54.99)"/></g><path class="cls-7" d="M54.48,325.88c-15.5-66,13.5-201.5,147.34-183,144,19.91,86.33,188.33,86.33,188.33"/><path class="cls-8" d="M237.33,158.8c5-37.21,17.25-128.92,17.25-128.92s-42.81,82.42-58.74,113.68c-8.18,15.48,15.93,24.63,15.93,24.63S233.52,175.56,237.33,158.8Z"/><path class="cls-9" d="M237.83,150.63c-4.46-.44-25-4.6-33-23.31"/><path class="cls-9" d="M242.92,117.22c-7.19-2.12-17.83-7-24.18-17.67"/><path class="cls-9" d="M247.62,82A41.68,41.68,0,0,1,233.07,71.8"/><path class="cls-10" d="M237.33,158.8c5-37.21,17.25-128.92,17.25-128.92s-42.81,82.42-58.74,113.68"/><circle class="cls-11" cx="164.3" cy="215.19" r="9.39"/><circle class="cls-12" cx="161.55" cy="212.23" r="3.16"/><path class="cls-13" d="M169.39,216.4a2,2,0,0,0-2.76.69,3.16,3.16,0,0,1-3,1.49,2,2,0,1,0-.5,4,6,6,0,0,0,1,.06,7.09,7.09,0,0,0,6-3.47A2,2,0,0,0,169.39,216.4Z"/><circle class="cls-11" cx="259.34" cy="219.37" r="9.39"/><circle class="cls-12" cx="256.6" cy="216.41" r="3.16"/><path class="cls-13" d="M264.44,220.58a2,2,0,0,0-2.76.69,3.16,3.16,0,0,1-3.06,1.49,2,2,0,0,0-.49,4,8.81,8.81,0,0,0,1,.06,7.09,7.09,0,0,0,6-3.47A2,2,0,0,0,264.44,220.58Z"/><path class="cls-7" d="M207.33,220s.87,9,8.62,9.18,8.41-9.27,8.41-9.27"/><path class="cls-3" d="M119.48,257.88s50.34,3.66,83,45.66c0,0-61.33,33-94.66-27.33"/><path class="cls-14" d="M119.59,256.36a98.25,98.25,0,0,1,12.23,1.89c4,.84,8,1.89,11.91,3.1a135.37,135.37,0,0,1,22.75,9.39c3.64,1.92,7.18,4,10.64,6.28s6.77,4.71,10,7.33A119.29,119.29,0,0,1,204.49,302h0a2.51,2.51,0,0,1-.39,3.52,2.44,2.44,0,0,1-.43.28c-2.24,1.14-4.36,2-6.58,2.88s-4.44,1.6-6.7,2.3a94,94,0,0,1-13.81,3,72.06,72.06,0,0,1-28.23-1.37,63.58,63.58,0,0,1-13.25-5.24,65,65,0,0,1-11.63-8.16,83.42,83.42,0,0,1-17.19-22.19,1.73,1.73,0,0,1,3-1.68A79.58,79.58,0,0,0,126,296.32a60.61,60.61,0,0,0,11,7.48,58.51,58.51,0,0,0,12.39,4.69,67.48,67.48,0,0,0,26.49.88A88.67,88.67,0,0,0,189,306.29c2.12-.69,4.24-1.42,6.31-2.27s4.16-1.75,6-2.72l-.81,3.81h0a114.18,114.18,0,0,0-16.32-17.23c-3-2.58-6.19-5-9.45-7.26s-6.66-4.35-10.15-6.29a131.74,131.74,0,0,0-21.91-9.58c-3.79-1.26-7.64-2.37-11.54-3.28a98.09,98.09,0,0,0-11.73-2.07h-.06a1.52,1.52,0,0,1,.28-3Z"/><path class="cls-3" d="M304.31,283.21s-13.33,2-35.58,22.67c0,0,28.59,16.33,47.42-2.34"/><path class="cls-14" d="M304.52,284.56a20.72,20.72,0,0,0-2.34.7c-.8.28-1.59.6-2.38.94-1.58.68-3.12,1.45-4.65,2.28a82.62,82.62,0,0,0-8.79,5.6c-2.85,2-5.56,4.23-8.24,6.47L274.2,304l-3.82,3.62h0l-.45-3.88a51.58,51.58,0,0,0,5.44,2.59c1.89.77,3.82,1.44,5.77,2a47.52,47.52,0,0,0,12,1.95,31.63,31.63,0,0,0,11.73-1.83,28.36,28.36,0,0,0,10-6.3l0,0a1.88,1.88,0,0,1,2.63,2.7,32.42,32.42,0,0,1-11.22,7.4A36,36,0,0,1,293,314.63a51.7,51.7,0,0,1-13.13-1.85,64.66,64.66,0,0,1-6.27-2,54.74,54.74,0,0,1-6.11-2.75l0,0a2.35,2.35,0,0,1-1-3.18,2.42,2.42,0,0,1,.55-.68h0l4.1-3.51,4.21-3.38c2.88-2.18,5.78-4.32,8.83-6.26a83.44,83.44,0,0,1,9.44-5.36,54.64,54.64,0,0,1,5-2.17c.86-.32,1.73-.62,2.61-.89a22.74,22.74,0,0,1,2.81-.67,1.36,1.36,0,0,1,.49,2.68Z"/><path class="cls-15" d="M360.48,315.47v5.32a4.09,4.09,0,0,1-4.09,4.09H191.1v-13.5H356.39A4.09,4.09,0,0,1,360.48,315.47Z"/><path class="cls-16" d="M191.1,311.38v13.5h-60a4.09,4.09,0,0,1-4.09-4.09v-5.32a4.09,4.09,0,0,1,4.09-4.09Z"/><path class="cls-17" d="M191.1,311.38H356.39a4.09,4.09,0,0,1,4.09,4.09v5.32a4.09,4.09,0,0,1-4.09,4.09H131.07a4.09,4.09,0,0,1-4.09-4.09v-5.32a4.09,4.09,0,0,1,4.09-4.09Z"/><line class="cls-17" x1="191.1" y1="311.38" x2="191.1" y2="324.88"/><path class="cls-18" d="M286.82,127.32V265a20.58,20.58,0,0,0,20.25,20.57l193.18,3A20.58,20.58,0,0,0,521.15,268V149.86A20.58,20.58,0,0,0,503,129.42L309.78,106.89A20.57,20.57,0,0,0,286.82,127.32Z"/><ellipse class="cls-12" cx="358.84" cy="172.7" rx="28.01" ry="29.31"/><path class="cls-19" d="M358.84,147.21c-13.6,0-24.48,11.39-24.48,25.49s10.88,25.49,24.48,25.49,24.48-11.39,24.48-25.49S372.32,147.21,358.84,147.21Zm21.51,25.49c0,12.42-9.64,22.64-21.63,22.64S337.2,185.25,337.2,172.7s9.65-22.64,21.64-22.64S380.35,160.28,380.35,172.7Z"/><path class="cls-19" d="M370.71,166.75l.74-1.55,2.35-4-5.44,3.37c-.12.13-.25.13-.37.26a1.86,1.86,0,0,0,0,2.46,1.07,1.07,0,0,0,.74.38,1.75,1.75,0,0,0,1.61-.38,1.79,1.79,0,0,0,.37-.52Z"/><path class="cls-19" d="M370,169.08a2.31,2.31,0,0,1-1,.13,2.81,2.81,0,0,1-2.72-2.85,2.38,2.38,0,0,1,.12-.91,7.05,7.05,0,0,0-4.45-1.16c-8.41,0-9.77,4.14-9.77,9.32a6.48,6.48,0,0,1-.62,3.75,3.25,3.25,0,0,1-3.09,1.81c-.49,0-2.35-.26-2.47-.91h.25a3.7,3.7,0,0,0,3.58-3.88v-1h-1.73A3.81,3.81,0,0,0,345,175a3.9,3.9,0,0,0-3.21-1.55h-1.73v.77a3.94,3.94,0,0,0,3.83,4h.62c0,1.3,1.73,6.47,14.46,6.47,5,0,12.37-.9,12.37-10.74A9.8,9.8,0,0,0,370,169.08Z"/><polygon class="cls-20" points="362.15 244.71 470.15 249.88 470.15 280 362.15 278.38 362.15 244.71"/><g id="_Group_" data-name="&lt;Group&gt;"><path class="cls-21" d="M457.75,292.69a43.61,43.61,0,0,1,.25,10.52l-55.39-.66a43.82,43.82,0,0,0,.7-11.09l-5.15-80.09a9.18,9.18,0,0,1,9.8-9.75l29.48,2.07a9.19,9.19,0,0,1,8.44,7.84Z"/><path class="cls-22" d="M402.61,302.55l55.39.66a43.56,43.56,0,0,1-3.06,12.42l-3.79,9.25h-57l5.72-13.4A43.88,43.88,0,0,0,402.61,302.55Z"/></g><g class="cls-23"><polygon class="cls-24" points="458.21 205.81 384.82 245.88 389.82 271.03 464.82 223.55 458.21 205.81"/><polygon class="cls-24" points="467.2 229.88 390.68 281.09 393.15 291.71 469.15 239.38 467.2 229.88"/></g><path class="cls-25" d="M402.61,302.55a43.82,43.82,0,0,0,.7-11.09l-5.15-80.09a9.18,9.18,0,0,1,9.8-9.75l29.48,2.07a9.19,9.19,0,0,1,8.44,7.84l11.87,81.16a44.07,44.07,0,0,1-2.81,22.94l-3.79,9.25h-57l5.72-13.4A43.88,43.88,0,0,0,402.61,302.55Z"/><rect class="cls-26" x="27.12" y="324.88" width="531.03" height="28" rx="9.89" ry="9.89"/><path class="cls-27" d="M301.52,130.21a3.72,3.72,0,0,0-3.71,3.71v27.86a3.71,3.71,0,0,0,7.42,0V133.92A3.71,3.71,0,0,0,301.52,130.21Z"/><path class="cls-27" d="M301.52,171.43a3.72,3.72,0,0,0-3.71,3.71v2.79a3.71,3.71,0,0,0,7.42,0v-2.79A3.71,3.71,0,0,0,301.52,171.43Z"/><g class="cls-28"><path class="cls-20" d="M508.48,243.88a4,4,0,0,0-4,4V268a3.82,3.82,0,0,1-2.47,3.57,4,4,0,0,0,1.42,7.75,4.13,4.13,0,0,0,1.41-.26A11.88,11.88,0,0,0,512.48,268V247.88A4,4,0,0,0,508.48,243.88Z"/></g><path class="cls-29" d="M477.94,206.26l-22,4.16a4.54,4.54,0,0,1-5.19-4l-3.17-19.83a4.86,4.86,0,0,1,3.66-5.64l22-4.16a4.55,4.55,0,0,1,5.2,4l3.16,19.82A4.86,4.86,0,0,1,477.94,206.26Z"/><path class="cls-12" d="M492.28,205.19l-27.06-5.63a6.76,6.76,0,0,1-5-7.92l4.26-24.19a6.27,6.27,0,0,1,7.29-5.37l27.06,5.63a6.76,6.76,0,0,1,4.95,7.92l-4.26,24.19A6.27,6.27,0,0,1,492.28,205.19Z"/><path class="cls-30" d="M490.93,201.45l-23.19-4.82a5,5,0,0,1-3.68-5.9l3.68-20.91a4.67,4.67,0,0,1,5.43-4l23.19,4.82a5,5,0,0,1,3.68,5.9l-3.68,20.91A4.67,4.67,0,0,1,490.93,201.45Z"/></g></svg>