<svg id="bac7745e-0641-46da-aab1-895c7c971219" data-name="Layer 1" xmlns="http://www.w3.org/2000/svg" viewBox="0 0 45 45"><title>webhint-icon</title><path d="M37.6,16l.86-1.58L41,10.17l-6,3.48a1.57,1.57,0,0,0-.4.29,1.85,1.85,0,0,0,0,2.59,1.87,1.87,0,0,0,2.6,0,1.73,1.73,0,0,0,.3-.41Z" style="fill:#b2b2b2"/><path d="M36.79,18.35h0a2.89,2.89,0,0,1-1,.19,3,3,0,0,1-3-3,2.88,2.88,0,0,1,.17-1h0A8.52,8.52,0,0,0,28,13.28c-9.18,0-10.68,4.35-10.68,9.77,0,1.27.19,2.68-.66,4A3.83,3.83,0,0,1,13.24,29c-.58,0-2.64-.34-2.76-.94h.32a4,4,0,0,0,3.89-4.25V23H12.76a4.26,4.26,0,0,0-3.42,1.72A4.24,4.24,0,0,0,5.92,23H4v.85a4.27,4.27,0,0,0,4.27,4.26h.62c0,1.4,1.91,6.77,15.91,6.77,5.47,0,13.58-1,13.58-11.27A10.1,10.1,0,0,0,36.79,18.35Z" style="fill:#b2b2b2"/></svg>
