<svg xmlns="http://www.w3.org/2000/svg" viewBox="0 0 1153.1 748.1"><path fill="#ededed" d="M491.3 483.5h300v216h-300z"/><path fill="#404041" d="M791.3 483.5h-12v1.2h12v-1.2zm-24 0h-12v1.2h12v-1.2zm-24 0h-12v1.2h12v-1.2zm-24 0h-12v1.2h12v-1.2zm-24 0h-12v1.2h12v-1.2zm-24 0h-12v1.2h12v-1.2zm-24 0h-12v1.2h12v-1.2zm-24 0h-12v1.2h12v-1.2zm-24 0h-12v1.2h12v-1.2zm-24 0h-12v1.2h12v-1.2zm-24 0h-12v1.2h12v-1.2zm-24 0h-12v1.2h12v-1.2zm-24 0h-12v1.2h12v-1.2zm-11 13.6h-1v13.5h1v-13.5zm0 27.1h-1v13.6h1v-13.6zm0 27.1h-1V565h1v-13.6zm0 27.2h-1V592h1v-13.5zm0 27h-1v13.7h1v-13.6zm0 27.2h-1v13.6h1v-13.6zm0 27.1h-1v13.6h1v-13.6zm0 27.2h-1v12.5h1V687zm23.9 11.4h-12v1.1h12v-1.1zm24 0h-12v1.1h12v-1.1zm24 0h-12v1.1h12v-1.1zm24 0h-12v1.1h12v-1.1zm24 0h-12v1.1h12v-1.1zm24 0h-12v1.1h12v-1.1zm24 0h-12v1.1h12v-1.1zm24 0h-12v1.1h12v-1.1zm24 0h-12v1.1h12v-1.1zm24 0h-12v1.1h12v-1.1zm24 0h-12v1.1h12v-1.1zm24 0h-12v1.1h12v-1.1zm11.1-13.4h-1v13.6h1V685zm0-27.1h-1v13.5h1v-13.6zm0-27.1h-1v13.5h1v-13.6zm0-27.2h-1v13.6h1v-13.6zm0-27.1h-1V590h1v-13.5zm0-27.1h-1v13.5h1v-13.6zm0-27.1h-1v13.5h1v-13.6zm0-27.2h-1v13.6h1V495z"/><path fill="#ededed" d="M491.3 51.5h252v216h-252z"/><path fill="#404041" d="M743.3 51.5h-12v1.2h12v-1.2zm-24 0h-12v1.2h12v-1.2zm-24 0h-12v1.2h12v-1.2zm-24 0h-12v1.2h12v-1.2zm-24 0h-12v1.2h12v-1.2zm-24 0h-12v1.2h12v-1.2zm-24 0h-12v1.2h12v-1.2zm-24 0h-12v1.2h12v-1.2zm-24 0h-12v1.2h12v-1.2zm-24 0h-12v1.2h12v-1.2zm-24 0h-12v1.2h12v-1.2zm-11 13.5h-1v13.5h1V65zm0 27h-1v13.5h1V92zm0 27h-1v13.5h1V119zm0 27h-1v13.5h1V146zm0 27h-1v13.5h1V173zm0 27h-1v13.5h1V200zm0 27h-1v13.5h1V227zm0 27h-1v13.5h1V254zm23 12.4h-12v1.1h12v-1.1zm24 0h-12v1.1h12v-1.1zm24 0h-12v1.1h12v-1.1zm24 0h-12v1.1h12v-1.1zm24 0h-12v1.1h12v-1.1zm24 0h-12v1.1h12v-1.1zm24 0h-12v1.1h12v-1.1zm24 0h-12v1.1h12v-1.1zm24 0h-12v1.1h12v-1.1zm24 0h-12v1.1h12v-1.1zm12-12.4h-1v13.5h1V254zm0-27h-1v13.5h1V227zm0-27h-1v13.5h1V200zm0-27h-1v13.5h1V173zm0-27h-1v13.5h1V146zm0-27h-1v13.5h1V119zm0-27h-1v13.5h1V92zm0-27h-1v13.5h1V65z"/><path fill="#ededed" d="M924.2 267.5h192v276h-192z"/><path fill="#404041" d="M1116.2 267.5h-12v1.1h12v-1zm-24 0h-12v1.1h12v-1zm-24 0h-12v1.1h12v-1zm-24 0h-12v1.1h12v-1zm-24 0h-12v1.1h12v-1zm-24 0h-12v1.1h12v-1zm-24 0h-12v1.1h12v-1zm-24 0h-12v1.1h12v-1zm-23 0h-1v13.2h1v-13.2zm0 26.3h-1V307h1v-13.2zm0 26.3h-1v13.1h1v-13.1zm0 26.3h-1v13.1h1v-13.1zm0 26.3h-1v13.1h1v-13.1zm0 26.3h-1v13h1v-13zm0 26.2h-1v13.2h1v-13.2zm0 26.3h-1v13.2h1v-13.2zm0 26.3h-1V491h1v-13.2zm0 26.3h-1v13.1h1v-13.1zm0 26.3h-1v13.1h1v-13.1zm23 12h-12v1h12v-1zm24 0h-12v1h12v-1zm24 0h-12v1h12v-1zm24 0h-12v1h12v-1zm24 0h-12v1h12v-1zm24 0h-12v1h12v-1zm24 0h-12v1h12v-1zm24 0h-12v1h12v-1zm0-25.2h-1v13.2h1v-13.2zm0-26.3h-1v13.2h1V491zm0-26.3h-1v13.2h1v-13.1zm0-26.2h-1v13h1v-13zm0-26.3h-1v13.1h1v-13.1zm0-26.3h-1V399h1v-13.2zm0-26.3h-1v13.1h1v-13zm0-26.3h-1v13.2h1v-13.2zm0-26.3h-1v13.2h1V307zm0-26.3h-1v13.2h1v-13.1z"/><path fill="#ededed" d="M168 484.5h216v215H168z"/><path fill="#404041" d="M384 484.5h-12v1h12v-1zm-24 0h-12v1h12v-1zm-24 0h-12v1h12v-1zm-24 0h-12v1h12v-1zm-24 0h-12v1h12v-1zm-24 0h-12v1h12v-1zm-24 0h-12v1h12v-1zm-24 0h-12v1h12v-1zm-24 0h-12v1h12v-1zm-23 0h-1V498h1v-13.5zm0 27h-1V525h1v-13.5zm0 27h-1V552h1v-13.5zm0 27h-1V579h1v-13.5zm0 27h-1V606h1v-13.5zm0 27h-1V633h1v-13.5zm0 27h-1V660h1v-13.5zm0 27h-1V687h1v-13.5zm11.8 24.9h-12v1.1h12v-1.1zm24 0h-12v1.1h12v-1.1zm24 0h-12v1.1h12v-1.1zm24 0h-12v1.1h12v-1.1zm24 0h-12v1.1h12v-1.1zm24 0h-12v1.1h12v-1.1zm24 0h-12v1.1h12v-1.1zm24 0h-12v1.1h12v-1.1zm24 0h-12v1.1h12v-1.1zm11.1-13.4h-1v13.5h1V685zm0-27h-1v13.5h1V658zm0-27h-1v13.5h1V631zm0-27h-1v13.5h1V604zm0-27h-1v13.5h1V577zm0-27h-1v13.5h1V550zm0-27h-1v13.5h1V523zm0-27h-1v13.5h1V496z"/><path fill="#18186d" d="M444.7 328h382v95h-382z"/><path d="M826.2 328.5v94h-381v-94h381m1-1h-383v96h383v-96z"/><path fill="#4046dd" d="M516.2 75.5h203.6v48H516.2zm0 432h251.1V555H516.2zm432-216h144V339h-144zm0 60.5h144v47.5h-144zm0 60h144v47.5h-144zm0 59.5h144v48h-144zm-432 96.5h251.1v47.5H516.2zm-324-60h167.7v47.5H192.2zm11.5-156.5h144.5V399H203.7zM192.2 569h167.7v46.2H192.2zm0 58.5h167.7v48H192.2zm324-492h203.6V183H516.2zm0 60h203.6v48H516.2z"/><path fill="none" stroke="#000" stroke-miterlimit="10" d="M186 375H33"/><path d="M184.5 370l8.7 5-8.7 5v-10z"/><path fill="none" stroke="#000" stroke-miterlimit="10" d="M431.2 376h-82"/><path d="M429.8 371l8.6 5-8.6 5v-10z"/><path fill="none" stroke="#000" stroke-miterlimit="10" d="M916.5 364h-88.3"/><path d="M915 359l8.7 5-8.7 5v-10z"/><path fill="none" stroke="#000" stroke-miterlimit="10" d="M835.3 399h88.4"/><path d="M836.8 404l-8.6-5 8.6-5v10z"/><path fill="none" stroke="#000" stroke-miterlimit="10" d="M276.4 472.5v-72.7"/><path d="M281.4 471l-5 8.6-5-8.6h10z"/><path fill="none" stroke="#000" stroke-miterlimit="10" d="M575.5 476.8v-53"/><path d="M580.5 475.3l-5 8.7-5-8.7h10z"/><path fill="none" stroke="#000" stroke-miterlimit="10" d="M683.3 431.3V484"/><path d="M678.3 432.7l5-8.6 5 8.6h-10z"/><path fill="none" stroke="#000" stroke-miterlimit="10" d="M683.3 320.8v-53"/><path d="M688.3 319.3l-5 8.7-5-8.7h10z"/><path fill="none" stroke="#000" stroke-miterlimit="10" d="M575.5 275.3V328"/><path d="M570.6 276.7l5-8.6 5 8.6h-10zm7.8-256.9a4.7 4.7 0 0 1 1.5 3.7 5 5 0 0 1-1.5 4 6.2 6.2 0 0 1-4.3 1.4H571v4.3h-2.8V18.5h6a6.3 6.3 0 0 1 4.3 1.3zm-2 5.9a2.5 2.5 0 0 0 .9-2 2.4 2.4 0 0 0-.9-2 3.9 3.9 0 0 0-2.4-.7h-3.1v5.4h3.1a3.8 3.8 0 0 0 2.4-.7zm14.9 4.4H584l-1.3 3h-3l6.5-14.6h3l6.3 14.7h-3zm-1-2.5l-2.6-6.1-2.6 6.1zm16.7 5.6l-2.5-4.4h-3.9v4.4h-2.8V18.5h6.2a6.5 6.5 0 0 1 4.4 1.3 4.6 4.6 0 0 1 1.6 3.7 5.5 5.5 0 0 1-.8 3 4.5 4.5 0 0 1-2.2 1.8l3.2 4.9zm-6.4-6.8h3.4a3.8 3.8 0 0 0 2.4-.7 2.5 2.5 0 0 0 .9-2 2.4 2.4 0 0 0-.9-2 3.8 3.8 0 0 0-2.4-.7h-3.3zm19.7-5.2a7 7 0 0 0-2-.4 3 3 0 0 0-1.6.4 1.2 1.2 0 0 0-.6 1 1.4 1.4 0 0 0 .4 1 3 3 0 0 0 1 .7 14.5 14.5 0 0 0 1.7.6 18.2 18.2 0 0 1 2.4.9 4.5 4.5 0 0 1 1.6 1.3 3.6 3.6 0 0 1 .7 2.2 3.9 3.9 0 0 1-.7 2.4 4.5 4.5 0 0 1-2 1.5 7.5 7.5 0 0 1-3 .5 9.2 9.2 0 0 1-3.2-.6 9.7 9.7 0 0 1-2.9-1.7l1.2-2.4a8.5 8.5 0 0 0 2.5 1.6 6.7 6.7 0 0 0 2.6.6 3.3 3.3 0 0 0 1.8-.4 1.5 1.5 0 0 0 .3-2.3 3.2 3.2 0 0 0-1-.7l-1.7-.5a19.5 19.5 0 0 1-2.5-.9 4.2 4.2 0 0 1-1.6-1.3 3.5 3.5 0 0 1-.7-2.2 3.8 3.8 0 0 1 .7-2.2 4.4 4.4 0 0 1 2-1.5 7.4 7.4 0 0 1 2.8-.5 9.8 9.8 0 0 1 2.8.4 9.5 9.5 0 0 1 2.5 1.1l-1.1 2.5a10.5 10.5 0 0 0-2.4-1.1zm17.5-2.7v2.4h-8v3.7h7.2V27h-7.1v3.7h8.2v2.5H627V18.4zm12.7 14.7l-2.5-4.4h-3.9v4.3h-2.8V18.5h6.2a6.5 6.5 0 0 1 4.4 1.3 4.6 4.6 0 0 1 1.5 3.7 5.5 5.5 0 0 1-.7 3 4.5 4.5 0 0 1-2.2 1.8l3.2 4.9zm-6.4-6.8h3.4a3.8 3.8 0 0 0 2.4-.7 2.5 2.5 0 0 0 .8-2 2.4 2.4 0 0 0-.8-2 3.8 3.8 0 0 0-2.4-.7H644zm19.8-5.2a7 7 0 0 0-2.1-.4 3 3 0 0 0-1.6.4 1.2 1.2 0 0 0-.6 1 1.4 1.4 0 0 0 .4 1 3 3 0 0 0 1 .7 14.5 14.5 0 0 0 1.7.6 18.2 18.2 0 0 1 2.4.9 4.5 4.5 0 0 1 1.6 1.3 3.6 3.6 0 0 1 .7 2.2 3.9 3.9 0 0 1-.7 2.4 4.5 4.5 0 0 1-2 1.5 7.5 7.5 0 0 1-2.9.5 9 9 0 0 1-3.4-.6 9.6 9.6 0 0 1-2.8-1.7l1.2-2.4a8.5 8.5 0 0 0 2.5 1.6 6.7 6.7 0 0 0 2.6.6 3.3 3.3 0 0 0 1.8-.4 1.5 1.5 0 0 0 .3-2.3 3.2 3.2 0 0 0-1-.7l-1.7-.5a19.5 19.5 0 0 1-2.5-.9 4.2 4.2 0 0 1-1.6-1.3 3.5 3.5 0 0 1-.7-2.2 3.8 3.8 0 0 1 .7-2.2 4.4 4.4 0 0 1 2-1.5 7.4 7.4 0 0 1 2.8-.5 9.8 9.8 0 0 1 2.9.4 9.5 9.5 0 0 1 2.4 1.1l-1 2.5a10.5 10.5 0 0 0-2.5-1.1zM954 567.5a5 5 0 0 0-2.2-.5 5 5 0 0 0-2.5.6 4.7 4.7 0 0 0-1.7 1.8 5.2 5.2 0 0 0 0 5 4.8 4.8 0 0 0 1.7 1.8 4.9 4.9 0 0 0 2.5.7 5.2 5.2 0 0 0 2.2-.5 6 6 0 0 0 1.8-1.3l1.7 1.9a8.8 8.8 0 0 1-2.7 1.8 7.6 7.6 0 0 1-3.1.7 7.7 7.7 0 0 1-3.9-1 7.4 7.4 0 0 1-2.8-2.7 7.5 7.5 0 0 1-1-3.9 7.3 7.3 0 0 1 1-3.8 7.4 7.4 0 0 1 2.8-2.7 8.1 8.1 0 0 1 7-.3 7.5 7.5 0 0 1 2.6 1.7l-1.6 2a5.7 5.7 0 0 0-1.8-1.4zm16.6-2a7.4 7.4 0 0 1 2.8 2.6 7.6 7.6 0 0 1 0 7.7 7.6 7.6 0 0 1-2.8 2.7 8.3 8.3 0 0 1-8 0 7.5 7.5 0 0 1-2.9-2.7 7.6 7.6 0 0 1 0-7.7 7.3 7.3 0 0 1 2.9-2.7 8.5 8.5 0 0 1 8 0zm-6.5 2.1a5 5 0 0 0-2.5 4.3 5 5 0 0 0 .7 2.6 5.2 5.2 0 0 0 1.8 1.8 4.9 4.9 0 0 0 2.5.7 4.8 4.8 0 0 0 2.5-.7 5 5 0 0 0 1.8-1.8 5 5 0 0 0 .6-2.5 5 5 0 0 0-.6-2.6 4.9 4.9 0 0 0-4.3-2.4 5 5 0 0 0-2.5.6zm26.2-3v14.7h-2.7l-7.5-10.1v10.1h-2.8v-14.7h2.7l7.6 10.2v-10.2zm17 0v14.7h-2.7l-7.5-10.1v10.1h-2.8v-14.7h2.7l7.6 10.2v-10.2zm14.8 0v2.5h-8v3.6h7.1v2.5h-7.1v3.7h8.2v2.4h-11v-14.7zm12.3 2.9a5 5 0 0 0-2.1-.5 5 5 0 0 0-2.5.6 4.6 4.6 0 0 0-1.8 1.8 5.2 5.2 0 0 0 0 5 4.7 4.7 0 0 0 1.8 1.8 4.8 4.8 0 0 0 2.5.7 5.2 5.2 0 0 0 2-.5 6 6 0 0 0 2-1.3l1.6 1.9a8.8 8.8 0 0 1-2.7 1.8 7.8 7.8 0 0 1-7-.3 7.5 7.5 0 0 1 .1-13 8.1 8.1 0 0 1 7-.5 7.5 7.5 0 0 1 2.6 1.8l-1.7 2a5.6 5.6 0 0 0-1.8-1.4zm16.6-2.9v2.5h-4.6v12.2h-2.8v-12.2h-4.6v-2.5zm12.3.8a7.3 7.3 0 0 1 3.8 6.5 7.3 7.3 0 0 1-1 3.9 7.4 7.4 0 0 1-2.8 2.7 8.3 8.3 0 0 1-8 0 7.4 7.4 0 0 1-2.8-2.7 7.6 7.6 0 0 1 0-7.7 7.3 7.3 0 0 1 2.8-2.7 8.5 8.5 0 0 1 8 0zm-6.5 2.2a4.8 4.8 0 0 0-1.8 1.8 5 5 0 0 0 0 5 5 5 0 0 0 1.8 2 5 5 0 0 0 2.5.6 4.8 4.8 0 0 0 2.5-.7 5 5 0 0 0 2.4-4.3 4.9 4.9 0 0 0-.7-2.6 4.9 4.9 0 0 0-4.2-2.4 5 5 0 0 0-2.5.6zm22.4 11.7l-2.5-4.3h-3.9v4.3h-2.8v-14.7h6.1a6.6 6.6 0 0 1 4.4 1.3 4.6 4.6 0 0 1 1.6 3.8 5.5 5.5 0 0 1-.7 2.9 4.6 4.6 0 0 1-2.2 1.8l3.2 4.9zm-6.4-6.8h3.3a3.8 3.8 0 0 0 2.5-.7 2.5 2.5 0 0 0 .8-2 2.4 2.4 0 0 0-.8-2 3.8 3.8 0 0 0-2.5-.7h-3.3zm19.7-5.2a6.7 6.7 0 0 0-2-.3 2.8 2.8 0 0 0-1.7.3 1.2 1.2 0 0 0-.5 1 1.4 1.4 0 0 0 .4 1 3.3 3.3 0 0 0 1 .7 17.6 17.6 0 0 0 1.7.6 17.6 17.6 0 0 1 2.4.9 4.2 4.2 0 0 1 1.6 1.3 3.6 3.6 0 0 1 .7 2.2 4 4 0 0 1-.7 2.4 4.6 4.6 0 0 1-2 1.5 7.6 7.6 0 0 1-3 .5 9.3 9.3 0 0 1-3.3-.6 9.5 9.5 0 0 1-2.9-1.7l1.2-2.4a8.4 8.4 0 0 0 2.5 1.6 6.6 6.6 0 0 0 2.6.6 3.3 3.3 0 0 0 1.9-.5 1.5 1.5 0 0 0 .2-2.2 3 3 0 0 0-1-.7l-1.7-.6a21.2 21.2 0 0 1-2.4-.8 4.2 4.2 0 0 1-1.7-1.3 3.5 3.5 0 0 1-.6-2.2 3.7 3.7 0 0 1 .7-2.3 4.4 4.4 0 0 1 1.9-1.5 7.4 7.4 0 0 1 2.9-.5 10 10 0 0 1 5.3 1.6l-1.2 2.4a10.5 10.5 0 0 0-2.3-1zM616.7 732.7l-2.5-4.4h-3.9v4.3h-2.8V718h6.2a6.6 6.6 0 0 1 4.4 1.3 4.6 4.6 0 0 1 1.5 3.8 5.5 5.5 0 0 1-.7 2.9 4.5 4.5 0 0 1-2.2 1.8l3.2 4.9zm-6.4-6.9h3.4a3.8 3.8 0 0 0 2.4-.6 2.5 2.5 0 0 0 .8-2.1 2.4 2.4 0 0 0-.8-2 3.8 3.8 0 0 0-2.4-.7h-3.4zm16.4 3.5a3.6 3.6 0 0 0 2.6 1 3.5 3.5 0 0 0 2.6-1 3.8 3.8 0 0 0 1-2.7V718h2.8v8.7a6.8 6.8 0 0 1-.8 3.3 5.3 5.3 0 0 1-2.2 2.2 7.2 7.2 0 0 1-3.4.7 7.4 7.4 0 0 1-3.4-.8 5.3 5.3 0 0 1-2.2-2.1 7 7 0 0 1-.8-3.3V718h2.8v8.7a3.7 3.7 0 0 0 1 2.6zm15.5-11.3v12.1h6.4v2.5h-9.2V718zm19.8 0v2.5h-8v3.5h7.1v2.5H654v3.7h8.2v2.4h-11V718zm10.4 2.6a7 7 0 0 0-2-.3 3 3 0 0 0-1.7.4 1.2 1.2 0 0 0-.6 1 1.4 1.4 0 0 0 .4 1 3.3 3.3 0 0 0 1 .7l1.7.6a20 20 0 0 1 2.5.8 4.4 4.4 0 0 1 1.6 1.3 3.6 3.6 0 0 1 .7 2.3 3.9 3.9 0 0 1-.7 2.4 4.5 4.5 0 0 1-2 1.5 7.6 7.6 0 0 1-3 .5 9 9 0 0 1-3.3-.6 9.3 9.3 0 0 1-2.9-1.8l1.2-2.3a8.7 8.7 0 0 0 2.5 1.6 6.5 6.5 0 0 0 2.6.6 3.3 3.3 0 0 0 1.8-.5 1.5 1.5 0 0 0 .3-2.3 3 3 0 0 0-1-.6l-1.7-.6a21.5 21.5 0 0 1-2.5-.9 4.2 4.2 0 0 1-1.6-1.2 3.5 3.5 0 0 1-.6-2.3 3.7 3.7 0 0 1 .6-2.2 4.3 4.3 0 0 1 2-1.5 7.4 7.4 0 0 1 2.9-.5 9.8 9.8 0 0 1 5.3 1.6l-1.2 2.4a10.8 10.8 0 0 0-2.3-1zm-459-2.6v2.5H206v4h6.7v2.4H206v5.8h-2.8V718zm13.1.7a7.5 7.5 0 0 1 2.8 10.4 7.6 7.6 0 0 1-2.8 2.7 8.3 8.3 0 0 1-8 0 7.5 7.5 0 0 1-2.8-2.7 7.4 7.4 0 0 1 2.8-10.4 8.6 8.6 0 0 1 8 0zm-6.4 2.2a5 5 0 0 0-1.9 7 5 5 0 0 0 1.9 1.7 4.8 4.8 0 0 0 2.5.7 4.7 4.7 0 0 0 2.4-.7 4.8 4.8 0 0 0 1.8-1.8 5.2 5.2 0 0 0 0-5 4.9 4.9 0 0 0-1.8-1.9 4.8 4.8 0 0 0-2.4-.6 5 5 0 0 0-2.5.6zm22.3 11.8l-2.5-4.4h-3.8v4.3h-2.8V718h6a6.6 6.6 0 0 1 4.5 1.3 4.7 4.7 0 0 1 1.5 3.8 5.6 5.6 0 0 1-.7 2.9 4.5 4.5 0 0 1-2.2 1.8l3.3 4.9zm-6.3-6.9h3.3a3.7 3.7 0 0 0 2.4-.6 2.5 2.5 0 0 0 .9-2.1 2.4 2.4 0 0 0-.9-2 3.8 3.8 0 0 0-2.4-.7H236zm16-7.8l4.8 9.5 4.9-9.5h3.2v14.7h-2.6v-10.6l-4.6 9H256l-4.6-9v10.6h-2.6V718zm26.5 11.5h-7.2l-1.3 3.1h-3l6.5-14.7h3l6.3 14.7h-3zm-1-2.4L275 721l-2.6 6.2zM294 718v2.5h-4.6v12.2h-2.8v-12.3H282V718zm12.8 0v2.5h-4.6v12.2h-2.9v-12.3h-4.5V718zm13.1 0v2.5h-8v3.5h7.2v2.5H312v3.7h8.2v2.4h-11V718zm12.8 14.6l-2.6-4.3h-3.8v4.3h-2.8V718h6.1a6.6 6.6 0 0 1 4.4 1.3 4.6 4.6 0 0 1 1.6 3.8 5.5 5.5 0 0 1-.8 2.9 4.5 4.5 0 0 1-2.2 1.8l3.3 4.9zm-6.4-6.8h3.3a3.8 3.8 0 0 0 2.4-.6 2.5 2.5 0 0 0 .9-2.1 2.4 2.4 0 0 0-.9-2 3.8 3.8 0 0 0-2.4-.7h-3.3zm19.7-5.1a7 7 0 0 0-2-.4 3 3 0 0 0-1.7.4 1.2 1.2 0 0 0-.6 1 1.4 1.4 0 0 0 .4 1 3 3 0 0 0 1 .7 17 17 0 0 0 1.7.6 19.7 19.7 0 0 1 2.5.8 4.4 4.4 0 0 1 1.6 1.3 3.6 3.6 0 0 1 .7 2.3 4 4 0 0 1-.7 2.4 4.5 4.5 0 0 1-2 1.5 7.5 7.5 0 0 1-3 .5 9 9 0 0 1-3.3-.6 9.2 9.2 0 0 1-2.9-1.8l1.2-2.3a8.6 8.6 0 0 0 2.5 1.6 6.5 6.5 0 0 0 2.6.6 3.3 3.3 0 0 0 1.8-.5 1.5 1.5 0 0 0 .3-2.3 3 3 0 0 0-1-.6l-1.7-.6a21 21 0 0 1-2.5-.9 4.2 4.2 0 0 1-1.6-1.2 3.5 3.5 0 0 1-.6-2.3 3.8 3.8 0 0 1 .6-2.2 4.4 4.4 0 0 1 2-1.5 7.4 7.4 0 0 1 2.9-.5 9.8 9.8 0 0 1 5.3 1.6l-1.2 2.4a10.6 10.6 0 0 0-2.3-1zm-308.5-365a4 4 0 0 1 1.2.6l-.6 1.2a4.4 4.4 0 0 0-1-.5 3.9 3.9 0 0 0-1.1-.2 1.5 1.5 0 0 0-.8.2.6.6 0 0 0-.3.6.6.6 0 0 0 .3.5 5.2 5.2 0 0 0 1.2.5 10.1 10.1 0 0 1 1.2.4 2.3 2.3 0 0 1 .9.7 1.8 1.8 0 0 1 .3 1.2 2 2 0 0 1-.8 1.7 3.6 3.6 0 0 1-2 .5 5 5 0 0 1-1.6-.3 3.8 3.8 0 0 1-1.4-.7l.6-1.2a3.7 3.7 0 0 0 1.2.7 3.8 3.8 0 0 0 1.3.3 1.8 1.8 0 0 0 .9-.2.7.7 0 0 0 .3-.6.7.7 0 0 0-.2-.5 1.6 1.6 0 0 0-.5-.4l-.8-.3a9 9 0 0 1-1.3-.4 2.2 2.2 0 0 1-.8-.6 1.7 1.7 0 0 1-.3-1.2 1.9 1.9 0 0 1 .8-1.6 3.3 3.3 0 0 1 2-.6 5.2 5.2 0 0 1 1.3.2zm8.5.3a3.5 3.5 0 0 1 1.4 1.3 4.2 4.2 0 0 1 0 4 3.5 3.5 0 0 1-1.4 1.3 4.6 4.6 0 0 1-4 0 3.3 3.3 0 0 1-1.4-1.3 4.2 4.2 0 0 1 0-4 3.4 3.4 0 0 1 1.3-1.3 4.5 4.5 0 0 1 4.1 0zm-3.7 1.6a2.7 2.7 0 0 0 0 3.5 2.3 2.3 0 0 0 3.3 0 2.5 2.5 0 0 0 .7-1.8 2.4 2.4 0 0 0-.7-1.7 2.3 2.3 0 0 0-3.3 0zm13.9-1.3a3 3 0 0 1 .7 2.1v4.7h-1.6v-4.2a1.8 1.8 0 0 0-.5-1.3 1.8 1.8 0 0 0-1.3-.5 2 2 0 0 0-1.5.5 2.2 2.2 0 0 0-.6 1.5v4h-1.6v-7.5h1.6v1.4a2.8 2.8 0 0 1 2.7-1.5 2.7 2.7 0 0 1 2 .8zm7.6 5.8a3 3 0 0 1-2.5 1 3 3 0 0 1-1.3-.3 2.2 2.2 0 0 1-1.3-2 2 2 0 0 1 .8-1.6 3.3 3.3 0 0 1 2-.6h2.3v-.2a1.4 1.4 0 0 0-.5-1.1 2 2 0 0 0-1.3-.4 4 4 0 0 0-2.2.7l-.7-1a7.3 7.3 0 0 1 1.6-.8 5.4 5.4 0 0 1 1.6-.2 3.2 3.2 0 0 1 2.3.7 2.5 2.5 0 0 1 .8 1.9v4.9h-1.6zm-.7-.7a1.3 1.3 0 0 0 .7-1v-.6h-2a2.3 2.3 0 0 0-1.2.2.8.8 0 0 0-.4.8 1 1 0 0 0 .4.8 1.7 1.7 0 0 0 1 .3 2.5 2.5 0 0 0 1.5-.4zm7.4-5.5a3 3 0 0 1 1.5-.3v1.5a2.5 2.5 0 0 0-1.8.5 2.2 2.2 0 0 0-.8 1.6v3.9h-1.6v-7.5h1.6v1.5a2.7 2.7 0 0 1 1-1.2zm10.5 7.2l-1.9-5.6-1.9 5.6h-1.7l-2.7-7.5h1.7l1.9 5.9 1.9-5.9h1.6l2 5.9 1.8-5.9h1.7l-2.8 7.5zm12.2-6.8a3 3 0 0 1 .8 2.1v4.7h-1.7v-4.2a1.8 1.8 0 0 0-.4-1.3 1.8 1.8 0 0 0-1.4-.5 2 2 0 0 0-1.5.6 2.4 2.4 0 0 0-.6 1.7v3.7h-1.6v-10.4h1.6v4.4a2.8 2.8 0 0 1 2.8-1.5 2.7 2.7 0 0 1 2 .7zm7.6 5.8a3 3 0 0 1-2.4 1 3 3 0 0 1-1.4-.3 2.3 2.3 0 0 1-.9-.8 2.2 2.2 0 0 1-.3-1.2 2 2 0 0 1 .7-1.6 3.3 3.3 0 0 1 2-.6h2.3v-.2a1.4 1.4 0 0 0-.4-1.1 2 2 0 0 0-1.3-.4 3.9 3.9 0 0 0-2.2.7l-.7-1a7 7 0 0 1 1.5-.8 5.4 5.4 0 0 1 1.7-.2 3.2 3.2 0 0 1 2.2.7 2.5 2.5 0 0 1 .8 1.9v4.9h-1.6zm-.6-.7a1.4 1.4 0 0 0 .6-1v-.6h-2a2.4 2.4 0 0 0-1.1.2.8.8 0 0 0-.4.8 1 1 0 0 0 .4.8 1.7 1.7 0 0 0 1 .3 2.5 2.5 0 0 0 1.5-.4zm4.7 1.7v-10.4h1.7V363zm256.5 1.3a3 3 0 0 1-2.4 1 3 3 0 0 1-1.4-.2 2.3 2.3 0 0 1-1-.9 2.2 2.2 0 0 1-.2-1.2 2 2 0 0 1 .7-1.6 3.3 3.3 0 0 1 2-.6h2.3v-.2a1.4 1.4 0 0 0-.4-1.1 2 2 0 0 0-1.3-.4 4 4 0 0 0-2.2.7l-.7-1a7.9 7.9 0 0 1 1.5-.8 5.8 5.8 0 0 1 1.7-.2 3.3 3.3 0 0 1 2.2.7 2.5 2.5 0 0 1 .8 1.9v4.9h-1.6zm-.6-.6a1.4 1.4 0 0 0 .6-1v-.7h-2a2.3 2.3 0 0 0-1.1.2.8.8 0 0 0-.4.8 1 1 0 0 0 .4.8 1.7 1.7 0 0 0 1 .3 2.5 2.5 0 0 0 1.5-.4zm11-5.2a3 3 0 0 1 .8 2.1v4.7H371v-4.2a1.9 1.9 0 0 0-.5-1.3 1.8 1.8 0 0 0-1.3-.5 2 2 0 0 0-1.5.5 2.2 2.2 0 0 0-.6 1.5v4h-1.6v-7.5h1.6v1.5a2.8 2.8 0 0 1 2.7-1.5 2.7 2.7 0 0 1 2 .7zm7.7 5.8a3.5 3.5 0 0 1-3.9.7 2.3 2.3 0 0 1-.9-.8 2.2 2.2 0 0 1-.3-1.2 2 2 0 0 1 .7-1.6 3.3 3.3 0 0 1 2.1-.6h2.3v-.2a1.4 1.4 0 0 0-.5-1.2 2 2 0 0 0-1.3-.3 3.9 3.9 0 0 0-2.2.7l-.7-1.1a7.9 7.9 0 0 1 1.6-.7 5.8 5.8 0 0 1 1.6-.2 3.3 3.3 0 0 1 2.3.6 2.5 2.5 0 0 1 .8 2v4.9h-1.6zm-.7-.6a1.4 1.4 0 0 0 .7-1v-.7h-2a2.3 2.3 0 0 0-1.2.2.8.8 0 0 0-.4.8 1 1 0 0 0 .4.8 1.7 1.7 0 0 0 1 .3 2.5 2.5 0 0 0 1.5-.4zm4.8 1.6V355h1.6v10.4zm6.3 2.3a2.7 2.7 0 0 1-2.4.3 2.8 2.8 0 0 1-.8-.5l.7-1.2a2 2 0 0 0 .5.2 1.3 1.3 0 0 0 .5.1 1.2 1.2 0 0 0 1-.8l.3-.6-3-7.3h1.6l2.3 5.7 2-5.7h1.6l-3.4 8.5a2.8 2.8 0 0 1-1 1.3zm7.2-3.7h4.3v1.3h-6.3v-1l4.2-5h-4.1v-1.4h6.1v1.1zm11.9-5.1a4 4 0 0 1 .9 2.8v.6h-5.6a2.4 2.4 0 0 0 .8 1.3 2.3 2.3 0 0 0 1.5.5 3 3 0 0 0 1.1-.2 2.8 2.8 0 0 0 1-.6l.8.9a3.8 3.8 0 0 1-1.3.9 4.4 4.4 0 0 1-1.8.3 4 4 0 0 1-2-.5 3.4 3.4 0 0 1-1.3-1.3 4 4 0 0 1-.5-2 4.1 4.1 0 0 1 .5-2 3.5 3.5 0 0 1 1.3-1.3 4 4 0 0 1 2-.5 3.3 3.3 0 0 1 2.6 1zm-1.1.8a2.4 2.4 0 0 0-3 0 2.4 2.4 0 0 0-.7 1.4h4.3a2 2 0 0 0-.6-1.4zm5.8-2a12.7 12.7 0 0 0 0 6.6 10.1 10.1 0 0 0 1.2 2.8h-1.4a8.8 8.8 0 0 1-1.3-2.8 12.7 12.7 0 0 1 0-6.6 8.8 8.8 0 0 1 1.3-2.7h1.4a10.4 10.4 0 0 0-1.2 2.8zm3.4-2.7h1.4a9.3 9.3 0 0 1 1.3 2.8 12.7 12.7 0 0 1 0 6.6 9.3 9.3 0 0 1-1.3 2.7h-1.4a9.8 9.8 0 0 0 1.2-2.8 12.4 12.4 0 0 0 0-6.5 10 10 0 0 0-1.2-2.8zm169.6-59.6a3.4 3.4 0 0 1 1.4 1.3 4.2 4.2 0 0 1 0 4 3.3 3.3 0 0 1-1.4 1.3 4.6 4.6 0 0 1-4 0 3.3 3.3 0 0 1-1.3-1.3 4.2 4.2 0 0 1 0-4 3.4 3.4 0 0 1 1.4-1.3 4.5 4.5 0 0 1 4 0zm-3.6 1.6a2.7 2.7 0 0 0 0 3.5 2.2 2.2 0 0 0 1.6.7 2.1 2.1 0 0 0 1.7-.7 2.4 2.4 0 0 0 .6-1.8 2.5 2.5 0 0 0-.6-1.7 2.1 2.1 0 0 0-1.7-.7 2.2 2.2 0 0 0-1.6.7zm13.9-1.3a2.9 2.9 0 0 1 .7 2v4.7h-1.6v-4.2a1.8 1.8 0 0 0-.5-1.3 1.8 1.8 0 0 0-1.3-.5 2 2 0 0 0-1.4.6 2.2 2.2 0 0 0-.7 1.4v4h-1.6V295h1.6v1.4a2.8 2.8 0 0 1 2.8-1.5 2.7 2.7 0 0 1 2 .8zm5-.9a12.1 12.1 0 0 0-.4 3.3 12.3 12.3 0 0 0 .4 3.3 9.8 9.8 0 0 0 1.2 2.7h-1.4a9.3 9.3 0 0 1-1.3-2.7 12.7 12.7 0 0 1 0-6.6 9.3 9.3 0 0 1 1.3-2.8h1.4a9.8 9.8 0 0 0-1.2 2.8zm3.4-2.8h1.4a9 9 0 0 1 1.3 2.8 12.7 12.7 0 0 1 0 6.6 9 9 0 0 1-1.3 2.7h-1.4a10 10 0 0 0 1.2-2.8 12.2 12.2 0 0 0 .4-3.2 12.1 12.1 0 0 0-.4-3.3 10.1 10.1 0 0 0-1.2-2.8zm98 4a4.1 4.1 0 0 1 .8 2.7v.6h-5.6a2.4 2.4 0 0 0 .8 1.4 2.3 2.3 0 0 0 1.5.5 3 3 0 0 0 1.1-.2 2.8 2.8 0 0 0 1-.6l.9.9a4 4 0 0 1-1.4.9 4.7 4.7 0 0 1-1.7.3 4 4 0 0 1-2-.4 3.4 3.4 0 0 1-1.4-1.4 4.3 4.3 0 0 1 0-4 3.4 3.4 0 0 1 1.4-1.2 3.8 3.8 0 0 1 2-.5 3.3 3.3 0 0 1 2.5 1zm-1.2.7a2.1 2.1 0 0 0-1.5-.5 2.2 2.2 0 0 0-1.5.5 2.3 2.3 0 0 0-.7 1.4h4.3a2 2 0 0 0-.6-1.4zm5.4 5.7l-3-7.4h1.8l2 5.9 2-5.9h1.6l-2.8 7.5zm11.3-6.5a4.1 4.1 0 0 1 .9 2.8v.6H714a2.5 2.5 0 0 0 .9 1.4 2.3 2.3 0 0 0 1.5.5 3 3 0 0 0 1.1-.2 2.8 2.8 0 0 0 1-.7l.8 1a3.9 3.9 0 0 1-1.3.9 4.6 4.6 0 0 1-1.8.3 4 4 0 0 1-2-.5 3.4 3.4 0 0 1-1.3-1.3 4.3 4.3 0 0 1 0-4 3.4 3.4 0 0 1 1.3-1.3 3.9 3.9 0 0 1 2-.5 3.3 3.3 0 0 1 2.6 1zm-1.2.8a2 2 0 0 0-1.4-.5 2.1 2.1 0 0 0-1.5.5 2.3 2.3 0 0 0-.7 1.4h4.2a2 2 0 0 0-.6-1.4zm10.4-1a2.9 2.9 0 0 1 .7 2v4.7h-1.6v-4.2a1.8 1.8 0 0 0-.5-1.3 1.8 1.8 0 0 0-1.3-.5 2 2 0 0 0-1.4.6 2.3 2.3 0 0 0-.7 1.4v4h-1.6V295h1.6v1.4a2.8 2.8 0 0 1 2.8-1.5 2.7 2.7 0 0 1 2 .8zm5.5 6.8a2.1 2.1 0 0 1-1.5-.6 2.1 2.1 0 0 1-.5-1.6v-3.8h-1v-1.3h1v-2h1.6v2h2.2v1.3h-2.2v3.5a1.2 1.2 0 0 0 .2.8.7.7 0 0 0 .6.2 2.8 2.8 0 0 0 1-.3l.5 1.2a3.7 3.7 0 0 1-1.8.6zm5.5-7.7a12.1 12.1 0 0 0-.5 3.3 12.3 12.3 0 0 0 .5 3.3 9.8 9.8 0 0 0 1.2 2.7h-1.5a9.3 9.3 0 0 1-1.2-2.7 12.7 12.7 0 0 1 0-6.6 9.3 9.3 0 0 1 1.2-2.8h1.5a9.8 9.8 0 0 0-1.2 2.8zm3.4-2.8h1.4a8.8 8.8 0 0 1 1.3 2.8 12.7 12.7 0 0 1 0 6.6 8.8 8.8 0 0 1-1.3 2.7h-1.4a10 10 0 0 0 1.2-2.8 12.2 12.2 0 0 0 .4-3.2 12.1 12.1 0 0 0-.4-3.3 10.1 10.1 0 0 0-1.2-2.8z"/><path fill="#fff" d="M576.7 357.7a6.4 6.4 0 0 1 1.8.8l-.6 1.4a6.3 6.3 0 0 0-1.7-.8 6.5 6.5 0 0 0-1.7-.3 3.7 3.7 0 0 0-2 .4 1.4 1.4 0 0 0-.8 1.3 1.6 1.6 0 0 0 .4 1.1 2.8 2.8 0 0 0 1 .7l1.7.6a18.8 18.8 0 0 1 2 .8 3.6 3.6 0 0 1 1.4 1 2.9 2.9 0 0 1 .6 1.9 3 3 0 0 1-.6 1.8 3.7 3.7 0 0 1-1.6 1.2 6.3 6.3 0 0 1-2.4.5 7 7 0 0 1-2.6-.6 6.9 6.9 0 0 1-2.2-1.4l.7-1.3a6.1 6.1 0 0 0 2 1.3 5.7 5.7 0 0 0 2.1.5 3.9 3.9 0 0 0 2.2-.5 1.6 1.6 0 0 0 .8-1.4 1.7 1.7 0 0 0-.4-1.2 2.7 2.7 0 0 0-1-.7 16 16 0 0 0-1.7-.6 16.4 16.4 0 0 1-2-.7 3.4 3.4 0 0 1-1.4-1 3.1 3.1 0 0 1 0-3.6 3.4 3.4 0 0 1 1.5-1.1 6 6 0 0 1 2.3-.4 7.2 7.2 0 0 1 2.2.3zm14.2.5a6.4 6.4 0 0 1 2.4 2.3 6.3 6.3 0 0 1 0 6.4 6.4 6.4 0 0 1-2.4 2.3 6.5 6.5 0 0 1-3.3.9 6.7 6.7 0 0 1-3.3-.9 6.4 6.4 0 0 1-2.4-2.3 6.3 6.3 0 0 1 0-6.4 6.4 6.4 0 0 1 2.4-2.3 6.8 6.8 0 0 1 3.3-.8 6.5 6.5 0 0 1 3.3.8zm-5.9 1.2a5.2 5.2 0 0 0-1.9 1.8 4.6 4.6 0 0 0-.7 2.5 4.7 4.7 0 0 0 .7 2.5 5.2 5.2 0 0 0 1.9 1.8 5 5 0 0 0 2.6.7 5 5 0 0 0 2.5-.7 5 5 0 0 0 1.9-1.8 4.8 4.8 0 0 0 0-5 5 5 0 0 0-1.9-1.8 5 5 0 0 0-2.5-.7 5 5 0 0 0-2.6.7zm21.1 10.6l-7.5-10.1V370h-1.4v-12.6h1.4l7.6 10.1v-10.1h1.4V370zm6.8-3.2l-1.4 3.2H610l5.7-12.6h1.4l5.7 12.6h-1.6l-1.4-3.2zm3.4-7.8l-2.8 6.4h5.7zm14.4 7h-4.2v4h-1.4v-12.6h4.8a5.5 5.5 0 0 1 3.6 1.1 3.9 3.9 0 0 1 1.4 3.1 4.5 4.5 0 0 1-.8 2.6 4.1 4.1 0 0 1-2 1.5l3 4.3h-1.7zm1.8-2.1a2.7 2.7 0 0 0 1-2.2 2.6 2.6 0 0 0-1-2.2 4.2 4.2 0 0 0-2.6-.7h-3.4v5.8h3.4a4.1 4.1 0 0 0 2.6-.7zM649 370l-3.4-10.6-3.4 10.6h-1.5l-4.2-12.6h1.5l3.5 11 3.4-11h1.5l3.4 11 3.5-11h1.4l-4.2 12.6zm17 0v-5.5h-7.6v5.5H657v-12.6h1.4v5.7h7.6v-5.7h1.4V370zm6.7-3.2l-1.4 3.2h-1.5l5.6-12.6h1.5l5.7 12.6H681l-1.4-3.2zm3.4-7.8l-2.8 6.4h5.7zm15.8 9.6v1.4h-7v-12.6h1.4v11.2zm-178 11.8v4.1h6.4v1.4h-6.4v4.3h7.3v1.4h-8.7V379h8.5v1.4zm20.2 11.2h-1.7l-3.9-5.3-3.8 5.3H523l4.6-6.5-4.3-6.1h1.7l3.5 4.9 3.5-4.9h1.7l-4.3 6zm6.6-11.2v11.2h-1.4v-11.2h-4.1V379h9.6v1.4zm8 0v4.1h6.3v1.4h-6.3v4.3h7.3v1.4h-8.7V379h8.5v1.4zm19.6 11.2l-7.5-10.1v10.1h-1.5V379h1.5l7.6 10.1V379h1.4v12.6zm14-11.8a6.3 6.3 0 0 1 2.4 2.3 6.3 6.3 0 0 1-2.3 8.7 6.8 6.8 0 0 1-3.3.8h-5V379h5a6.6 6.6 0 0 1 3.3.8zm-6.9 10.4h3.7a5.2 5.2 0 0 0 2.5-.6 5 5 0 0 0 1.8-6.8 5 5 0 0 0-1.8-1.8 5.1 5.1 0 0 0-2.5-.6h-3.7zm19-11a6.6 6.6 0 0 1 1.9 1l-.6 1.3a6.3 6.3 0 0 0-1.7-.8 6.6 6.6 0 0 0-1.8-.3 3.8 3.8 0 0 0-2 .4 1.4 1.4 0 0 0-.7 1.3 1.6 1.6 0 0 0 .4 1.1 2.6 2.6 0 0 0 1 .7l1.7.6a17.4 17.4 0 0 1 2 .8 3.6 3.6 0 0 1 1.4 1 3 3 0 0 1 .6 1.9 3 3 0 0 1-.6 1.8 3.7 3.7 0 0 1-1.6 1.2 6.2 6.2 0 0 1-2.4.4 7 7 0 0 1-2.6-.5 6.9 6.9 0 0 1-2.2-1.4l.6-1.3a6.2 6.2 0 0 0 2 1.3 5.8 5.8 0 0 0 2.2.5 3.8 3.8 0 0 0 2.2-.5 1.7 1.7 0 0 0 .8-1.5 1.6 1.6 0 0 0-.4-1.1 2.7 2.7 0 0 0-1-.7 17.3 17.3 0 0 0-1.7-.6 16.4 16.4 0 0 1-2-.7 3.5 3.5 0 0 1-1.4-1 3.1 3.1 0 0 1 0-3.6 3.4 3.4 0 0 1 1.5-1.1 6 6 0 0 1 2.3-.4 7.5 7.5 0 0 1 2.1.3zm12.2 1.2v4.1h6.4v1.4h-6.4v4.3h7.4v1.4h-8.8V379h8.6v1.4zm14 11.2l-5.1-12.6h1.5l4.3 11 4.4-11h1.5l-5.1 12.6zm10.4-11.2v4.1h6.3v1.4H631v4.3h7.3v1.4h-8.7V379h8.6v1.4zm19.7 11.2l-7.6-10.1v10.1h-1.4V379h1.5l7.5 10.1V379h1.4v12.6zm9.5-11.2v11.2h-1.5v-11.2h-4V379h9.6v1.4zm13.3 0v4.1h6.3v1.4h-6.3v4.3h7.3v1.4H672V379h8.6v1.4zm22 11.2v-10.4l-4.6 9h-.8l-4.6-9v10.4h-1.4V379h1.8l4.6 9 4.6-9h1.8v12.6zm5.5 0V379h1.4v12.6zm9.5-11.2v11.2H709v-11.2h-4V379h9.7v1.4zm10.4 0v11.2h-1.4v-11.2h-4.2V379h9.7v1.4zm8 0v4.1h6.4v1.4h-6.4v4.3h7.3v1.4h-8.8V379h8.6v1.4zm16.3 7.2H741v4h-1.4V379h4.7a5.5 5.5 0 0 1 3.7 1.1 3.9 3.9 0 0 1 1.3 3.1 4.5 4.5 0 0 1-.7 2.6 4.1 4.1 0 0 1-2.1 1.5l3 4.3h-1.7zm1.8-2.1a2.7 2.7 0 0 0 .9-2.2 2.6 2.6 0 0 0-1-2.2 4.2 4.2 0 0 0-2.6-.7H741v5.8h3.4a4.1 4.1 0 0 0 2.6-.7z"/><path d="M586.8 446.7a3.4 3.4 0 0 1 1.3 1.4 3.8 3.8 0 0 1 .5 2 3.9 3.9 0 0 1-.5 2 3.3 3.3 0 0 1-1.4 1.3 4.5 4.5 0 0 1-4 0 3.3 3.3 0 0 1-1.3-1.3 3.9 3.9 0 0 1-.5-2 3.8 3.8 0 0 1 .5-2 3.4 3.4 0 0 1 1.4-1.4 4.5 4.5 0 0 1 4 0zm-3.7 1.6a2.5 2.5 0 0 0-.6 1.7 2.5 2.5 0 0 0 .6 1.8 2.2 2.2 0 0 0 1.6.7 2.1 2.1 0 0 0 1.7-.7 2.4 2.4 0 0 0 .6-1.8 2.4 2.4 0 0 0-.6-1.7 2.1 2.1 0 0 0-1.7-.7 2.2 2.2 0 0 0-1.6.7zM597 447a2.9 2.9 0 0 1 .7 2.1v4.6h-1.6v-4.1a1.8 1.8 0 0 0-.5-1.4 1.8 1.8 0 0 0-1.3-.5 2 2 0 0 0-1.4.6 2.3 2.3 0 0 0-.7 1.5v4h-1.6v-7.5h1.6v1.4a2.8 2.8 0 0 1 2.8-1.5 2.7 2.7 0 0 1 2 .8zm5-.9a12.4 12.4 0 0 0 0 6.6 9.9 9.9 0 0 0 1.2 2.8h-1.4a9.3 9.3 0 0 1-1.3-2.8 12.7 12.7 0 0 1 0-6.6 9.3 9.3 0 0 1 1.3-2.7h1.4a10 10 0 0 0-1.2 2.7zm3.4-2.7h1.4a9 9 0 0 1 1.3 2.7 12.7 12.7 0 0 1 0 6.6 9 9 0 0 1-1.3 2.8h-1.4a10.2 10.2 0 0 0 1.2-2.8 12.7 12.7 0 0 0 0-6.5 10.4 10.4 0 0 0-1.2-2.8zm91 3.2a3 3 0 0 1 1.5-.4v1.6a2.5 2.5 0 0 0-1.8.5 2.3 2.3 0 0 0-.8 1.6v3.9h-1.6v-7.5h1.6v1.5a2.8 2.8 0 0 1 1-1.2zm8.8.6a4.1 4.1 0 0 1 .9 2.8v.7h-5.7a2.4 2.4 0 0 0 .8 1.3 2.3 2.3 0 0 0 1.5.5 3 3 0 0 0 1.2-.2 2.8 2.8 0 0 0 1-.7l.8 1a4 4 0 0 1-1.4.9 4.4 4.4 0 0 1-1.7.3 4 4 0 0 1-2-.5 3.3 3.3 0 0 1-1.3-1.3 4.3 4.3 0 0 1 0-4 3.5 3.5 0 0 1 1.3-1.3 4 4 0 0 1 2-.4 3.4 3.4 0 0 1 2.6 1zm-1.2.9a2 2 0 0 0-1.4-.6 2 2 0 0 0-1.5.6 2.3 2.3 0 0 0-.7 1.4h4.2a1.9 1.9 0 0 0-.6-1.4zm10.1-1.4a3.2 3.2 0 0 1 1.3 1.4 4.6 4.6 0 0 1 0 4 3.2 3.2 0 0 1-1.3 1.2 3.6 3.6 0 0 1-1.8.5 3.3 3.3 0 0 1-1.6-.3 2.7 2.7 0 0 1-1-1v4H708v-10.2h1.7v1.3a2.7 2.7 0 0 1 1-1 3.3 3.3 0 0 1 1.6-.3 3.6 3.6 0 0 1 1.8.4zm-1 5.4a2.1 2.1 0 0 0 .8-.8 2.7 2.7 0 0 0 .3-1.3 2.6 2.6 0 0 0-.3-1.2 2.2 2.2 0 0 0-.8-.9 2.2 2.2 0 0 0-1.1-.3 2.3 2.3 0 0 0-1.2.3 2.2 2.2 0 0 0-.8.9 2.6 2.6 0 0 0-.3 1.2 2.4 2.4 0 0 0 .6 1.8 2.1 2.1 0 0 0 1.7.6 2.3 2.3 0 0 0 1.1-.3zm9.9-5.4a3.4 3.4 0 0 1 1.4 1.4 3.8 3.8 0 0 1 .5 2 3.9 3.9 0 0 1-.5 2 3.3 3.3 0 0 1-1.4 1.3 4.5 4.5 0 0 1-4 0 3.3 3.3 0 0 1-1.4-1.3 3.9 3.9 0 0 1-.5-2 3.8 3.8 0 0 1 .5-2 3.4 3.4 0 0 1 1.4-1.4 4.5 4.5 0 0 1 4 0zm-3.7 1.6a2.5 2.5 0 0 0-.6 1.7 2.5 2.5 0 0 0 .6 1.8 2.2 2.2 0 0 0 1.7.7 2.1 2.1 0 0 0 1.6-.7 2.4 2.4 0 0 0 .7-1.8 2.4 2.4 0 0 0-.7-1.7 2.1 2.1 0 0 0-1.6-.7 2.2 2.2 0 0 0-1.7.7zm10.2-1.7a3 3 0 0 1 1.5-.4v1.6a2.5 2.5 0 0 0-1.8.5 2.2 2.2 0 0 0-.8 1.6v3.9h-1.6v-7.5h1.6v1.5a2.7 2.7 0 0 1 1-1.2zm5.5 7.2a2 2 0 0 1-2-2.1v-4h-1v-1.1h1v-2h1.5v2h2.2v1.2h-2.2v3.6a1.2 1.2 0 0 0 .2.7.8.8 0 0 0 .6.3 2.8 2.8 0 0 0 1.1-.3l.4 1.2a3.6 3.6 0 0 1-1.8.5zm5.4-7.7a12.7 12.7 0 0 0 0 6.6 10.2 10.2 0 0 0 1.2 2.8h-1.4a9 9 0 0 1-1.3-2.8 12.7 12.7 0 0 1 0-6.6 9 9 0 0 1 1.3-2.7h1.4a10.4 10.4 0 0 0-1.2 2.7zm3.4-2.7h1.5a9.3 9.3 0 0 1 1.2 2.7 12.7 12.7 0 0 1 0 6.6 9.3 9.3 0 0 1-1.3 2.8h-1.4a9.9 9.9 0 0 0 1.2-2.8 12.4 12.4 0 0 0 0-6.5 10 10 0 0 0-1.2-2.8zm113.7-59.1a4 4 0 0 1 .9 2.8v.6h-5.6a2.4 2.4 0 0 0 .8 1.3 2.3 2.3 0 0 0 1.5.5 3 3 0 0 0 1.1-.2 2.8 2.8 0 0 0 1-.6l.8.9a3.8 3.8 0 0 1-1.3.9 4.4 4.4 0 0 1-1.8.3 4 4 0 0 1-2-.4 3.4 3.4 0 0 1-1.3-1.4 4 4 0 0 1-.5-2 4.1 4.1 0 0 1 .5-2 3.5 3.5 0 0 1 1.3-1.3 4 4 0 0 1 2-.5 3.3 3.3 0 0 1 2.6 1zm-1.1.8a2.4 2.4 0 0 0-3 0 2.4 2.4 0 0 0-.7 1.4h4.3a2 2 0 0 0-.6-1.4zM872 384a3 3 0 0 1 .7 2.1v4.6h-1.6v-4.1a1.9 1.9 0 0 0-.5-1.4 1.7 1.7 0 0 0-1.3-.5 2 2 0 0 0-1.4.7 2.5 2.5 0 0 0-.6 1.7v3.6h-1.6v-4.1a1.8 1.8 0 0 0-.5-1.4 1.7 1.7 0 0 0-1.3-.5 2 2 0 0 0-1.5.7 2.4 2.4 0 0 0-.5 1.7v3.6h-1.6v-7.4h1.6v1.4a2.7 2.7 0 0 1 2.7-1.5 2.8 2.8 0 0 1 1.6.5 2.5 2.5 0 0 1 1 1.3 2.7 2.7 0 0 1 2.8-1.8 2.6 2.6 0 0 1 2 .8zm4.7-3.5a1 1 0 0 1 .2.7 1 1 0 0 1-.2.7 1 1 0 0 1-1.4 0 1 1 0 0 1-.3-.7 1 1 0 0 1 .3-.7.9.9 0 0 1 .7-.3 1 1 0 0 1 .7.3zm-1.5 10.3v-7.5h1.6v7.5zm6.6 0a2 2 0 0 1-2-2.1v-3.9h-1v-1.2h1v-2h1.5v2h2.2v1.2h-2.2v3.6a1.2 1.2 0 0 0 .2.8.8.8 0 0 0 .6.2 2.6 2.6 0 0 0 1.2-.3l.4 1.2a3.6 3.6 0 0 1-1.9.5zm5.5-7.6a12.4 12.4 0 0 0 0 6.5 9.8 9.8 0 0 0 1.2 2.8H887a9.1 9.1 0 0 1-1.3-2.7 12.4 12.4 0 0 1 0-6.7 9 9 0 0 1 1.3-2.7h1.5a10 10 0 0 0-1.2 2.8zm3.3-2.8h1.5a9 9 0 0 1 1.3 2.7 12.7 12.7 0 0 1 0 6.7 9.1 9.1 0 0 1-1.3 2.7h-1.5a10.1 10.1 0 0 0 1.3-2.8 12.7 12.7 0 0 0 0-6.5 10.4 10.4 0 0 0-1.3-2.8zm-48.1-33.5a3.3 3.3 0 0 1 1.3.9l-.9 1a2.8 2.8 0 0 0-2-.9 2.2 2.2 0 0 0-1.7.7 2.6 2.6 0 0 0 0 3.4 2 2 0 0 0 1.6.7 2.7 2.7 0 0 0 2.2-.9l.9.9a3.3 3.3 0 0 1-1.3 1 4.5 4.5 0 0 1-1.9.4 4 4 0 0 1-2-.5 3.4 3.4 0 0 1-1.3-1.3 4.4 4.4 0 0 1 0-4 3.4 3.4 0 0 1 1.3-1.3 4 4 0 0 1 2-.5 4.9 4.9 0 0 1 1.8.4zm8.3.1a3.5 3.5 0 0 1 1.3 1.3 4 4 0 0 1 .5 2 4 4 0 0 1-.5 2 3.5 3.5 0 0 1-1.3 1.4 4.2 4.2 0 0 1-2 .4 4.3 4.3 0 0 1-2-.4 3.4 3.4 0 0 1-1.4-1.4 3.9 3.9 0 0 1-.5-2 3.8 3.8 0 0 1 .5-2 3.4 3.4 0 0 1 1.4-1.3 4.2 4.2 0 0 1 2-.5 4 4 0 0 1 2 .5zm-3.7 1.6a2.4 2.4 0 0 0-.6 1.7 2.5 2.5 0 0 0 .6 1.8 2.2 2.2 0 0 0 1.6.6 2.2 2.2 0 0 0 1.7-.6 2.5 2.5 0 0 0 .6-1.8 2.4 2.4 0 0 0-.6-1.7 2.1 2.1 0 0 0-1.6-.7 2.2 2.2 0 0 0-1.7.7zm7.5 5.5v-10.4h1.7V354zm4.5 0v-10.4h1.6V354zm10-6.6a4.1 4.1 0 0 1 .9 2.9v.6h-5.6a2.4 2.4 0 0 0 .8 1.3 2.3 2.3 0 0 0 1.5.5 3 3 0 0 0 1.1-.2 2.8 2.8 0 0 0 1-.7l.9 1a3.8 3.8 0 0 1-1.4.9 4.5 4.5 0 0 1-1.7.3 4.1 4.1 0 0 1-2-.4 3.4 3.4 0 0 1-1.4-1.4 4.3 4.3 0 0 1 0-4 3.4 3.4 0 0 1 1.4-1.2 3.8 3.8 0 0 1 2-.5 3.3 3.3 0 0 1 2.5 1zm-1.1.9a2 2 0 0 0-1.5-.5 2.1 2.1 0 0 0-1.5.5 2.3 2.3 0 0 0-.7 1.4h4.3a2 2 0 0 0-.6-1.4zm8.7-1.5a3.3 3.3 0 0 1 1.3.9l-.8 1a2.8 2.8 0 0 0-2.1-.9 2.2 2.2 0 0 0-1.6.7 2.6 2.6 0 0 0 0 3.4 2 2 0 0 0 1.5.7 2.7 2.7 0 0 0 2.2-.9l1 .9a3.3 3.3 0 0 1-1.4 1 4.5 4.5 0 0 1-1.8.4 4 4 0 0 1-2-.5 3.4 3.4 0 0 1-1.3-1.3 4.4 4.4 0 0 1 0-4 3.4 3.4 0 0 1 1.3-1.3 4 4 0 0 1 2-.5 4.9 4.9 0 0 1 1.7.4zm5.8 7.2a2 2 0 0 1-2.1-2.1v-4h-1v-1h1v-2h1.6v2h2.2v1.2H882v3.6a1.2 1.2 0 0 0 .2.8.8.8 0 0 0 .6.2 2.8 2.8 0 0 0 1.1-.3l.4 1.2a3.7 3.7 0 0 1-1.8.5zm5.4-7.6a12.7 12.7 0 0 0 0 6.5 10.2 10.2 0 0 0 1.2 2.8h-1.4a9 9 0 0 1-1.3-2.8 12.4 12.4 0 0 1 0-6.6 9 9 0 0 1 1.3-2.7h1.4a10.2 10.2 0 0 0-1.2 2.8zm9.7 7.6H896v-1.5a2.7 2.7 0 0 1-2.7 1.5 2.6 2.6 0 0 1-2-.8 2.9 2.9 0 0 1-.7-2v-4.7h1.6v4.2a1.9 1.9 0 0 0 .5 1.3 1.7 1.7 0 0 0 1.3.5 1.9 1.9 0 0 0 1.5-.7 2.4 2.4 0 0 0 .5-1.6v-3.7h1.6zm5.3-7.1a3 3 0 0 1 1.5-.4v1.6a2.5 2.5 0 0 0-1.8.5 2.2 2.2 0 0 0-.8 1.5v4h-1.6v-7.5h1.6v1.5a2.7 2.7 0 0 1 1-1.2zm3.2 7v-10.3h1.6V354zm4.8-10.3h1.4a8.8 8.8 0 0 1 1.3 2.7 12.7 12.7 0 0 1 0 6.7 8.8 8.8 0 0 1-1.3 2.7H911a10.2 10.2 0 0 0 1.2-2.8 12.7 12.7 0 0 0 0-6.5 10.2 10.2 0 0 0-1.2-2.8zM296.5 431a1 1 0 0 0-.3.7v.9h2v1.2h-2v6h-1.6v-6h-1v-1.2h1v-.7a2.6 2.6 0 0 1 .3-1.4 2.2 2.2 0 0 1 1-.9 2.8 2.8 0 0 1 1.2-.3 2.8 2.8 0 0 1 1.7.6l-.6 1.2a1.7 1.7 0 0 0-1-.4 1 1 0 0 0-.7.3zm8 1.7a3.4 3.4 0 0 1 1.3 1.4 4.2 4.2 0 0 1 0 4 3.3 3.3 0 0 1-1.4 1.2 4.6 4.6 0 0 1-4 0 3.3 3.3 0 0 1-1.3-1.3 4.2 4.2 0 0 1 0-4 3.4 3.4 0 0 1 1.3-1.3 4.5 4.5 0 0 1 4 0zm-3.7 1.6a2.7 2.7 0 0 0 0 3.5 2.2 2.2 0 0 0 1.6.7 2.1 2.1 0 0 0 1.6-.7 2.4 2.4 0 0 0 .7-1.7 2.5 2.5 0 0 0-.7-1.8 2.1 2.1 0 0 0-1.6-.7 2.2 2.2 0 0 0-1.6.7zm10-1.6a2.9 2.9 0 0 1 1.6-.4v1.5a2.5 2.5 0 0 0-1.8.5 2.2 2.2 0 0 0-.7 1.6v3.9h-1.7v-7.5h1.7v1.5a2.6 2.6 0 0 1 1-1.1zm15 .3a2.9 2.9 0 0 1 .7 2.1v4.7h-1.6v-4.2a1.8 1.8 0 0 0-.5-1.4 1.7 1.7 0 0 0-1.3-.4 2 2 0 0 0-1.5.6 2.5 2.5 0 0 0-.5 1.7v3.7h-1.7v-4.2a1.8 1.8 0 0 0-.4-1.4 1.7 1.7 0 0 0-1.3-.4 2 2 0 0 0-1.5.6 2.5 2.5 0 0 0-.6 1.7v3.7H314v-7.5h1.6v1.5a2.8 2.8 0 0 1 2.7-1.5 2.8 2.8 0 0 1 1.7.4 2.4 2.4 0 0 1 .9 1.3 2.7 2.7 0 0 1 2.8-1.7 2.6 2.6 0 0 1 2 .7zm7.6 5.9a3.5 3.5 0 0 1-3.9.7 2.2 2.2 0 0 1-1.2-2 2 2 0 0 1 .7-1.7 3.3 3.3 0 0 1 2-.6h2.3v-.2a1.4 1.4 0 0 0-.4-1.1 2 2 0 0 0-1.3-.4 4 4 0 0 0-2.3.7l-.6-1.1a7.1 7.1 0 0 1 1.5-.7 5.4 5.4 0 0 1 1.7-.2 3.2 3.2 0 0 1 2.2.7 2.4 2.4 0 0 1 .9 1.9v4.9h-1.6zm-.7-.7a1.4 1.4 0 0 0 .7-1v-.7h-2a2.2 2.2 0 0 0-1.2.3.8.8 0 0 0-.4.7 1 1 0 0 0 .4.8 1.6 1.6 0 0 0 1 .3 2.6 2.6 0 0 0 1.5-.4zm7 1.6a2 2 0 0 1-2-2.1v-3.9h-1v-1.2h1v-2h1.6v2h2.2v1.2h-2.2v3.6a1.2 1.2 0 0 0 .2.8.8.8 0 0 0 .6.2 2.8 2.8 0 0 0 1.1-.3l.4 1.2a3.7 3.7 0 0 1-1.8.5zm5.5-7.6a12.1 12.1 0 0 0-.4 3.2 12.3 12.3 0 0 0 .4 3.3 10 10 0 0 0 1.2 2.8H345a9.3 9.3 0 0 1-1.3-2.8 12.7 12.7 0 0 1 0-6.6 9.3 9.3 0 0 1 1.3-2.7h1.5a9.8 9.8 0 0 0-1.3 2.8zm3.4-2.8h1.4a8.8 8.8 0 0 1 1.3 2.7 12.7 12.7 0 0 1 0 6.7 8.9 8.9 0 0 1-1.3 2.7h-1.4a10.4 10.4 0 0 0 1.2-2.8 12.2 12.2 0 0 0 .4-3.3 12.1 12.1 0 0 0-.4-3.2 10.1 10.1 0 0 0-1.2-2.8zM39.4 388.9a3 3 0 0 1 .7 2v4.7h-1.6v-4.2a1.8 1.8 0 0 0-.5-1.3 1.8 1.8 0 0 0-1.3-.5 2 2 0 0 0-1.5.7 2.4 2.4 0 0 0-.6 1.7v3.6H33v-10.4h1.6v4.4a2.8 2.8 0 0 1 2.8-1.5 2.7 2.7 0 0 1 2 .8zm5.6 6.8a2.1 2.1 0 0 1-1.5-.6 2.1 2.1 0 0 1-.6-1.6v-3.8h-1v-1.3h1v-2h1.6v2h2.2v1.3h-2.2v3.5a1.2 1.2 0 0 0 .2.8.8.8 0 0 0 .6.2 2.6 2.6 0 0 0 1-.3l.5 1.2a3.6 3.6 0 0 1-1.8.6zm6 0a2 2 0 0 1-2.2-2.2v-3.8h-1v-1.3h1v-2h1.6v2h2.2v1.3h-2.2v3.5a1.3 1.3 0 0 0 .2.8.8.8 0 0 0 .6.2 2.6 2.6 0 0 0 1.2-.3l.4 1.2a3.5 3.5 0 0 1-1.9.6zm9.7-7.1a3.2 3.2 0 0 1 1.2 1.3 4.6 4.6 0 0 1 0 4 3.2 3.2 0 0 1-1.2 1.3 3.6 3.6 0 0 1-1.9.5 3.4 3.4 0 0 1-1.5-.4 2.6 2.6 0 0 1-1.1-1v4h-1.6v-10.1h1.6v1.3a2.7 2.7 0 0 1 1-1 3.3 3.3 0 0 1 1.6-.4 3.7 3.7 0 0 1 1.9.5zm-1 5.4a2 2 0 0 0 .8-.9 2.7 2.7 0 0 0 .2-1.2 2.6 2.6 0 0 0-.2-1.3 2.1 2.1 0 0 0-.8-.8 2.3 2.3 0 0 0-2.4 0 2 2 0 0 0-.8.8 2.7 2.7 0 0 0-.3 1.3 2.5 2.5 0 0 0 .7 1.7 2.1 2.1 0 0 0 1.6.7 2.2 2.2 0 0 0 1.1-.3zm8.3-5.7a4.1 4.1 0 0 1 1.2.6l-.6 1.2a4 4 0 0 0-1-.5 3.7 3.7 0 0 0-1.1-.2 1.5 1.5 0 0 0-.8.2.6.6 0 0 0-.3.5.6.6 0 0 0 .3.6 6.7 6.7 0 0 0 1.2.5 9.8 9.8 0 0 1 1.2.4 2.2 2.2 0 0 1 .9.7 1.9 1.9 0 0 1 .3 1.1 1.9 1.9 0 0 1-.8 1.7 3.5 3.5 0 0 1-2 .6 5.2 5.2 0 0 1-1.6-.3 3.9 3.9 0 0 1-1.4-.8l.5-1.1a3.7 3.7 0 0 0 1.2.7 4.1 4.1 0 0 0 1.3.2 1.7 1.7 0 0 0 .9-.2.6.6 0 0 0 .3-.6.7.7 0 0 0-.2-.5 1.4 1.4 0 0 0-.5-.3 8.8 8.8 0 0 0-.8-.3 9.8 9.8 0 0 1-1.3-.4 2.2 2.2 0 0 1-.8-.7 1.7 1.7 0 0 1-.3-1.1 1.8 1.8 0 0 1 .8-1.6 3.4 3.4 0 0 1 2-.6 4.8 4.8 0 0 1 1.4.2zm4.1 1.7a.9.9 0 0 1 .3.7 1 1 0 0 1-.3.6.9.9 0 0 1-1.2 0 1 1 0 0 1-.3-.7.9.9 0 0 1 .3-.6.9.9 0 0 1 1.2 0zm0 4.2a.9.9 0 0 1 .3.6 1 1 0 0 1-.3.7.9.9 0 0 1-1.2 0 1 1 0 0 1-.3-.7.9.9 0 0 1 .3-.6.9.9 0 0 1 1.2 0zm.8 3l4.5-13h1.3l-4.4 13zm5 0l4.4-13h1.4l-4.5 13zm12-8a4 4 0 0 1 1 2.7v.6h-5.7a2.4 2.4 0 0 0 .8 1.4 2.3 2.3 0 0 0 1.5.5 3 3 0 0 0 1.1-.2 2.8 2.8 0 0 0 1-.7l.8 1a3.8 3.8 0 0 1-1.3.9 4.4 4.4 0 0 1-1.7.3 4 4 0 0 1-2-.5 3.4 3.4 0 0 1-1.4-1.3 4 4 0 0 1-.5-2 4.1 4.1 0 0 1 .5-2 3.5 3.5 0 0 1 1.3-1.4 4 4 0 0 1 2-.4 3.3 3.3 0 0 1 2.6 1zm-1.1.7a2.4 2.4 0 0 0-3 0 2.4 2.4 0 0 0-.7 1.4h4.3a2 2 0 0 0-.6-1.4zm8-1.7h1.7l-2.4 3.6 2.6 3.8h-1.9L95 393l-1.9 2.7h-1.8l2.7-3.8-2.5-3.6h1.9l1.6 2.5zm7.7 6.5a3 3 0 0 1-2.5 1 3 3 0 0 1-1.4-.3 2.1 2.1 0 0 1-1.2-2 2 2 0 0 1 .7-1.6 3.3 3.3 0 0 1 2.1-.6h2.3v-.3a1.4 1.4 0 0 0-.5-1 2 2 0 0 0-1.3-.5 3.9 3.9 0 0 0-2.2.8l-.7-1.1a7.1 7.1 0 0 1 1.6-.7 5.7 5.7 0 0 1 1.6-.3 3.2 3.2 0 0 1 2.2.7 2.4 2.4 0 0 1 .8 2v4.8h-1.6zm-.7-.7a1.4 1.4 0 0 0 .6-1v-.7h-2a2.3 2.3 0 0 0-1.1.3.8.8 0 0 0-.4.7 1 1 0 0 0 .4.8 1.7 1.7 0 0 0 1 .3 2.6 2.6 0 0 0 1.5-.4zm16.4-5.1a2.9 2.9 0 0 1 .7 2v4.7h-1.6v-4.2a1.9 1.9 0 0 0-.4-1.3 1.7 1.7 0 0 0-1.3-.5 2 2 0 0 0-1.5.7 2.5 2.5 0 0 0-.6 1.6v3.7H114v-4.2a1.8 1.8 0 0 0-.5-1.3 1.7 1.7 0 0 0-1.2-.5 2 2 0 0 0-1.6.7 2.5 2.5 0 0 0-.5 1.6v3.7h-1.6v-7.4h1.6v1.4a2.7 2.7 0 0 1 2.7-1.5 2.8 2.8 0 0 1 1.6.5 2.5 2.5 0 0 1 1 1.3 2.7 2.7 0 0 1 2.8-1.8 2.6 2.6 0 0 1 2 .8zm9.3-.3a3.3 3.3 0 0 1 1.3 1.3 4.2 4.2 0 0 1 .4 2 4.1 4.1 0 0 1-.4 2 3.1 3.1 0 0 1-1.3 1.4 3.6 3.6 0 0 1-1.8.4 3.4 3.4 0 0 1-1.6-.3 2.5 2.5 0 0 1-1-1v4h-1.7v-10.2h1.6v1.3a2.6 2.6 0 0 1 1.1-1 3.3 3.3 0 0 1 1.5-.4 3.6 3.6 0 0 1 1.9.5zm-1 5.4a2 2 0 0 0 .8-.9 2.7 2.7 0 0 0 .3-1.2 2.6 2.6 0 0 0-.3-1.3 2.1 2.1 0 0 0-.8-.8 2.4 2.4 0 0 0-2.4 0 2 2 0 0 0-.8.8 2.7 2.7 0 0 0-.2 1.3 2.5 2.5 0 0 0 .6 1.7 2.1 2.1 0 0 0 1.6.7 2.2 2.2 0 0 0 1.2-.3zm4.7 1.6v-10.4h1.6v10.4zm10-6.5a4.1 4.1 0 0 1 1 2.8v.6h-5.7a2.4 2.4 0 0 0 .8 1.4 2.3 2.3 0 0 0 1.5.5 3 3 0 0 0 1.2-.2 2.8 2.8 0 0 0 1-.7l.8 1a3.8 3.8 0 0 1-1.3.9 4.4 4.4 0 0 1-1.7.3 4 4 0 0 1-2-.5 3.3 3.3 0 0 1-1.4-1.3 4 4 0 0 1-.4-2 4 4 0 0 1 .4-2 3.4 3.4 0 0 1 1.4-1.4 4 4 0 0 1 2-.4 3.4 3.4 0 0 1 2.5 1zm-1 .8a2 2 0 0 0-1.5-.5 2.1 2.1 0 0 0-1.5.5 2.4 2.4 0 0 0-.7 1.4h4.2a2 2 0 0 0-.6-1.4zm4.9 4.3a1 1 0 0 1 .2.6 1 1 0 0 1-.3.7 1 1 0 0 1-1.2 0 1 1 0 0 1-.3-.7 1 1 0 0 1 .3-.6 1 1 0 0 1 1.2 0zm7.1-5.8a3.5 3.5 0 0 1 1.3 1l-.8 1a2.8 2.8 0 0 0-2.1-1 2.2 2.2 0 0 0-1.6.8 2.4 2.4 0 0 0-.7 1.7 2.4 2.4 0 0 0 .6 1.7 2 2 0 0 0 1.6.7 2.7 2.7 0 0 0 2.2-1l1 1a3.4 3.4 0 0 1-1.4 1 4.5 4.5 0 0 1-1.8.3 3.9 3.9 0 0 1-2-.5 3.3 3.3 0 0 1-1.3-1.3 4 4 0 0 1-.5-2 4 4 0 0 1 .5-2 3.4 3.4 0 0 1 1.3-1.3 4 4 0 0 1 2-.5 4.8 4.8 0 0 1 1.7.4zm8.3.2a3.5 3.5 0 0 1 1.4 1.3 4.2 4.2 0 0 1 0 4 3.4 3.4 0 0 1-1.4 1.3 4.5 4.5 0 0 1-4 0 3.4 3.4 0 0 1-1.4-1.3 4.2 4.2 0 0 1 0-4 3.5 3.5 0 0 1 1.3-1.3 4.6 4.6 0 0 1 4.1 0zm-3.7 1.6a2.4 2.4 0 0 0-.6 1.7 2.4 2.4 0 0 0 .6 1.8 2.3 2.3 0 0 0 3.3 0 2.5 2.5 0 0 0 .7-1.8 2.4 2.4 0 0 0-.7-1.7 2.3 2.3 0 0 0-3.3 0zm19.2-1.3a3 3 0 0 1 .7 2v4.7h-1.6v-4.2a1.9 1.9 0 0 0-.5-1.3 1.7 1.7 0 0 0-1.3-.5 2 2 0 0 0-1.4.7 2.5 2.5 0 0 0-.6 1.6v3.7h-1.6v-4.2a1.9 1.9 0 0 0-.5-1.3 1.7 1.7 0 0 0-1.3-.5 2 2 0 0 0-1.5.7 2.4 2.4 0 0 0-.5 1.6v3.7h-1.6v-7.4h1.6v1.4a2.7 2.7 0 0 1 2.7-1.5 2.9 2.9 0 0 1 1.6.5 2.5 2.5 0 0 1 1 1.3 2.7 2.7 0 0 1 2.8-1.8 2.6 2.6 0 0 1 2 .8z"/><path fill="#fff" d="M607.5 99.2a.8.8 0 0 1 .3-.4 1 1 0 0 1 .5 0 .6.6 0 0 1 .6.1 1.2 1.2 0 0 1 .1.8v2.6a1 1 0 0 1-.2.7.8.8 0 0 1-.5.1c-.5 0-.8-.3-1-1v-.4a2.1 2.1 0 0 0-1-1.3 3 3 0 0 0-1.7-.5 3.6 3.6 0 0 0-2.9 1.4 6.3 6.3 0 0 0 0 7 3.6 3.6 0 0 0 3 1.4 4.6 4.6 0 0 0 1.1-.2 6 6 0 0 0 1.3-.5 8 8 0 0 0 .7-.5 1.5 1.5 0 0 1 .7-.3.7.7 0 0 1 .5.2.7.7 0 0 1 .3.5.9.9 0 0 1-.3.6 4.3 4.3 0 0 1-.9.7 7 7 0 0 1-1.7.9 6.5 6.5 0 0 1-1.8.2 5.4 5.4 0 0 1-4.2-1.8 6.5 6.5 0 0 1-1.7-4.5 6.6 6.6 0 0 1 1.7-4.6 5.5 5.5 0 0 1 4.2-1.9 6 6 0 0 1 1.4.2 10.2 10.2 0 0 1 1.5.5zm6.8 11.5a1 1 0 0 1-.2.6 1 1 0 0 1-1.3 0 1.4 1.4 0 0 1-.2-.8l-.1-2.4v-.2a1 1 0 0 1 .1-.7.8.8 0 0 1 .7-.2c.4 0 .7.3.9.9a5.5 5.5 0 0 0 .2.6 2.5 2.5 0 0 0 1.1 1.1 4.1 4.1 0 0 0 1.9.4 3.5 3.5 0 0 0 2.1-.6 2 2 0 0 0 .9-1.6 1.8 1.8 0 0 0-.5-1.3 2.6 2.6 0 0 0-1.5-.6l-1.5-.2a6.3 6.3 0 0 1-3.1-1.1 2.9 2.9 0 0 1-1-2.3 3.3 3.3 0 0 1 1.3-2.7 5 5 0 0 1 3.2-1 5.1 5.1 0 0 1 1.2.1 9.2 9.2 0 0 1 1.4.5.6.6 0 0 1 .2-.5.9.9 0 0 1 .4 0 1.1 1.1 0 0 1 .7 0 1 1 0 0 1 .2.7l.1 2.1v.1a.7.7 0 0 1-.2.6.8.8 0 0 1-.6.2c-.3 0-.6-.2-.8-.8a2.8 2.8 0 0 0-.3-.6 2.2 2.2 0 0 0-1-.8 3.5 3.5 0 0 0-1.4-.3 3.1 3.1 0 0 0-2 .7 2 2 0 0 0-.8 1.6 1.5 1.5 0 0 0 .6 1.2 3.8 3.8 0 0 0 1.7.6l1.7.2a4.7 4.7 0 0 1 2.7 1.1 3 3 0 0 1 .9 2.3 3.4 3.4 0 0 1-1.3 2.8 5.3 5.3 0 0 1-3.4 1 6 6 0 0 1-1.5-.2 9.3 9.3 0 0 1-1.5-.5zm13 0a1 1 0 0 1-.2.6.8.8 0 0 1-.6.2.8.8 0 0 1-.6-.2 1.4 1.4 0 0 1-.3-.8l-.1-2.4v-.2a1 1 0 0 1 .2-.7.8.8 0 0 1 .6-.2c.4 0 .7.3.9.9a4.4 4.4 0 0 0 .2.6 2.5 2.5 0 0 0 1.2 1.1 4.1 4.1 0 0 0 1.8.4 3.5 3.5 0 0 0 2.2-.6 2 2 0 0 0 .8-1.6 1.8 1.8 0 0 0-.5-1.3 2.6 2.6 0 0 0-1.5-.6l-1.5-.2a6.2 6.2 0 0 1-3.1-1.1 2.9 2.9 0 0 1-1-2.3 3.3 3.3 0 0 1 1.3-2.7 5 5 0 0 1 3.2-1 5 5 0 0 1 1.2.1 9.2 9.2 0 0 1 1.4.5.6.6 0 0 1 .2-.5.9.9 0 0 1 .5 0 1 1 0 0 1 .6 0l.2.7.2 2.1v.1a.7.7 0 0 1-.8.8c-.4 0-.7-.2-.9-.8a2.8 2.8 0 0 0-.2-.6 2.1 2.1 0 0 0-1-.8 3.5 3.5 0 0 0-1.5-.3 3.1 3.1 0 0 0-2 .7 2 2 0 0 0-.8 1.6 1.5 1.5 0 0 0 .6 1.2 3.8 3.8 0 0 0 1.8.6l1.6.2a4.7 4.7 0 0 1 2.7 1.1 3 3 0 0 1 .9 2.3 3.4 3.4 0 0 1-1.3 2.8 5.3 5.3 0 0 1-3.4 1 6 6 0 0 1-1.5-.2 9.6 9.6 0 0 1-1.5-.5zm-67 43.2h-2.8a2 2 0 0 1-1-.2.7.7 0 0 1-.2-.5.8.8 0 0 1 .1-.6.8.8 0 0 1 .6-.2h6.7a.7.7 0 0 1 .5.2.8.8 0 0 1 .2.6.7.7 0 0 1-.2.5 2 2 0 0 1-1 .2h-1.4v6.6a4.8 4.8 0 0 1-1 3.4 4.3 4.3 0 0 1-3.2 1 7.3 7.3 0 0 1-1.8-.3 7.6 7.6 0 0 1-1.7-.6 1.2 1.2 0 0 1-.5-.4 1.4 1.4 0 0 1-.1-.7v-2.4a1.6 1.6 0 0 1 .1-.9.6.6 0 0 1 .5-.2 1 1 0 0 1 .5.1.6.6 0 0 1 .2.3 1.2 1.2 0 0 1 0 .2v.7a6 6 0 0 0 0 .6 5.4 5.4 0 0 0 .2.6 2.2 2.2 0 0 0 .9 1.2 2.8 2.8 0 0 0 1.6.5 2.5 2.5 0 0 0 2-.8 4.2 4.2 0 0 0 .7-2.6zm9.8 0h-1.5a1.7 1.7 0 0 1-.9-.2.6.6 0 0 1-.2-.5.7.7 0 0 1 .2-.6 2.7 2.7 0 0 1 1.2-.2h3a1.4 1.4 0 0 1 .7.2 1.2 1.2 0 0 1 .4.5l4 10h.2a1.4 1.4 0 0 1 .7.2.7.7 0 0 1 .2.5.7.7 0 0 1-.2.6 1.3 1.3 0 0 1-.7.2h-2.8a2.1 2.1 0 0 1-1-.2.7.7 0 0 1-.2-.6.6.6 0 0 1 .2-.5 1.7 1.7 0 0 1 1-.2h.9l-1-2.4H569l-1 2.4h1a1.8 1.8 0 0 1 1 .2.6.6 0 0 1 .3.5.7.7 0 0 1-.3.6 2 2 0 0 1-1 .2h-2.7a1.7 1.7 0 0 1-.8-.2.7.7 0 0 1-.2-.6.7.7 0 0 1 .2-.5 1.6 1.6 0 0 1 .8-.2h.2zm-.5 5.4h4.2l-2.2-5.4zm10-5.4a1.2 1.2 0 0 1-.8-.2.7.7 0 0 1-.2-.5.7.7 0 0 1 .2-.6.7.7 0 0 1 .5-.2h3.1a1.4 1.4 0 0 1 .8.2.7.7 0 0 1 .2.6.7.7 0 0 1-.2.5 1.1 1.1 0 0 1-.7.2h-1.1l3.4 9 3.4-9H587a1.1 1.1 0 0 1-.7-.2.7.7 0 0 1-.3-.5.7.7 0 0 1 .2-.6 1.4 1.4 0 0 1 .9-.2h3.2a.7.7 0 0 1 .5.2.8.8 0 0 1 .2.6.7.7 0 0 1-.2.5 1.3 1.3 0 0 1-.8.2h-.1l-3.7 9.7a3.8 3.8 0 0 1-.5 1 .7.7 0 0 1-.5.2h-.6c-.4 0-.8-.4-1-1.1zm16.6 0h-1.5a1.7 1.7 0 0 1-1-.2.7.7 0 0 1-.2-.5.7.7 0 0 1 .3-.6 2.8 2.8 0 0 1 1.2-.2h2.9a1.3 1.3 0 0 1 .8.2 1.2 1.2 0 0 1 .3.5l4 10h.2a1.4 1.4 0 0 1 .7.2.7.7 0 0 1 .3.5.7.7 0 0 1-.2.6 1.3 1.3 0 0 1-.8.2h-2.8a2.1 2.1 0 0 1-1-.2.7.7 0 0 1-.2-.6.6.6 0 0 1 .3-.5 1.8 1.8 0 0 1 .9-.2h1l-1-2.4h-5.2l-1 2.4h1a1.8 1.8 0 0 1 1 .2.6.6 0 0 1 .2.5.7.7 0 0 1-.2.6 2 2 0 0 1-1 .2h-2.7a1.7 1.7 0 0 1-.8-.2.7.7 0 0 1-.3-.6.6.6 0 0 1 .3-.5 1.6 1.6 0 0 1 .8-.2h.2zm-.6 5.4h4.2l-2.2-5.4zm12.2 5a1 1 0 0 1-.2.6.8.8 0 0 1-.6.2.8.8 0 0 1-.7-.3 1.3 1.3 0 0 1-.2-.8l-.2-2.4v-.2a1 1 0 0 1 .2-.7.8.8 0 0 1 .7-.2c.4 0 .7.3.9 1a3.4 3.4 0 0 0 .2.6 2.4 2.4 0 0 0 1.1 1 4 4 0 0 0 1.9.5 3.5 3.5 0 0 0 2.1-.7 2 2 0 0 0 .8-1.6 1.8 1.8 0 0 0-.5-1.3 2.6 2.6 0 0 0-1.4-.6l-1.6-.2a6.1 6.1 0 0 1-3-1.1 2.8 2.8 0 0 1-1-2.3 3.3 3.3 0 0 1 1.2-2.7 5 5 0 0 1 3.3-1 5.2 5.2 0 0 1 1.2.1 10 10 0 0 1 1.4.5.5.5 0 0 1 .1-.4.8.8 0 0 1 .5-.1 1.1 1.1 0 0 1 .7.1 1 1 0 0 1 .2.6l.1 2.2a.7.7 0 0 1-.2.6.8.8 0 0 1-.6.2c-.3 0-.6-.2-.8-.7a2.7 2.7 0 0 0-.3-.7 2 2 0 0 0-1-.8 3.5 3.5 0 0 0-1.4-.2 3.2 3.2 0 0 0-2 .6 2 2 0 0 0-.8 1.6 1.5 1.5 0 0 0 .6 1.2 3.6 3.6 0 0 0 1.7.6l1.7.2a4.7 4.7 0 0 1 2.7 1.1 3 3 0 0 1 .9 2.3 3.4 3.4 0 0 1-1.3 2.8 5.2 5.2 0 0 1-3.4 1 6.2 6.2 0 0 1-1.5-.2 10 10 0 0 1-1.5-.5zm19.2-11.5a.8.8 0 0 1 .3-.4 1 1 0 0 1 .5-.1.7.7 0 0 1 .5.1 1.2 1.2 0 0 1 .2.8v2.6a1 1 0 0 1-.2.7.8.8 0 0 1-.5.2c-.5 0-.8-.4-1-1v-.5a2.1 2.1 0 0 0-1-1.2 3 3 0 0 0-1.7-.5 3.6 3.6 0 0 0-3 1.3 6.3 6.3 0 0 0 0 7.1 3.6 3.6 0 0 0 3 1.4 4.3 4.3 0 0 0 1.2-.2 5.4 5.4 0 0 0 1.2-.5 8 8 0 0 0 .8-.5 1.5 1.5 0 0 1 .7-.4.7.7 0 0 1 .5.3.7.7 0 0 1 .2.5.9.9 0 0 1-.2.6 4.3 4.3 0 0 1-.9.7 6.9 6.9 0 0 1-1.7.8 6.1 6.1 0 0 1-1.8.3 5.4 5.4 0 0 1-4.1-1.8 6.5 6.5 0 0 1-1.6-4.6 6.6 6.6 0 0 1 1.6-4.6 5.5 5.5 0 0 1 4.2-1.8 6 6 0 0 1 1.4.2 9.1 9.1 0 0 1 1.4.5zm7.5 10.3h.7a1.6 1.6 0 0 1 .9.2.6.6 0 0 1 .2.6.7.7 0 0 1-.2.5 1.4 1.4 0 0 1-.8.2h-3.4a.7.7 0 0 1-.8-.7.7.7 0 0 1 .2-.6 1 1 0 0 1 .7-.2h1v-9.3h-.6a2 2 0 0 1-1-.1.6.6 0 0 1-.2-.6.7.7 0 0 1 .1-.5.7.7 0 0 1 .6-.2h4.3a13.4 13.4 0 0 1 2.4.2 3.6 3.6 0 0 1 1.3.5 3.4 3.4 0 0 1 1 1.2 3.5 3.5 0 0 1 .4 1.6 3 3 0 0 1-.7 2 3.8 3.8 0 0 1-2 1.2 2.1 2.1 0 0 1 .5.4 3 3 0 0 1 .4.5l2 3.1h.4a1.3 1.3 0 0 1 .8.2.6.6 0 0 1 .2.5.7.7 0 0 1-.2.6.7.7 0 0 1-.5.2H641c-.3 0-.7-.3-1-.8l-2-3a4.7 4.7 0 0 0-1-1.3 1.8 1.8 0 0 0-1-.2h-1.5zm0-9.3v4.2h2.2a3.6 3.6 0 0 0 2.1-.5 1.8 1.8 0 0 0 .7-1.6 1.8 1.8 0 0 0-.7-1.5 3.5 3.5 0 0 0-2-.5zm18.5 9.3a2.1 2.1 0 0 1 1 .2.6.6 0 0 1 .2.6.7.7 0 0 1-.2.5 2.1 2.1 0 0 1-1 .2h-6.7a.8.8 0 0 1-.6-.2.7.7 0 0 1-.2-.5.6.6 0 0 1 .3-.6 2.2 2.2 0 0 1 1-.1h2.3v-9.3h-2.3a2 2 0 0 1-1-.2.6.6 0 0 1-.3-.5.7.7 0 0 1 .2-.6.8.8 0 0 1 .6-.2h7.2a.8.8 0 0 1 .5.2.7.7 0 0 1 .2.6.7.7 0 0 1-.2.5 2 2 0 0 1-1 .2h-2.3v9.2zm10.3 0a1.2 1.2 0 0 1 .7.2.6.6 0 0 1 .2.6.7.7 0 0 1-.2.5 1.4 1.4 0 0 1-.8.2h-5a.7.7 0 0 1-.5-.2.7.7 0 0 1-.2-.5.7.7 0 0 1 .2-.6.8.8 0 0 1 .5-.2h1.3V154h-.7a2.3 2.3 0 0 1-1.1-.2.7.7 0 0 1-.2-.5.7.7 0 0 1 .2-.6.7.7 0 0 1 .5-.2h4.7a6.2 6.2 0 0 1 3.8 1 3.8 3.8 0 0 1 0 5.7 6.3 6.3 0 0 1-3.8 1h-1.8v3.1zM661 154v4.8h2a4 4 0 0 0 2.4-.6 2.4 2.4 0 0 0 0-3.6 4 4 0 0 0-2.4-.6zm11 2.7a1.9 1.9 0 0 1-.2 1 1 1 0 0 1-1.2 0 .8.8 0 0 1-.2-.6v-.5l.1-3.3a.8.8 0 0 1 .2-.6.8.8 0 0 1 .6-.2h9a.8.8 0 0 1 .5.2.8.8 0 0 1 .2.6l.1 3.3v.5a.7.7 0 0 1-.2.6.8.8 0 0 1-.6.2.7.7 0 0 1-.5-.2 1.9 1.9 0 0 1-.2-1l-.1-2.7h-3v9.2h2a1 1 0 0 1 .7.2.7.7 0 0 1 .2.5.7.7 0 0 1-.2.6.7.7 0 0 1-.5.2H673a.7.7 0 0 1-.5-.2.7.7 0 0 1-.2-.6.7.7 0 0 1 .2-.5 1 1 0 0 1 .7-.2h1.9V154h-3zM266.5 368.3a.8.8 0 0 1 .3-.4 1 1 0 0 1 .6-.1.7.7 0 0 1 .5.1 1.2 1.2 0 0 1 .1.8v2.6a1 1 0 0 1-.1.7.8.8 0 0 1-.6.2c-.5 0-.8-.4-.9-1l-.1-.5a2.1 2.1 0 0 0-1-1.2 3 3 0 0 0-1.7-.5 3.6 3.6 0 0 0-2.9 1.3 6.3 6.3 0 0 0 0 7.1 3.6 3.6 0 0 0 3 1.3 4.7 4.7 0 0 0 1.2-.1 5 5 0 0 0 1.2-.5 6 6 0 0 0 .7-.5 1.5 1.5 0 0 1 .7-.4.7.7 0 0 1 .6.2.7.7 0 0 1 .2.6.9.9 0 0 1-.3.6 4.3 4.3 0 0 1-.9.7 6.9 6.9 0 0 1-1.7.8 6.1 6.1 0 0 1-1.8.3 5.4 5.4 0 0 1-4.2-1.8 7.2 7.2 0 0 1 0-9.2 5.5 5.5 0 0 1 4.2-1.8 6 6 0 0 1 1.4.1 9.1 9.1 0 0 1 1.5.6zm13.7 7.7a2 2 0 0 1 .1-1 .7.7 0 0 1 .6-.2.7.7 0 0 1 .6.2.8.8 0 0 1 .1.5v3.9a.8.8 0 0 1-.1.5.7.7 0 0 1-.6.2h-9.6a.7.7 0 0 1-.5-.2.7.7 0 0 1-.2-.5.6.6 0 0 1 .2-.6 2.1 2.1 0 0 1 1-.1h1.3v-9.3h-1.3a2 2 0 0 1-1-.1.7.7 0 0 1-.2-.6.7.7 0 0 1 .2-.6.8.8 0 0 1 .6-.1h5.5a.8.8 0 0 1 .6.1.7.7 0 0 1 .2.6.7.7 0 0 1-.3.6 2 2 0 0 1-1 .1h-1.7v9.3h5.5zm12.3 2.6a2.1 2.1 0 0 1 1 .2.6.6 0 0 1 .2.6.6.6 0 0 1-.2.5 2 2 0 0 1-1 .2h-6.8a.8.8 0 0 1-.5-.2.7.7 0 0 1-.2-.5.6.6 0 0 1 .2-.6 2.2 2.2 0 0 1 1-.2h2.3v-9.2h-2.3a2 2 0 0 1-1-.2.7.7 0 0 1-.2-.5.7.7 0 0 1 .2-.6.8.8 0 0 1 .6-.2h7.1a.8.8 0 0 1 .6.2.7.7 0 0 1 .1.6.7.7 0 0 1-.2.5 2 2 0 0 1-1 .2h-2.3v9.2zM234 536.8a1 1 0 0 1-.2.7.9.9 0 0 1-.6.2.8.8 0 0 1-.7-.3 1.4 1.4 0 0 1-.2-.8l-.1-2.4v-.2a1 1 0 0 1 .2-.7.8.8 0 0 1 .6-.2c.4 0 .7.3.9.9a4.2 4.2 0 0 0 .2.7 2.5 2.5 0 0 0 1.1 1 4 4 0 0 0 1.9.5 3.5 3.5 0 0 0 2.1-.7 2 2 0 0 0 .9-1.6 1.7 1.7 0 0 0-.6-1.3 2.6 2.6 0 0 0-1.4-.6l-1.5-.2a6.1 6.1 0 0 1-3.1-1.1 2.8 2.8 0 0 1-1-2.3 3.3 3.3 0 0 1 1.3-2.7 5 5 0 0 1 3.2-1 5.2 5.2 0 0 1 1.2.1 11 11 0 0 1 1.4.5.5.5 0 0 1 .2-.4.8.8 0 0 1 .5-.1 1 1 0 0 1 .6.1l.2.6.1 2.2a.8.8 0 0 1-.2.6.8.8 0 0 1-.5.2c-.4 0-.7-.2-.9-.7a2.5 2.5 0 0 0-.3-.7 2.2 2.2 0 0 0-1-.8 3.7 3.7 0 0 0-1.4-.2 3.1 3.1 0 0 0-2 .6 2 2 0 0 0-.8 1.6 1.5 1.5 0 0 0 .6 1.2 3.7 3.7 0 0 0 1.8.7l1.6.2a4.7 4.7 0 0 1 2.7 1 3 3 0 0 1 .9 2.4 3.4 3.4 0 0 1-1.3 2.7 5.2 5.2 0 0 1-3.4 1 6 6 0 0 1-1.5-.1 8.8 8.8 0 0 1-1.5-.6zm12.2-7.6a2 2 0 0 1-.2 1 .8.8 0 0 1-.6.2.7.7 0 0 1-.6-.2.8.8 0 0 1-.1-.6v-3.8a.8.8 0 0 1 .3-.6.9.9 0 0 1 .5-.2h9a.8.8 0 0 1 .5.2.8.8 0 0 1 .2.6l.1 3.3v.6a.7.7 0 0 1-.2.5.8.8 0 0 1-.6.2.7.7 0 0 1-.5-.2 2 2 0 0 1-.2-1v-2.7h-3v9.2h2a.9.9 0 0 1 .6.2.7.7 0 0 1 .2.6.7.7 0 0 1-.2.5.7.7 0 0 1-.5.2h-5.8a.7.7 0 0 1-.5-.2.8.8 0 0 1-.2-.5.7.7 0 0 1 .2-.6 1 1 0 0 1 .7-.2h1.9v-9.2h-3zm19 6.5a2 2 0 0 1 1 .2.6.6 0 0 1 .3.6.6.6 0 0 1-.2.5 1.6 1.6 0 0 1-.9.2h-4.9a1.6 1.6 0 0 1-.9-.2.7.7 0 0 1-.2-.5.6.6 0 0 1 .3-.6 2.2 2.2 0 0 1 1-.1h1.5v-3.5l-3.4-5.8h-.2a1.5 1.5 0 0 1-.9-.2.7.7 0 0 1-.2-.5.8.8 0 0 1 .2-.6.8.8 0 0 1 .6-.2h2.8a1.4 1.4 0 0 1 .8.2.7.7 0 0 1 .2.6.6.6 0 0 1-.2.5 1.8 1.8 0 0 1-1 .2h-.3l2.5 4.5 2.6-4.5h-.5a1.3 1.3 0 0 1-.7-.2.7.7 0 0 1-.2-.5.7.7 0 0 1 .2-.6 1.7 1.7 0 0 1 .9-.2h1.9a2 2 0 0 1 1 .2.7.7 0 0 1 .2.6.7.7 0 0 1-.2.5 1.4 1.4 0 0 1-.9.2h-.1l-3.5 6v3.3zM280 533a2 2 0 0 1 .1-1 .7.7 0 0 1 .6-.2.8.8 0 0 1 .6.2.8.8 0 0 1 .2.6v3.8a.8.8 0 0 1-.2.5.7.7 0 0 1-.6.2h-9.5a.8.8 0 0 1-.6-.2.8.8 0 0 1-.2-.5.6.6 0 0 1 .2-.6 2.1 2.1 0 0 1 1-.1h1.4v-9.3h-1.3a2 2 0 0 1-1-.1.7.7 0 0 1-.2-.6.7.7 0 0 1 .2-.6.8.8 0 0 1 .6-.1h5.5a.8.8 0 0 1 .6.2.7.7 0 0 1 .2.5.6.6 0 0 1-.3.6 2 2 0 0 1-1 .1h-1.7v9.3h5.4zm12.3 2.6a2.1 2.1 0 0 1 1 .2.6.6 0 0 1 .2.6.6.6 0 0 1-.2.5 2 2 0 0 1-1 .2h-6.7a.8.8 0 0 1-.6-.2.7.7 0 0 1-.2-.5.6.6 0 0 1 .3-.6 2.2 2.2 0 0 1 1-.1h2.3v-9.3H286a2 2 0 0 1-1-.1.6.6 0 0 1-.3-.6.7.7 0 0 1 .2-.6.8.8 0 0 1 .6-.2h7.2a.8.8 0 0 1 .5.2.7.7 0 0 1 .2.6.7.7 0 0 1-.2.6 2 2 0 0 1-1 .1H290v9.3zm7 1.1a1 1 0 0 1-.3.7.8.8 0 0 1-.6.2.8.8 0 0 1-.6-.3 1.4 1.4 0 0 1-.3-.8l-.1-2.4v-.2a1 1 0 0 1 .2-.7.8.8 0 0 1 .6-.2c.4 0 .7.3.9.9a4.2 4.2 0 0 0 .2.7 2.5 2.5 0 0 0 1.1 1 4.1 4.1 0 0 0 1.9.5 3.4 3.4 0 0 0 2.1-.7 2 2 0 0 0 .9-1.6 1.7 1.7 0 0 0-.5-1.3 2.6 2.6 0 0 0-1.5-.6l-1.5-.2a6.2 6.2 0 0 1-3.1-1.1 2.9 2.9 0 0 1-1-2.3 3.3 3.3 0 0 1 1.3-2.7 5 5 0 0 1 3.2-1 5 5 0 0 1 1.2.1 10.6 10.6 0 0 1 1.4.5.5.5 0 0 1 .2-.4.8.8 0 0 1 .5-.1 1 1 0 0 1 .6.1l.2.6.1 2.2a.7.7 0 0 1-.2.6.8.8 0 0 1-.5.2c-.4 0-.7-.2-.9-.7a3 3 0 0 0-.3-.7 2.2 2.2 0 0 0-1-.8 3.7 3.7 0 0 0-1.4-.2 3.1 3.1 0 0 0-2 .6 2 2 0 0 0-.8 1.6 1.5 1.5 0 0 0 .6 1.2 3.7 3.7 0 0 0 1.8.6l1.6.2a4.7 4.7 0 0 1 2.7 1.1 3 3 0 0 1 .9 2.4 3.4 3.4 0 0 1-1.3 2.7 5.3 5.3 0 0 1-3.4 1 6 6 0 0 1-1.5-.2 8.8 8.8 0 0 1-1.5-.5zm13.5-1h.7a1.6 1.6 0 0 1 .8.1.6.6 0 0 1 .3.6.6.6 0 0 1-.3.5 1.8 1.8 0 0 1-.9.2h-2.7a.8.8 0 0 1-.6-.2.8.8 0 0 1-.2-.5.7.7 0 0 1 .3-.6 1.6 1.6 0 0 1 .8-.1h.2v-9.3h-.2a1.6 1.6 0 0 1-.8-.2.7.7 0 0 1-.3-.5.8.8 0 0 1 .2-.6.8.8 0 0 1 .6-.2h2.6a2.2 2.2 0 0 1 1 .2.7.7 0 0 1 .2.6.6.6 0 0 1-.3.5 2.2 2.2 0 0 1-1 .2h-.4v3.6h4.9v-3.6h-.7a1.5 1.5 0 0 1-.8-.2.6.6 0 0 1-.3-.5.7.7 0 0 1 .2-.6 2.5 2.5 0 0 1 1.2-.2h2.5a.8.8 0 0 1 .5.2.8.8 0 0 1 .2.6.7.7 0 0 1-.2.6 1.3 1.3 0 0 1-.8.1h-.2v9.3h.2a1.5 1.5 0 0 1 .8.1.6.6 0 0 1 .2.6.7.7 0 0 1-.2.6 1.9 1.9 0 0 1-1 .1h-2.1a2.1 2.1 0 0 1-1-.2.6.6 0 0 1-.3-.5.6.6 0 0 1 .3-.6 2.3 2.3 0 0 1 1-.1h.5v-4.3h-5zm267.4 1h.7a1.6 1.6 0 0 1 .9.3.6.6 0 0 1 .2.5.7.7 0 0 1-.2.6 1.8 1.8 0 0 1-1 .1h-2.6a.8.8 0 0 1-.6-.1.8.8 0 0 1-.2-.6.6.6 0 0 1 .2-.6 1.6 1.6 0 0 1 .9-.1h.1v-9.2h-.1a1.6 1.6 0 0 1-.9-.2.7.7 0 0 1-.2-.6.7.7 0 0 1 .2-.5.8.8 0 0 1 .6-.2h2.6a2.1 2.1 0 0 1 1 .1.7.7 0 0 1 .2.6.6.6 0 0 1-.3.6 2.3 2.3 0 0 1-1 .2h-.5v3.5h5v-3.5h-.7a1.5 1.5 0 0 1-.9-.2.6.6 0 0 1-.2-.6.7.7 0 0 1 .2-.6 2.4 2.4 0 0 1 1.1-.1h2.5a.8.8 0 0 1 .6.2.8.8 0 0 1 .2.5.7.7 0 0 1-.2.6 1.3 1.3 0 0 1-.8.2h-.3v9.2h.2a1.6 1.6 0 0 1 .9.2.6.6 0 0 1 .2.5.7.7 0 0 1-.2.6 2 2 0 0 1-1 .1h-2.2a2.1 2.1 0 0 1-1-.1.7.7 0 0 1-.2-.6.6.6 0 0 1 .2-.5 2.2 2.2 0 0 1 1-.2h.5v-4.3h-4.9zm11.7-6.5a1.9 1.9 0 0 1-.2 1 .7.7 0 0 1-.6.2.7.7 0 0 1-.6-.2.8.8 0 0 1-.1-.5 4.8 4.8 0 0 0 0-.5v-3.4a.8.8 0 0 1 .3-.5.8.8 0 0 1 .5-.2h9a.8.8 0 0 1 .5.2.7.7 0 0 1 .2.5l.1 3.4v.3a.6.6 0 0 0 0 .2.7.7 0 0 1-.2.6.8.8 0 0 1-.5.1.7.7 0 0 1-.6-.2 2 2 0 0 1-.2-1v-2.6h-3v9.2h2a1 1 0 0 1 .6.2.7.7 0 0 1 .1.5.8.8 0 0 1-.1.5.7.7 0 0 1-.6.2h-5.7a.7.7 0 0 1-.6-.2.8.8 0 0 1-.1-.5.6.6 0 0 1 .2-.5 1 1 0 0 1 .6-.2h2v-9.2H592zm13 0a1.9 1.9 0 0 1-.2 1 .7.7 0 0 1-.6.2.7.7 0 0 1-.5-.2.8.8 0 0 1-.2-.5 4.8 4.8 0 0 0 0-.5v-3.4a.8.8 0 0 1 .3-.5.8.8 0 0 1 .6-.2h8.9a.8.8 0 0 1 .6.2.8.8 0 0 1 .2.5v3.9a.7.7 0 0 1-.1.6.8.8 0 0 1-.6.1.7.7 0 0 1-.6-.2 1.9 1.9 0 0 1-.2-1v-2.6h-3v9.2h2a1 1 0 0 1 .6.2.7.7 0 0 1 .2.5.8.8 0 0 1-.2.5.7.7 0 0 1-.5.2H606a.7.7 0 0 1-.6-.2.8.8 0 0 1-.2-.5.6.6 0 0 1 .2-.5 1 1 0 0 1 .7-.2h2v-9.2h-3zm17.3 6.6a1.3 1.3 0 0 1 .7.2.7.7 0 0 1 .2.5.7.7 0 0 1-.2.6 1.5 1.5 0 0 1-.8.1h-5a.7.7 0 0 1-.5-.2.8.8 0 0 1-.2-.5.7.7 0 0 1 .2-.5.8.8 0 0 1 .5-.2h1.3v-9.2h-.7a2.5 2.5 0 0 1-1.1-.2.7.7 0 0 1-.2-.6.8.8 0 0 1 .2-.5.7.7 0 0 1 .5-.2h4.7a6.3 6.3 0 0 1 3.8 1 3.3 3.3 0 0 1 1.3 2.8 3.3 3.3 0 0 1-1.3 2.8 6.3 6.3 0 0 1-3.8 1H620v3.2zm-2.2-9.2v4.7h2a4 4 0 0 0 2.4-.6 2.1 2.1 0 0 0 .8-1.8 2 2 0 0 0-.8-1.8 4 4 0 0 0-2.4-.5zm10.5 6.9a.4.4 0 0 1-.3-.1.5.5 0 0 1-.1-.4v-1a.4.4 0 0 1 0-.4.5.5 0 0 1 .4 0h8.5a.6.6 0 0 1 .4 0 .4.4 0 0 1 .1.3v1.1a.5.5 0 0 1-.2.3.5.5 0 0 1-.3.2zm20.5-8a.7.7 0 0 1 .3-.5 1 1 0 0 1 .5 0 .7.7 0 0 1 .5.1 1.2 1.2 0 0 1 .2.8v2.6a1 1 0 0 1-.2.6.8.8 0 0 1-.5.2c-.5 0-.8-.3-1-1v-.4a2.1 2.1 0 0 0-1-1.3 3.1 3.1 0 0 0-1.7-.5 3.6 3.6 0 0 0-3 1.3 5.4 5.4 0 0 0-1 3.6 5.4 5.4 0 0 0 1.1 3.6 3.7 3.7 0 0 0 3 1.3 4.7 4.7 0 0 0 1.1-.2 5 5 0 0 0 1.3-.5 8 8 0 0 0 .7-.5 1.5 1.5 0 0 1 .7-.3.7.7 0 0 1 .5.2.7.7 0 0 1 .3.5 1 1 0 0 1-.3.6 4 4 0 0 1-.9.7 6.8 6.8 0 0 1-1.7.8 6.1 6.1 0 0 1-1.8.3 5.4 5.4 0 0 1-4.2-1.8 6.5 6.5 0 0 1-1.7-4.6 6.5 6.5 0 0 1 1.7-4.6 5.5 5.5 0 0 1 4.2-1.8 6.7 6.7 0 0 1 1.4.2 9.2 9.2 0 0 1 1.5.5zm8.2 1h-1.5a1.7 1.7 0 0 1-.8-.1.7.7 0 0 1-.3-.6.7.7 0 0 1 .2-.6 2.5 2.5 0 0 1 1.2-.1h3a1.4 1.4 0 0 1 .8.1 1.3 1.3 0 0 1 .3.6l4 10h.2a1.4 1.4 0 0 1 .8.1.7.7 0 0 1 .2.6.7.7 0 0 1-.2.6 1.2 1.2 0 0 1-.8.1h-2.8a2 2 0 0 1-1-.1.7.7 0 0 1-.2-.6.6.6 0 0 1 .3-.6 1.9 1.9 0 0 1 .9-.1h1l-1-2.5h-5.3l-.9 2.5h1a1.9 1.9 0 0 1 1 .1.6.6 0 0 1 .2.6.7.7 0 0 1-.2.6 1.9 1.9 0 0 1-1 .1h-2.7a1.6 1.6 0 0 1-1-.1.7.7 0 0 1-.1-.6.6.6 0 0 1 .2-.6 1.6 1.6 0 0 1 .8-.1h.2zm-.5 5.5h4.2l-2.2-5.4zm18.4-6.6a.7.7 0 0 1 .3-.4 1 1 0 0 1 .5 0 .7.7 0 0 1 .5.1 1.3 1.3 0 0 1 .2.8v2.6a1 1 0 0 1-.2.6.8.8 0 0 1-.6.2c-.4 0-.7-.3-.8-1l-.2-.4a2.1 2.1 0 0 0-.9-1.3 3.1 3.1 0 0 0-1.7-.5 3.6 3.6 0 0 0-3 1.3 5.4 5.4 0 0 0-1 3.6 5.4 5.4 0 0 0 1 3.6 3.6 3.6 0 0 0 3 1.3 4.7 4.7 0 0 0 1.2-.2 4.9 4.9 0 0 0 1.2-.5 6.9 6.9 0 0 0 .8-.5 1.5 1.5 0 0 1 .7-.3.8.8 0 0 1 .5.2.7.7 0 0 1 .2.5 1 1 0 0 1-.2.6 3.9 3.9 0 0 1-.9.7 6.7 6.7 0 0 1-1.7.8 6.2 6.2 0 0 1-1.9.3 5.4 5.4 0 0 1-4.1-1.8 7.2 7.2 0 0 1 0-9.2 5.4 5.4 0 0 1 4.2-1.8 6.6 6.6 0 0 1 1.3.2 9.2 9.2 0 0 1 1.6.5zm7.3 10.4h.7a1.6 1.6 0 0 1 .8.2.6.6 0 0 1 .3.5.7.7 0 0 1-.2.6 1.7 1.7 0 0 1-1 .1h-2.7a.8.8 0 0 1-.5-.1.8.8 0 0 1-.2-.6.6.6 0 0 1 .2-.6 1.6 1.6 0 0 1 .8-.1h.2v-9.2h-.2a1.5 1.5 0 0 1-.8-.2.6.6 0 0 1-.2-.6.8.8 0 0 1 .2-.5.8.8 0 0 1 .5-.2h2.6a2 2 0 0 1 1 .1.7.7 0 0 1 .3.6.6.6 0 0 1-.3.6 2.2 2.2 0 0 1-1 .2h-.5v3.5h5v-3.5h-.8a1.5 1.5 0 0 1-.8-.2.7.7 0 0 1-.3-.6.7.7 0 0 1 .3-.6 2.4 2.4 0 0 1 1.1-.1h2.5a.8.8 0 0 1 .6.2.8.8 0 0 1 .2.5.7.7 0 0 1-.3.6 1.3 1.3 0 0 1-.7.2h-.3v9.2h.2a1.6 1.6 0 0 1 .8.2.6.6 0 0 1 .3.5.7.7 0 0 1-.3.6 1.9 1.9 0 0 1-1 .1h-2a2.1 2.1 0 0 1-1.1-.1.7.7 0 0 1-.3-.6.6.6 0 0 1 .3-.5 2.3 2.3 0 0 1 1-.2h.5v-4.3h-4.9zm11.1 1.4h-.5a.8.8 0 0 1-.6-.1.8.8 0 0 1-.1-.6.6.6 0 0 1 .2-.6 2.1 2.1 0 0 1 1-.1h.6v-9.2h-.6a2 2 0 0 1-1-.2.7.7 0 0 1-.3-.6.7.7 0 0 1 .2-.5.8.8 0 0 1 .6-.2h9a.7.7 0 0 1 .5.2 1 1 0 0 1 .2.6v2.4a1.3 1.3 0 0 1-.2.8.7.7 0 0 1-.5.2.7.7 0 0 1-.6-.3 2 2 0 0 1-.1-1v-1.4h-5.5v3.4h2.7v-.5a1.4 1.4 0 0 1 .1-.8.6.6 0 0 1 .6-.2.6.6 0 0 1 .5.2 2.4 2.4 0 0 1 0 1v2a2 2 0 0 1 0 1 .6.6 0 0 1-.6.1.5.5 0 0 1-.5-.2 2.2 2.2 0 0 1-.1-1v-.3h-2.7v4.5h5.5v-1.7a2 2 0 0 1 .1-1 .8.8 0 0 1 1.1 0 1.5 1.5 0 0 1 .2.8v2.6a.8.8 0 0 1-.2.6.7.7 0 0 1-.5.2zm295.4-225.8a.7.7 0 0 1 .2-.4 1 1 0 0 1 .6 0 .7.7 0 0 1 .5.1 1.3 1.3 0 0 1 .1.8v2.6a1 1 0 0 1-.1.6.8.8 0 0 1-.6.2c-.4 0-.7-.3-.9-1v-.4a2.1 2.1 0 0 0-1-1.3 3.1 3.1 0 0 0-1.8-.5 3.6 3.6 0 0 0-2.9 1.3 5.4 5.4 0 0 0-1 3.6 5.4 5.4 0 0 0 1.1 3.6 3.6 3.6 0 0 0 3 1.3 4.7 4.7 0 0 0 1.2-.2 5 5 0 0 0 1.2-.5 7.3 7.3 0 0 0 .7-.5 1.6 1.6 0 0 1 .7-.3.8.8 0 0 1 .6.2.7.7 0 0 1 .2.5 1 1 0 0 1-.3.6 3.9 3.9 0 0 1-.9.7 6.7 6.7 0 0 1-1.7.8 6.1 6.1 0 0 1-1.8.3 5.5 5.5 0 0 1-4.2-1.8 7.2 7.2 0 0 1 0-9.2 5.5 5.5 0 0 1 4.2-1.8 6 6 0 0 1 1.4.2 9.5 9.5 0 0 1 1.5.5zm7.3 10.4h.7a1.6 1.6 0 0 1 .8.2.6.6 0 0 1 .3.5.7.7 0 0 1-.3.6 1.8 1.8 0 0 1-1 .1H996a.8.8 0 0 1-.5-.1.8.8 0 0 1-.2-.6.6.6 0 0 1 .2-.5 1.6 1.6 0 0 1 .8-.2h.2v-9.2h-.1a1.5 1.5 0 0 1-.9-.2.6.6 0 0 1-.2-.6.7.7 0 0 1 .2-.5.8.8 0 0 1 .6-.2h2.5a2 2 0 0 1 1 .1.7.7 0 0 1 .3.6.6.6 0 0 1-.3.6 2.2 2.2 0 0 1-1 .2h-.5v3.5h5v-3.5h-.8a1.4 1.4 0 0 1-.8-.2.6.6 0 0 1-.2-.6.6.6 0 0 1 .2-.6 2.4 2.4 0 0 1 1.1-.1h2.5a.8.8 0 0 1 .6.2.8.8 0 0 1 .2.5.7.7 0 0 1-.3.6 1.3 1.3 0 0 1-.7.2h-.3v9.2h.2a1.6 1.6 0 0 1 .8.2.6.6 0 0 1 .3.5.7.7 0 0 1-.3.6 1.9 1.9 0 0 1-1 .1h-2a2.1 2.1 0 0 1-1.1-.1.7.7 0 0 1-.3-.6.6.6 0 0 1 .3-.5 2.4 2.4 0 0 1 1-.2h.5v-4.3h-4.9zm13.2 0h.7a1.6 1.6 0 0 1 .8.2.6.6 0 0 1 .3.5.7.7 0 0 1-.3.6 1.4 1.4 0 0 1-.8.1h-3.4a.7.7 0 0 1-.6-.1.8.8 0 0 1-.1-.6.7.7 0 0 1 .2-.5 1.1 1.1 0 0 1 .6-.2h1v-9.3h-.6a2.2 2.2 0 0 1-1-.2.6.6 0 0 1-.2-.5.7.7 0 0 1 .1-.5.8.8 0 0 1 .6-.2h4.3a13.5 13.5 0 0 1 2.4.1 3.5 3.5 0 0 1 1.3.5 3.2 3.2 0 0 1 1 1.3 3.5 3.5 0 0 1 .4 1.6 3 3 0 0 1-.7 2 3.8 3.8 0 0 1-2 1.2 2.5 2.5 0 0 1 .5.3 3.5 3.5 0 0 1 .4.5l2 3.2h.4a1.4 1.4 0 0 1 .8.1.6.6 0 0 1 .2.6.8.8 0 0 1-.2.5.7.7 0 0 1-.5.2h-1.2c-.3 0-.6-.2-1-.7v-.1l-2-3a4.5 4.5 0 0 0-1-1.2 1.8 1.8 0 0 0-1-.3h-1.4zm0-9.3v4.1h2a3.7 3.7 0 0 0 2.2-.5 1.8 1.8 0 0 0 .8-1.5 1.8 1.8 0 0 0-.7-1.6 3.5 3.5 0 0 0-2.2-.5zm20.8 4.6a6.8 6.8 0 0 1-1.5 4.7 5.3 5.3 0 0 1-8 0 7.6 7.6 0 0 1 0-9.3 5.3 5.3 0 0 1 8 0 6.8 6.8 0 0 1 1.5 4.6zm-5.5 5a3.2 3.2 0 0 0 2.7-1.3 7.2 7.2 0 0 0 0-7.3 3.5 3.5 0 0 0-5.4 0 7.2 7.2 0 0 0 0 7.3 3.2 3.2 0 0 0 2.7 1.3zm13-3.9l2.2-6.4a1 1 0 0 1 .4-.6 1.3 1.3 0 0 1 .7-.1h1.7a.6.6 0 0 1 .5.2.7.7 0 0 1 .2.5.6.6 0 0 1-.2.5 1.5 1.5 0 0 1-.8.2h-.2l.3 9.3h.3a1.8 1.8 0 0 1 .9.1.6.6 0 0 1 .2.6.8.8 0 0 1-.2.5.7.7 0 0 1-.5.2h-3a1.4 1.4 0 0 1-.7-.1.7.7 0 0 1-.2-.6.6.6 0 0 1 .2-.6 2.2 2.2 0 0 1 1-.1h.5l-.3-8.8-2 5.9a1.3 1.3 0 0 1-.3.6 1.2 1.2 0 0 1-.7.1 1.1 1.1 0 0 1-.7-.1 1.1 1.1 0 0 1-.3-.6l-2.1-6-.2 8.9h.7a1.6 1.6 0 0 1 .9.2.6.6 0 0 1 .2.5.7.7 0 0 1-.2.6 1.4 1.4 0 0 1-.8.1h-3a.7.7 0 0 1-.4-.1.8.8 0 0 1-.2-.6.6.6 0 0 1 .2-.6 1.8 1.8 0 0 1 .9-.1h.2l.3-9.3h-.2a1.6 1.6 0 0 1-.8-.2.6.6 0 0 1-.2-.5.7.7 0 0 1 .2-.5.7.7 0 0 1 .5-.2h1.7a1.3 1.3 0 0 1 .7.1 1 1 0 0 1 .4.6zm8.6 5h-.5a.8.8 0 0 1-.5-.1.8.8 0 0 1-.2-.6.6.6 0 0 1 .2-.6 2.1 2.1 0 0 1 1-.1h.7v-9.2h-.7a2 2 0 0 1-1-.2.7.7 0 0 1-.2-.6.8.8 0 0 1 .2-.5.8.8 0 0 1 .6-.2h8.9a.6.6 0 0 1 .5.2 1 1 0 0 1 .2.6v2.4a1.3 1.3 0 0 1-.2.8.7.7 0 0 1-.5.2.6.6 0 0 1-.6-.3 2 2 0 0 1-.2-1v-1.4h-5.4v3.4h2.7v-.5a1.4 1.4 0 0 1 .1-.8.6.6 0 0 1 .5-.2.5.5 0 0 1 .5.2 2.3 2.3 0 0 1 .2 1v2a2.3 2.3 0 0 1-.2 1 .6.6 0 0 1-.5.1.5.5 0 0 1-.5-.2 2.1 2.1 0 0 1-.1-1v-.4h-2.7v4.6h5.5V321a2 2 0 0 1 .1-1 .7.7 0 0 1 .6-.2.6.6 0 0 1 .5.2 1.4 1.4 0 0 1 .2.8v2.6a.8.8 0 0 1-.2.5.7.7 0 0 1-.5.2zm-52 60h-.5a.8.8 0 0 1-.6-.1.8.8 0 0 1-.2-.6.6.6 0 0 1 .2-.6 2.2 2.2 0 0 1 1-.1h.7v-9.2h-.7a2 2 0 0 1-1-.2.7.7 0 0 1-.2-.6.7.7 0 0 1 .2-.5.8.8 0 0 1 .6-.2h8.9a.7.7 0 0 1 .5.2 1 1 0 0 1 .2.6v2.4a1.2 1.2 0 0 1-.2.8.7.7 0 0 1-.5.2.7.7 0 0 1-.6-.3 2 2 0 0 1-.1-1v-1.4h-5.5v3.4h2.7v-.5a1.4 1.4 0 0 1 .1-.8.6.6 0 0 1 .6-.2.6.6 0 0 1 .5.2 2.3 2.3 0 0 1 .1 1v2a2 2 0 0 1-.2 1 .6.6 0 0 1-.5.1.5.5 0 0 1-.5-.2 2.3 2.3 0 0 1-.1-1v-.4h-2.7v4.6h5.5V381a2 2 0 0 1 .2-1 .7.7 0 0 1 .5-.2.7.7 0 0 1 .6.2 1.5 1.5 0 0 1 .2.8v2.6a.8.8 0 0 1-.2.5.7.7 0 0 1-.6.2zm14.9 0h-2a.8.8 0 0 1-.7-.1.8.8 0 0 1-.1-.6.6.6 0 0 1 .2-.6 1.6 1.6 0 0 1 .8-.1h.2v-9.2h-.2a1.6 1.6 0 0 1-.8-.2.7.7 0 0 1-.2-.6.7.7 0 0 1 .1-.5.8.8 0 0 1 .6-.2h4.4a5.3 5.3 0 0 1 4 1.6 6.3 6.3 0 0 1 1.6 4.5 7.2 7.2 0 0 1-.5 2.5 5.8 5.8 0 0 1-1.3 2 4.4 4.4 0 0 1-1.8 1.2 9.3 9.3 0 0 1-2.8.4h-.8zm0-1.4h1.3a5.2 5.2 0 0 0 3.7-1.1 4.8 4.8 0 0 0 1.2-3.6 4.7 4.7 0 0 0-1.2-3.5 5.4 5.4 0 0 0-3.8-1.2h-.7a3.3 3.3 0 0 0-.5 0zm18.7-.3V380h-2.5a.6.6 0 0 1-.5-.2 1 1 0 0 1 0-1 .7.7 0 0 1 .5-.1h4.5a.5.5 0 0 1 .4.2.9.9 0 0 1 .1.5.7.7 0 0 1-.2.5 1 1 0 0 1-.6.1h-.1v3.1a.9.9 0 0 1 0 .4.6.6 0 0 1-.3.2 5.7 5.7 0 0 1-1.7.6 10.1 10.1 0 0 1-2.3.2 5.9 5.9 0 0 1-4.4-1.7 6.3 6.3 0 0 1-1.7-4.6 6.7 6.7 0 0 1 1.6-4.6 5.4 5.4 0 0 1 4.3-1.9 6.1 6.1 0 0 1 1.4.2 9.2 9.2 0 0 1 1.4.5.8.8 0 0 1 .3-.4.8.8 0 0 1 .5-.1.7.7 0 0 1 .6.3 3.3 3.3 0 0 1 .2 1.3v1.4a1 1 0 0 1-.2.7.8.8 0 0 1-.6.2c-.4 0-.6-.3-.8-.7l-.1-.3a2.9 2.9 0 0 0-1.1-1.2 3 3 0 0 0-1.6-.5 3.6 3.6 0 0 0-3 1.3 5.5 5.5 0 0 0-1 3.6 5.4 5.4 0 0 0 1.2 3.7 4 4 0 0 0 3.2 1.4 5.2 5.2 0 0 0 1.2-.2 8 8 0 0 0 1.3-.4zm5.4 1.7h-.5a.8.8 0 0 1-.5-.1.8.8 0 0 1-.2-.6.6.6 0 0 1 .2-.6 2.1 2.1 0 0 1 1-.1h.7v-9.2h-.7a2 2 0 0 1-1-.2.7.7 0 0 1-.2-.6.8.8 0 0 1 .2-.5.8.8 0 0 1 .5-.2h9a.6.6 0 0 1 .5.2 1 1 0 0 1 .2.6v2.4a1.3 1.3 0 0 1-.2.8.7.7 0 0 1-.5.2.7.7 0 0 1-.6-.3 2 2 0 0 1-.2-1v-1.4h-5.4v3.4h2.7v-.5a1.4 1.4 0 0 1 .1-.8.6.6 0 0 1 .5-.2.5.5 0 0 1 .5.2 2.3 2.3 0 0 1 .2 1v2a2.3 2.3 0 0 1-.2 1 .6.6 0 0 1-.5.1.5.5 0 0 1-.5-.2 2.1 2.1 0 0 1-.1-1v-.4h-2.7v4.6h5.4V381a2 2 0 0 1 .2-1 .7.7 0 0 1 .5-.2.6.6 0 0 1 .6.2 1.4 1.4 0 0 1 .1.8v2.6a.8.8 0 0 1-.1.5.7.7 0 0 1-.6.2zm-39.6 49.4h-2.8a2 2 0 0 1-1-.2.7.7 0 0 1-.2-.6.8.8 0 0 1 .2-.5.8.8 0 0 1 .5-.2h6.7a.7.7 0 0 1 .5.2.8.8 0 0 1 .2.5.7.7 0 0 1-.2.6 2 2 0 0 1-1 .2h-1.3v6.5a4.8 4.8 0 0 1-1 3.4 4.3 4.3 0 0 1-3.2 1 7.8 7.8 0 0 1-1.8-.2 8.3 8.3 0 0 1-1.8-.7 1.3 1.3 0 0 1-.5-.4 1.5 1.5 0 0 1 0-.7v-2.4a1.7 1.7 0 0 1 0-.9.6.6 0 0 1 .6-.2 1 1 0 0 1 .4.1.6.6 0 0 1 .3.3 1.3 1.3 0 0 1 0 .3v.6a5.7 5.7 0 0 0 0 .6 5 5 0 0 0 .1.6 2.3 2.3 0 0 0 1 1.2 2.7 2.7 0 0 0 1.5.5 2.5 2.5 0 0 0 2-.8 4.1 4.1 0 0 0 .7-2.6zm8.4 10.3a1.1 1.1 0 0 1-.2.6.8.8 0 0 1-.6.2.8.8 0 0 1-.6-.3 1.4 1.4 0 0 1-.3-.8v-2.5a1 1 0 0 1 .1-.7.8.8 0 0 1 .6-.2c.4 0 .7.3 1 .9a3.3 3.3 0 0 0 .1.6 2.5 2.5 0 0 0 1.2 1.1 4 4 0 0 0 1.8.4 3.5 3.5 0 0 0 2.2-.6 2 2 0 0 0 .8-1.6 1.7 1.7 0 0 0-.5-1.3 2.6 2.6 0 0 0-1.5-.6l-1.5-.3a6.1 6.1 0 0 1-3.1-1 2.9 2.9 0 0 1-1-2.4 3.3 3.3 0 0 1 1.3-2.6 5 5 0 0 1 3.2-1 5.1 5.1 0 0 1 1.2 0 9 9 0 0 1 1.4.5.5.5 0 0 1 .2-.4.8.8 0 0 1 .5 0 1 1 0 0 1 .6 0 1 1 0 0 1 .2.7l.2 2.1v.1a.8.8 0 0 1-.2.6.8.8 0 0 1-.6.2c-.4 0-.7-.3-.8-.8a3.5 3.5 0 0 0-.3-.6 2.2 2.2 0 0 0-1-.8 3.6 3.6 0 0 0-1.5-.3 3.2 3.2 0 0 0-2 .6 2 2 0 0 0-.7 1.6 1.5 1.5 0 0 0 .5 1.3 3.7 3.7 0 0 0 1.8.6l1.6.2a4.8 4.8 0 0 1 2.7 1 3 3 0 0 1 1 2.4 3.4 3.4 0 0 1-1.3 2.8 5.3 5.3 0 0 1-3.5 1 6.7 6.7 0 0 1-1.4-.2 8.7 8.7 0 0 1-1.6-.5zm13.6.3h-2a.8.8 0 0 1-.6-.1.8.8 0 0 1-.2-.6.6.6 0 0 1 .2-.6 1.6 1.6 0 0 1 .8-.1h.2v-9.2h-.1a1.6 1.6 0 0 1-.9-.2.7.7 0 0 1-.2-.6.7.7 0 0 1 .2-.5.8.8 0 0 1 .6-.2h4.3a5.3 5.3 0 0 1 4 1.6 6.3 6.3 0 0 1 1.6 4.5 7.2 7.2 0 0 1-.4 2.5 5.8 5.8 0 0 1-1.3 2 4.4 4.4 0 0 1-1.9 1.2 9.3 9.3 0 0 1-2.8.4h-.7zm0-1.4h1.3a5.2 5.2 0 0 0 3.7-1.1 4.8 4.8 0 0 0 1.2-3.6 4.7 4.7 0 0 0-1.2-3.5 5.4 5.4 0 0 0-3.8-1.2h-.7a3.3 3.3 0 0 0-.5 0zm21-4.7a6.8 6.8 0 0 1-1.5 4.7 5.3 5.3 0 0 1-8 0 7.6 7.6 0 0 1 0-9.3 5.3 5.3 0 0 1 8 0 6.8 6.8 0 0 1 1.5 4.6zm-5.5 5a3.2 3.2 0 0 0 2.7-1.3 7.1 7.1 0 0 0 0-7.3 3.5 3.5 0 0 0-5.4 0 7.2 7.2 0 0 0 0 7.3 3.2 3.2 0 0 0 2.7 1.3zm13-3.9l2.2-6.4a1 1 0 0 1 .4-.6 1.3 1.3 0 0 1 .8-.1h1.6a.7.7 0 0 1 .5.2.7.7 0 0 1 .2.5.6.6 0 0 1-.2.5 1.5 1.5 0 0 1-.8.2h-.1l.2 9.3h.3a2 2 0 0 1 .9.1.6.6 0 0 1 .2.6.7.7 0 0 1-.2.5.7.7 0 0 1-.5.2h-3a1.4 1.4 0 0 1-.7-.1.7.7 0 0 1-.2-.6.6.6 0 0 1 .2-.6 2.2 2.2 0 0 1 1-.1h.5l-.2-8.8-2 5.9a1.2 1.2 0 0 1-.4.6 1.2 1.2 0 0 1-.7.1 1 1 0 0 1-.7-.1 1.2 1.2 0 0 1-.3-.6l-2-6-.3 8.9h.7a1.6 1.6 0 0 1 .9.2.6.6 0 0 1 .2.5.7.7 0 0 1-.2.6 1.4 1.4 0 0 1-.8.1h-2.9a.7.7 0 0 1-.5-.1.8.8 0 0 1-.2-.6.6.6 0 0 1 .2-.6 2 2 0 0 1 .9-.1h.2l.3-9.3h-.1a1.6 1.6 0 0 1-.8-.2.6.6 0 0 1-.2-.5.7.7 0 0 1 .1-.5.7.7 0 0 1 .5-.2h1.7a1.3 1.3 0 0 1 .8.1 1 1 0 0 1 .3.6zm-505 158.4h.7a1.6 1.6 0 0 1 .8.2.6.6 0 0 1 .3.6.7.7 0 0 1-.3.5 1.9 1.9 0 0 1-.9.2h-2.7a.8.8 0 0 1-.6-.2.8.8 0 0 1-.2-.5.6.6 0 0 1 .3-.6 1.6 1.6 0 0 1 .8-.1h.2v-9.3h-.2a1.6 1.6 0 0 1-.8-.1.7.7 0 0 1-.3-.6.8.8 0 0 1 .2-.6.8.8 0 0 1 .6-.2h2.6a2.2 2.2 0 0 1 1 .2.7.7 0 0 1 .2.6.6.6 0 0 1-.3.6 2.2 2.2 0 0 1-1 .1h-.4v3.6h4.9v-3.6h-.7a1.5 1.5 0 0 1-.9-.2.6.6 0 0 1-.2-.5.7.7 0 0 1 .2-.6 2.5 2.5 0 0 1 1.2-.2h2.5a.7.7 0 0 1 .7.8.7.7 0 0 1-.2.6 1.3 1.3 0 0 1-.8.1h-.2v9.3h.1a1.5 1.5 0 0 1 .9.1.6.6 0 0 1 .2.6.7.7 0 0 1-.2.6 2 2 0 0 1-1 .1h-2.1a2.3 2.3 0 0 1-1-.1.7.7 0 0 1-.3-.6.6.6 0 0 1 .3-.6 2.3 2.3 0 0 1 1-.1h.5v-4.3h-5zm11.6-6.5a2 2 0 0 1-.2 1 .8.8 0 0 1-.6.2.7.7 0 0 1-.5-.2.8.8 0 0 1-.2-.6v-.4l.1-3.4a.8.8 0 0 1 .2-.6.9.9 0 0 1 .6-.1h8.9a.8.8 0 0 1 .6.1.8.8 0 0 1 .2.6l.1 3.3v.5a.7.7 0 0 1-.2.6.8.8 0 0 1-.6.1.7.7 0 0 1-.5-.2 2 2 0 0 1-.2-1l-.1-2.6h-3v9.2h2a.9.9 0 0 1 .7.2.7.7 0 0 1 .2.5.7.7 0 0 1-.2.5.7.7 0 0 1-.6.2h-5.7a.7.7 0 0 1-.5-.2.7.7 0 0 1-.2-.5.7.7 0 0 1 .2-.5 1 1 0 0 1 .7-.2h1.9v-9.2h-3zm13 0a2 2 0 0 1-.1 1 .8.8 0 0 1-.7.2.7.7 0 0 1-.5-.2.8.8 0 0 1-.2-.6v-.4l.1-3.4a.8.8 0 0 1 .2-.6.9.9 0 0 1 .6-.1h9a.8.8 0 0 1 .5.1.8.8 0 0 1 .2.6l.1 3.3v.5a.7.7 0 0 1-.2.6.8.8 0 0 1-.6.1.7.7 0 0 1-.5-.2 2.2 2.2 0 0 1-.2-1l-.1-2.6h-3v9.2h2a.9.9 0 0 1 .7.2.7.7 0 0 1 .2.5.7.7 0 0 1-.2.5.7.7 0 0 1-.6.2h-5.7a.7.7 0 0 1-.7-.7.7.7 0 0 1 .2-.5 1 1 0 0 1 .7-.2h1.9v-9.2h-3zm17.3 6.5a1.2 1.2 0 0 1 .7.2.6.6 0 0 1 .3.6.7.7 0 0 1-.2.5 1.4 1.4 0 0 1-.9.2h-5a.7.7 0 0 1-.5-.2.9.9 0 0 1 0-1 .8.8 0 0 1 .6-.3h1.3v-9.2h-.7a2.3 2.3 0 0 1-1.2-.2.7.7 0 0 1-.2-.5.8.8 0 0 1 .2-.6.7.7 0 0 1 .5-.2h4.8a6.3 6.3 0 0 1 3.8 1 3.8 3.8 0 0 1 0 5.7 6.4 6.4 0 0 1-3.8 1H581v3zm-2.1-9.2v4.8h2a4 4 0 0 0 2.3-.6 2.4 2.4 0 0 0 0-3.6 4 4 0 0 0-2.4-.6zm10.4 7a.4.4 0 0 1-.3-.2.5.5 0 0 1-.1-.3v-1.1a.4.4 0 0 1 .1-.3.5.5 0 0 1 .3-.1h8.5a.6.6 0 0 1 .4 0 .4.4 0 0 1 .1.4v1a.5.5 0 0 1-.1.4.5.5 0 0 1-.4.1zm20.6-8.1a.8.8 0 0 1 .3-.4 1 1 0 0 1 .5-.1.7.7 0 0 1 .6.2 1.3 1.3 0 0 1 .1.7v2.6a1 1 0 0 1-.2.7.8.8 0 0 1-.5.2c-.5 0-.8-.4-1-1v-.5a2 2 0 0 0-1-1.2 3 3 0 0 0-1.7-.5 3.6 3.6 0 0 0-3 1.3 5.4 5.4 0 0 0-1 3.6 5.3 5.3 0 0 0 1.1 3.5 3.6 3.6 0 0 0 3 1.3 4.3 4.3 0 0 0 1.1-.1 5.3 5.3 0 0 0 1.3-.5 6.9 6.9 0 0 0 .7-.5 1.5 1.5 0 0 1 .7-.4.8.8 0 0 1 .5.2.7.7 0 0 1 .3.6.9.9 0 0 1-.3.6 4.2 4.2 0 0 1-.9.7 6.7 6.7 0 0 1-1.7.8 6.2 6.2 0 0 1-1.8.3 5.4 5.4 0 0 1-4.2-1.8 7.2 7.2 0 0 1 0-9.2 5.4 5.4 0 0 1 4.2-1.8 6 6 0 0 1 1.4.1 9.1 9.1 0 0 1 1.5.6zm15.3 5.7a6.8 6.8 0 0 1-1.6 4.6 5.3 5.3 0 0 1-8 0 7.6 7.6 0 0 1 0-9.2 5.3 5.3 0 0 1 8 0 6.8 6.8 0 0 1 1.6 4.6zm-5.5 5a3.2 3.2 0 0 0 2.7-1.3 7.2 7.2 0 0 0 0-7.3 3.5 3.5 0 0 0-5.5 0 7.3 7.3 0 0 0 0 7.3 3.2 3.2 0 0 0 2.8 1.3zm13-4l2.2-6.4a1 1 0 0 1 .4-.5 1.3 1.3 0 0 1 .7-.2h1.7a.7.7 0 0 1 .5.2.7.7 0 0 1 .2.5.6.6 0 0 1-.2.6 1.4 1.4 0 0 1-.8.1h-.2l.3 9.3h.2a1.8 1.8 0 0 1 1 .2.6.6 0 0 1 .2.6.7.7 0 0 1-.8.7h-2.8a1.4 1.4 0 0 1-.9-.2.7.7 0 0 1-.2-.5.6.6 0 0 1 .3-.6 2.2 2.2 0 0 1 1-.1h.4l-.2-8.9-2 6a1.2 1.2 0 0 1-.4.5 1.1 1.1 0 0 1-.7.2 1.1 1.1 0 0 1-.6-.2 1.3 1.3 0 0 1-.4-.6l-2-5.9-.3 8.8h.7a1.6 1.6 0 0 1 .9.2.6.6 0 0 1 .2.6.7.7 0 0 1-.2.5 1.4 1.4 0 0 1-.8.2h-2.9a.7.7 0 0 1-.5-.2.8.8 0 0 1-.2-.5.6.6 0 0 1 .2-.6 1.8 1.8 0 0 1 1-.1h.2l.3-9.4h-.2a1.5 1.5 0 0 1-.8-.1.6.6 0 0 1-.2-.6.7.7 0 0 1 .2-.5.7.7 0 0 1 .5-.2h1.7a1.3 1.3 0 0 1 .7.2 1 1 0 0 1 .4.5zm13.4 3.6a1.2 1.2 0 0 1 .7.2.6.6 0 0 1 .3.6.7.7 0 0 1-.2.5 1.5 1.5 0 0 1-.9.2h-5a.7.7 0 0 1-.5-.2.9.9 0 0 1 0-1 .8.8 0 0 1 .6-.3h1.3v-9.2h-.7a2.3 2.3 0 0 1-1.1-.2.7.7 0 0 1-.3-.5.8.8 0 0 1 .2-.6.7.7 0 0 1 .5-.2h4.8a6.2 6.2 0 0 1 3.8 1 3.8 3.8 0 0 1 0 5.7 6.4 6.4 0 0 1-3.8 1H646v3zm-2.1-9.2v4.8h1.9a4 4 0 0 0 2.4-.6 2 2 0 0 0 .8-1.8 2 2 0 0 0-.8-1.8 4.1 4.1 0 0 0-2.4-.6zm12.4 9.3h.7a1.6 1.6 0 0 1 .9.1.6.6 0 0 1 .2.6.7.7 0 0 1-.2.5 1.4 1.4 0 0 1-.8.2h-3.4a.7.7 0 0 1-.6-.2.7.7 0 0 1-.2-.5.7.7 0 0 1 .2-.6 1 1 0 0 1 .7-.2h1v-9.3h-.6a2.2 2.2 0 0 1-1-.1.6.6 0 0 1-.3-.6.7.7 0 0 1 .2-.5.7.7 0 0 1 .5-.2h4.4a13.4 13.4 0 0 1 2.3.2 3.6 3.6 0 0 1 1.3.5 3.4 3.4 0 0 1 1.1 1.2 3.5 3.5 0 0 1 .4 1.6 3 3 0 0 1-.7 2 3.8 3.8 0 0 1-2 1.2 2.1 2.1 0 0 1 .5.4 3 3 0 0 1 .4.5l2 3.1h.4a1.3 1.3 0 0 1 .7.2.6.6 0 0 1 .3.5.7.7 0 0 1-.2.6.7.7 0 0 1-.5.2H665c-.3 0-.7-.3-1-.8l-2-3a4.7 4.7 0 0 0-1-1.3 1.8 1.8 0 0 0-1-.2h-1.5zm0-9.4v4.2h2.2a3.6 3.6 0 0 0 2.1-.6 1.8 1.8 0 0 0 .7-1.5 1.8 1.8 0 0 0-.7-1.6 3.5 3.5 0 0 0-2-.5zm11 10.8h-.5a.8.8 0 0 1-.6-.2.8.8 0 0 1-.1-.5.6.6 0 0 1 .2-.6 2.1 2.1 0 0 1 1-.1h.6v-9.3h-.6a2 2 0 0 1-1-.1.7.7 0 0 1-.3-.6.8.8 0 0 1 .2-.6.8.8 0 0 1 .6-.2h9a.7.7 0 0 1 .5.2 1 1 0 0 1 .2.7v2.4a1.3 1.3 0 0 1-.2.7.7.7 0 0 1-.6.2.7.7 0 0 1-.5-.2 2.1 2.1 0 0 1-.2-1v-1.5h-5.5v3.5h2.7v-.6a1.6 1.6 0 0 1 .2-.7.6.6 0 0 1 .5-.2.5.5 0 0 1 .5.2 2.3 2.3 0 0 1 .1 1v1.9a2.2 2.2 0 0 1-.1 1 .6.6 0 0 1-.5.2.5.5 0 0 1-.5-.2 2.1 2.1 0 0 1-.2-1v-.4h-2.6v4.5h5.4V596a2.1 2.1 0 0 1 .2-1 .7.7 0 0 1 .5-.2.6.6 0 0 1 .6.2 1.4 1.4 0 0 1 .2.8v2.6a.8.8 0 0 1-.2.5.7.7 0 0 1-.6.2zm14.4-.4a1 1 0 0 1-.3.7.8.8 0 0 1-.6.2.8.8 0 0 1-.6-.3 1.4 1.4 0 0 1-.2-.8l-.2-2.4v-.2a1 1 0 0 1 .2-.7.8.8 0 0 1 .6-.2c.5 0 .8.3 1 .9a4.2 4.2 0 0 0 .2.7 2.5 2.5 0 0 0 1.1 1 4.1 4.1 0 0 0 1.9.5 3.4 3.4 0 0 0 2.1-.7 2 2 0 0 0 .8-1.6 1.7 1.7 0 0 0-.5-1.3 2.6 2.6 0 0 0-1.5-.6l-1.5-.2a6 6 0 0 1-3-1.1 2.8 2.8 0 0 1-1-2.3 3.3 3.3 0 0 1 1.2-2.7 5 5 0 0 1 3.3-1 5 5 0 0 1 1.2.1 10.6 10.6 0 0 1 1.4.5.5.5 0 0 1 .1-.4.8.8 0 0 1 .5-.1 1 1 0 0 1 .6.1c.2 0 .2.3.3.6l.1 2.2a.7.7 0 0 1-.2.6.8.8 0 0 1-.6.2c-.3 0-.6-.2-.8-.7a3 3 0 0 0-.3-.7 2.1 2.1 0 0 0-1-.8 3.5 3.5 0 0 0-1.5-.2 3.1 3.1 0 0 0-2 .6 2 2 0 0 0-.7 1.6 1.5 1.5 0 0 0 .5 1.2 3.7 3.7 0 0 0 1.8.6l1.7.2a4.7 4.7 0 0 1 2.6 1.1 3 3 0 0 1 1 2.4 3.4 3.4 0 0 1-1.3 2.7 5.3 5.3 0 0 1-3.5 1 6 6 0 0 1-1.4-.2 8.8 8.8 0 0 1-1.5-.5zm13 0a1 1 0 0 1-.2.7.8.8 0 0 1-.6.2.8.8 0 0 1-.7-.3 1.4 1.4 0 0 1-.2-.8l-.1-2.4v-.2a1 1 0 0 1 .1-.7.8.8 0 0 1 .7-.2c.4 0 .7.3.9.9a4.2 4.2 0 0 0 .2.7 2.5 2.5 0 0 0 1.1 1 4 4 0 0 0 1.9.5 3.5 3.5 0 0 0 2.1-.7 2 2 0 0 0 .8-1.6 1.7 1.7 0 0 0-.5-1.3 2.6 2.6 0 0 0-1.4-.6l-1.6-.2a6.1 6.1 0 0 1-3-1.1 2.8 2.8 0 0 1-1-2.3 3.3 3.3 0 0 1 1.3-2.7 5 5 0 0 1 3.2-1 5.2 5.2 0 0 1 1.2.1 11 11 0 0 1 1.4.5.5.5 0 0 1 .2-.4.8.8 0 0 1 .4-.1 1 1 0 0 1 .7.1l.2.6.1 2.2a.8.8 0 0 1-.2.6.8.8 0 0 1-.6.2c-.3 0-.6-.2-.8-.7a3 3 0 0 0-.3-.7 2.1 2.1 0 0 0-1-.8 3.5 3.5 0 0 0-1.4-.2 3.1 3.1 0 0 0-2 .6 2 2 0 0 0-.8 1.6 1.5 1.5 0 0 0 .6 1.2 3.7 3.7 0 0 0 1.7.6l1.7.2a4.7 4.7 0 0 1 2.7 1.1 3 3 0 0 1 .9 2.4 3.4 3.4 0 0 1-1.3 2.7 5.2 5.2 0 0 1-3.4 1 6 6 0 0 1-1.5-.2 8.8 8.8 0 0 1-1.5-.5zm19.1-1a2 2 0 0 1 1 .1.6.6 0 0 1 .2.6.7.7 0 0 1-.2.5 2 2 0 0 1-1 .2h-6.7a.8.8 0 0 1-.6-.2.7.7 0 0 1-.2-.5.6.6 0 0 1 .3-.6 2.2 2.2 0 0 1 1-.1h2.3v-9.3h-2.3a2 2 0 0 1-1-.1.7.7 0 0 1-.2-.6.7.7 0 0 1 .2-.6.8.8 0 0 1 .6-.2h7.1a.7.7 0 0 1 .8.8.6.6 0 0 1-.3.6 2 2 0 0 1-1 .1h-2.3v9.3zm15.5-4.7a6.8 6.8 0 0 1-1.6 4.6 5.3 5.3 0 0 1-8 0 7.6 7.6 0 0 1 0-9.2 5.3 5.3 0 0 1 8 0 6.8 6.8 0 0 1 1.6 4.6zm-5.6 5a3.2 3.2 0 0 0 2.7-1.3 7.2 7.2 0 0 0 0-7.3 3.5 3.5 0 0 0-5.4 0 7.3 7.3 0 0 0 0 7.3 3.2 3.2 0 0 0 2.7 1.3zm10.3-.4h1.2a1.4 1.4 0 0 1 .8.2.6.6 0 0 1 .3.6.7.7 0 0 1-.3.5 2 2 0 0 1-1 .2h-3a.7.7 0 0 1-.7-.7.6.6 0 0 1 .2-.6 1.6 1.6 0 0 1 .8-.1h.2v-9.3h-.2a2.8 2.8 0 0 1-1.2-.2.6.6 0 0 1-.3-.5.6.6 0 0 1 .3-.6 1.7 1.7 0 0 1 .8-.2h1.6a1.5 1.5 0 0 1 .7.2 1.6 1.6 0 0 1 .4.5l5.2 9v-8.2h-1.1a1.4 1.4 0 0 1-.8-.2.6.6 0 0 1-.3-.5.7.7 0 0 1 .2-.6 1.7 1.7 0 0 1 1-.2h2.9a.7.7 0 0 1 .5.2.8.8 0 0 1 .2.6.7.7 0 0 1-.2.6 1.4 1.4 0 0 1-.8.1h-.1v10.4a.5.5 0 0 1-.2.4 1.2 1.2 0 0 1-.6 0 1.9 1.9 0 0 1-.6 0 1.5 1.5 0 0 1-.4-.5l-5.5-9.4zm-508.9-9a.7.7 0 0 1 .3-.5 1 1 0 0 1 .5 0 .7.7 0 0 1 .6.1 1.3 1.3 0 0 1 .1.8v2.6a1 1 0 0 1-.1.6.8.8 0 0 1-.6.2c-.5 0-.8-.3-1-1v-.4a2.1 2.1 0 0 0-1-1.3 3.1 3.1 0 0 0-1.7-.5 3.6 3.6 0 0 0-2.9 1.3 5.4 5.4 0 0 0-1.1 3.6 5.3 5.3 0 0 0 1.1 3.6 3.6 3.6 0 0 0 3 1.3 4.7 4.7 0 0 0 1.2-.2 4.9 4.9 0 0 0 1.2-.5 5.7 5.7 0 0 0 .7-.5 1.6 1.6 0 0 1 .7-.3.8.8 0 0 1 .6.2.7.7 0 0 1 .2.5 1 1 0 0 1-.3.6 3.9 3.9 0 0 1-.9.7 6.7 6.7 0 0 1-1.7.8 6.2 6.2 0 0 1-1.8.3 5.4 5.4 0 0 1-4.2-1.8 7.2 7.2 0 0 1 0-9.2 5.4 5.4 0 0 1 4.2-1.8 6 6 0 0 1 1.4.2 9.1 9.1 0 0 1 1.5.5zm15.3 5.6a6.8 6.8 0 0 1-1.5 4.7 5.3 5.3 0 0 1-8 0 7.6 7.6 0 0 1 0-9.3 5.3 5.3 0 0 1 8 0 6.8 6.8 0 0 1 1.5 4.6zm-5.5 5a3.2 3.2 0 0 0 2.7-1.3 7.2 7.2 0 0 0 0-7.3 3.5 3.5 0 0 0-5.4 0 7.2 7.2 0 0 0 0 7.3 3.2 3.2 0 0 0 2.7 1.3zm10.6 1.1h-2.1a.8.8 0 0 1-.6-.1.8.8 0 0 1-.2-.6.6.6 0 0 1 .2-.5 1.6 1.6 0 0 1 .9-.2h.2v-9.2h-.2a1.5 1.5 0 0 1-.8-.2.6.6 0 0 1-.3-.6.7.7 0 0 1 .2-.5.8.8 0 0 1 .6-.2h4.3a5.3 5.3 0 0 1 4.1 1.6 6.3 6.3 0 0 1 1.5 4.5 7 7 0 0 1-.4 2.5 6.1 6.1 0 0 1-1.3 2 4.5 4.5 0 0 1-1.8 1.2 9.3 9.3 0 0 1-2.8.4h-.7zm0-1.4h1.2a5.2 5.2 0 0 0 3.7-1.1 4.7 4.7 0 0 0 1.2-3.6 4.7 4.7 0 0 0-1.2-3.5 5.4 5.4 0 0 0-3.7-1.1h-.8a3.3 3.3 0 0 0-.4 0zm11 1.4h-.4a.8.8 0 0 1-.6-.1.8.8 0 0 1-.2-.6.6.6 0 0 1 .2-.6 2.3 2.3 0 0 1 1-.1h.7v-9.2h-.7a2 2 0 0 1-1-.2.7.7 0 0 1-.2-.6.7.7 0 0 1 .2-.5.8.8 0 0 1 .6-.2h9a.7.7 0 0 1 .4.2 1 1 0 0 1 .2.6v2.4a1.2 1.2 0 0 1-.1.8.6.6 0 0 1-.6.2.7.7 0 0 1-.6-.3 2 2 0 0 1-.1-1v-1.4H261v3.4h2.7v-.5a1.4 1.4 0 0 1 .1-.8.6.6 0 0 1 .5-.2.5.5 0 0 1 .5.2 2.3 2.3 0 0 1 .2 1v2a2 2 0 0 1-.2 1 .6.6 0 0 1-.5.2.5.5 0 0 1-.5-.3 2.3 2.3 0 0 1-.1-1v-.3H261v4.5h5.5v-1.7a2 2 0 0 1 .1-1 .7.7 0 0 1 .6-.2.7.7 0 0 1 .5.2 1.5 1.5 0 0 1 .2.8v2.6a.8.8 0 0 1-.2.6.7.7 0 0 1-.5.2zm17.4-1.4h.4a.9.9 0 0 1 .6.2.7.7 0 0 1 .2.5.7.7 0 0 1-.2.5.7.7 0 0 1-.5.2h-5a.7.7 0 0 1-.6-.2.8.8 0 0 1-.2-.5.6.6 0 0 1 .2-.5 1 1 0 0 1 .7-.2h1v-9.2h-.7a2 2 0 0 1-1-.2.7.7 0 0 1-.2-.6.8.8 0 0 1 .2-.5.7.7 0 0 1 .5-.2h9a.7.7 0 0 1 .6.2 1 1 0 0 1 .2.6v2.6a.7.7 0 0 1-.2.6.7.7 0 0 1-.5.2.6.6 0 0 1-.6-.3 2 2 0 0 1-.2-1v-1.4h-5.5v3.4h2.7v-.2a2.5 2.5 0 0 1 .1-1 .6.6 0 0 1 .6-.3.5.5 0 0 1 .4.2 1 1 0 0 1 .2.6v2.6a1.2 1.2 0 0 1-.2.7.5.5 0 0 1-.4.2.6.6 0 0 1-.6-.2 2.5 2.5 0 0 1-.1-1v-.3h-2.7v4.5zm10.8 0h.7a1.6 1.6 0 0 1 .8.2.6.6 0 0 1 .3.5.7.7 0 0 1-.2.6 1.4 1.4 0 0 1-.9.1h-3.4a.7.7 0 0 1-.5-.2.8.8 0 0 1-.2-.5.7.7 0 0 1 .2-.5 1 1 0 0 1 .7-.2h1v-9.3h-.7a2 2 0 0 1-1-.2.6.6 0 0 1-.2-.5.7.7 0 0 1 .2-.5.7.7 0 0 1 .5-.2h4.3a13.4 13.4 0 0 1 2.4.1 3.6 3.6 0 0 1 1.3.5 3.3 3.3 0 0 1 1 1.3 3.5 3.5 0 0 1 .4 1.6 3 3 0 0 1-.7 2 3.7 3.7 0 0 1-2 1.2 2.1 2.1 0 0 1 .5.3 3 3 0 0 1 .4.5l2 3.2h.4a1.4 1.4 0 0 1 .8.1.6.6 0 0 1 .2.6.8.8 0 0 1-.2.5.7.7 0 0 1-.5.2h-1.2c-.3 0-.6-.2-1-.7v-.1l-2-3a4.5 4.5 0 0 0-1-1.2 1.8 1.8 0 0 0-1-.3h-1.4zm0-9.3v4.1h2.1a3.8 3.8 0 0 0 2.2-.5 1.8 1.8 0 0 0 .7-1.6 1.8 1.8 0 0 0-.7-1.5 3.5 3.5 0 0 0-2.1-.5zm13.7 0h-1.5a1.7 1.7 0 0 1-.9-.1.6.6 0 0 1-.2-.6.7.7 0 0 1 .2-.6 2.6 2.6 0 0 1 1.2-.1h3a1.4 1.4 0 0 1 .7.1 1.3 1.3 0 0 1 .4.6l4 10h.1a1.4 1.4 0 0 1 .8.1.7.7 0 0 1 .2.6.7.7 0 0 1-.2.6 1.2 1.2 0 0 1-.7.1h-2.8a2 2 0 0 1-1-.1.7.7 0 0 1-.2-.6.6.6 0 0 1 .2-.6 1.9 1.9 0 0 1 1-.1h.9l-1-2.5h-5.2l-1 2.5h1a2 2 0 0 1 1 .1.6.6 0 0 1 .3.6.7.7 0 0 1-.3.6 1.9 1.9 0 0 1-1 .1H297a1.6 1.6 0 0 1-.9-.1.7.7 0 0 1-.2-.6.6.6 0 0 1 .2-.6 1.6 1.6 0 0 1 .9-.1h.2zm-.5 5.5h4.2l-2.2-5.4zm15.1.2l2.3-6.4a1.1 1.1 0 0 1 .3-.6 1.3 1.3 0 0 1 .8-.1h1.6a.7.7 0 0 1 .6.2.7.7 0 0 1 .1.5.6.6 0 0 1-.2.5 1.4 1.4 0 0 1-.8.2h-.1l.3 9.3h.2a2 2 0 0 1 .9.1.6.6 0 0 1 .2.6.7.7 0 0 1-.2.5.7.7 0 0 1-.5.2h-2.9a1.4 1.4 0 0 1-.8-.1.7.7 0 0 1-.2-.6.6.6 0 0 1 .2-.6 2.2 2.2 0 0 1 1-.1h.5l-.2-8.8-2 5.9a1.2 1.2 0 0 1-.4.6 1.2 1.2 0 0 1-.7.1 1 1 0 0 1-.7-.1 1.2 1.2 0 0 1-.3-.6l-2-6-.3 8.9h.7a1.6 1.6 0 0 1 .9.2.6.6 0 0 1 .2.5.7.7 0 0 1-.2.6 1.4 1.4 0 0 1-.8.1h-2.9a.7.7 0 0 1-.5-.1.8.8 0 0 1-.2-.6.6.6 0 0 1 .2-.6 2 2 0 0 1 1-.1h.1l.3-9.3h-.1a1.4 1.4 0 0 1-.8-.2.6.6 0 0 1-.2-.5.7.7 0 0 1 .2-.5.7.7 0 0 1 .5-.2h1.6a1.3 1.3 0 0 1 .8.1 1 1 0 0 1 .3.6zm8.7 5h-.5a.8.8 0 0 1-.6-.1.8.8 0 0 1-.2-.6.6.6 0 0 1 .2-.6 2.3 2.3 0 0 1 1-.1h.7v-9.2h-.7a2 2 0 0 1-1-.2.7.7 0 0 1-.2-.6.7.7 0 0 1 .2-.5.8.8 0 0 1 .6-.2h9a.7.7 0 0 1 .5.2 1 1 0 0 1 .1.6v2.4a1.3 1.3 0 0 1-.1.8.6.6 0 0 1-.6.2.7.7 0 0 1-.6-.3 2 2 0 0 1-.1-1v-1.4H326v3.4h2.7v-.5a1.4 1.4 0 0 1 .2-.8.6.6 0 0 1 .5-.2.5.5 0 0 1 .5.2 2.3 2.3 0 0 1 .1 1v2a2 2 0 0 1-.1 1 .6.6 0 0 1-.5.2.5.5 0 0 1-.6-.3 2.3 2.3 0 0 1 0-1v-.3H326v4.5h5.5v-1.7a2 2 0 0 1 .1-1 .8.8 0 0 1 1.2 0 1.5 1.5 0 0 1 .1.8v2.6a.8.8 0 0 1-.2.6.7.7 0 0 1-.5.2zM608.6 217a3.4 3.4 0 0 1 1 2.5 3.5 3.5 0 0 1-1 2.5 3.1 3.1 0 0 1-2.4 1 3 3 0 0 1-2.3-1 3.6 3.6 0 0 1-1-2.5 3.4 3.4 0 0 1 1-2.5 3.1 3.1 0 0 1 2.3-1 3.2 3.2 0 0 1 2.4 1zm11.7 0a3.4 3.4 0 0 1 1 2.5 3.5 3.5 0 0 1-1 2.5 3.1 3.1 0 0 1-2.3 1 3 3 0 0 1-2.4-1 3.6 3.6 0 0 1-1-2.5 3.4 3.4 0 0 1 1-2.5 3.1 3.1 0 0 1 2.4-1 3.2 3.2 0 0 1 2.3 1zm11.8 0a3.4 3.4 0 0 1 1 2.5 3.5 3.5 0 0 1-1 2.5 3.1 3.1 0 0 1-2.4 1 3 3 0 0 1-2.3-1 3.6 3.6 0 0 1-1-2.5 3.4 3.4 0 0 1 1-2.5 3.1 3.1 0 0 1 2.3-1 3.2 3.2 0 0 1 2.4 1zM266.6 649a3.4 3.4 0 0 1 1 2.5 3.5 3.5 0 0 1-1 2.5 3.1 3.1 0 0 1-2.3 1 3 3 0 0 1-2.4-1 3.6 3.6 0 0 1-1-2.5 3.4 3.4 0 0 1 1-2.5 3.1 3.1 0 0 1 2.4-1 3.2 3.2 0 0 1 2.3 1zm11.8 0a3.4 3.4 0 0 1 1 2.5 3.5 3.5 0 0 1-1 2.5 3.1 3.1 0 0 1-2.4 1 3 3 0 0 1-2.3-1 3.6 3.6 0 0 1-1-2.5 3.4 3.4 0 0 1 1-2.5 3.1 3.1 0 0 1 2.3-1 3.2 3.2 0 0 1 2.4 1zm11.8 0a3.4 3.4 0 0 1 .9 2.5 3.5 3.5 0 0 1-1 2.5 3.1 3.1 0 0 1-2.3 1 3 3 0 0 1-2.4-1 3.6 3.6 0 0 1-.9-2.5 3.4 3.4 0 0 1 1-2.5 3.1 3.1 0 0 1 2.3-1 3.2 3.2 0 0 1 2.3 1z"/><path fill="#4046dd" d="M516.5 627.5h250.8v48H516.5z"/><path fill="#fff" d="M632.5 649a3.4 3.4 0 0 1 1 2.5 3.5 3.5 0 0 1-1 2.5 3.1 3.1 0 0 1-2.4 1 3 3 0 0 1-2.3-1 3.6 3.6 0 0 1-1-2.5 3.4 3.4 0 0 1 1-2.5 3.1 3.1 0 0 1 2.3-1 3.2 3.2 0 0 1 2.4 1zm11.7 0a3.4 3.4 0 0 1 1 2.5 3.5 3.5 0 0 1-1 2.5 3.1 3.1 0 0 1-2.3 1 3 3 0 0 1-2.4-1 3.6 3.6 0 0 1-.9-2.5 3.4 3.4 0 0 1 1-2.5 3.1 3.1 0 0 1 2.3-1 3.2 3.2 0 0 1 2.3 1zm11.8 0a3.4 3.4 0 0 1 1 2.5 3.5 3.5 0 0 1-1 2.5 3.1 3.1 0 0 1-2.4 1 3 3 0 0 1-2.3-1 3.6 3.6 0 0 1-1-2.5 3.4 3.4 0 0 1 1-2.5 3.1 3.1 0 0 1 2.3-1 3.2 3.2 0 0 1 2.4 1zm354.3-156a3.4 3.4 0 0 1 .9 2.5 3.5 3.5 0 0 1-1 2.5 3.1 3.1 0 0 1-2.3 1 3 3 0 0 1-2.3-1 3.5 3.5 0 0 1-1-2.5 3.4 3.4 0 0 1 1-2.5 3.1 3.1 0 0 1 2.3-1 3.2 3.2 0 0 1 2.4 1zm11.7 0a3.4 3.4 0 0 1 1 2.5 3.5 3.5 0 0 1-1 2.5 3.1 3.1 0 0 1-2.4 1 3 3 0 0 1-2.3-1 3.5 3.5 0 0 1-1-2.5 3.4 3.4 0 0 1 1-2.5 3.1 3.1 0 0 1 2.3-1 3.2 3.2 0 0 1 2.4 1zm11.8 0a3.4 3.4 0 0 1 1 2.5 3.5 3.5 0 0 1-1 2.5 3.1 3.1 0 0 1-2.4 1 3 3 0 0 1-2.3-1 3.5 3.5 0 0 1-1-2.5 3.4 3.4 0 0 1 1-2.5 3 3 0 0 1 2.3-1 3.2 3.2 0 0 1 2.4 1z"/></svg>