<svg xmlns="http://www.w3.org/2000/svg" xmlns:v="http://schemas.microsoft.com/visio/2003/SVGExtensions/" xmlns:xlink="http://www.w3.org/1999/xlink" fill="none" fill-rule="evenodd" stroke-linecap="square" stroke-miterlimit="3" color-interpolation-filters="sRGB" font-size="12" overflow="visible" viewBox="0 0 760.277 669.25"><v:documentProperties v:langID="1033" v:metric="true" v:viewMarkup="false"><v:userDefs><v:ud v:nameU="msvNoAutoConnect" v:val="VT0(0):26"/></v:userDefs></v:documentProperties><style>.st1,.st2{stroke:#000;stroke-linecap:round;stroke-linejoin:round;stroke-width:.75}.st1{fill:#fff}.st2{stroke-dasharray:5.25,3.75}.st3{fill:#000;font-family:Calibri;font-size:1.00001em;font-weight:700}.st4,.st5{stroke:#000}.st4{marker-end:url(#mrkr4-104);stroke-linecap:round;stroke-linejoin:round;stroke-width:.75}.st5{fill:#000;fill-opacity:1;stroke-opacity:1;stroke-width:.18796992481203}.st6{fill:#fff;stroke:none;stroke-linecap:butt;stroke-width:7.2}.st7{fill:#000;font-family:Calibri;font-size:.666664em}.st8{font-size:1em}.st10,.st9{marker-end:url(#mrkr3-120);stroke:#000;stroke-linecap:round;stroke-linejoin:round;stroke-width:.75}.st10{stroke-dasharray:5.25,3.75}.st11{fill:#fff;stroke:none;stroke-linecap:butt}.st12{fill:#000;font-family:Segoe UI Emoji;font-size:.666664em}.st13{font-family:Calibri;font-size:1em}</style><defs id="Markers"><path id="lend4" d="M2 1L0 0l2-1v2"/><marker id="mrkr4-104" class="st5" orient="auto" overflow="visible" refX="-10.64" v:arrowSize="3" v:arrowType="4" v:setback="10.64"><use transform="scale(-5.32)" xlink:href="#lend4"/></marker><path id="lend3" stroke-linecap="round" stroke-linejoin="round" d="M2 1L0 0l2-1"/><marker id="mrkr3-120" class="st5" orient="auto" overflow="visible" v:arrowSize="3" v:arrowType="3"><use transform="scale(-5.32)" xlink:href="#lend3"/></marker></defs><g v:groupContext="foregroundPage" v:index="1" v:mID="0"><v:userDefs><v:ud v:nameU="msvThemeOrder" v:val="VT0(0):26"/></v:userDefs><v:pageProperties v:drawingScale=".039" v:drawingUnits="24" v:pageScale=".039" v:shadowOffsetX="8.504" v:shadowOffsetY="-8.504"/><v:layer v:index="0" v:name="Connector"/><g id="group12-1" transform="translate(427.981 -587.971)" v:groupContext="group" v:mID="12"><v:userDefs><v:ud v:nameU="visVersion" v:val="VT0(15):26"/><v:ud v:nameU="ShowActor" v:val="VT0(0):5"/><v:ud v:nameU="ShowDestruction" v:val="VT0(0):5"/></v:userDefs><g id="shape13-2" v:groupContext="shape" v:mID="13"><path d="M0 643.738h51.024v25.512H0z" class="st1"/></g><g id="shape14-4" transform="translate(17.008 -29.055)" v:groupContext="shape" v:mID="14"><path d="M8.5 669.25z" class="st1"/></g><g id="shape16-8" transform="rotate(90 12.756 682.006)" v:groupContext="shape" v:mID="16"><path d="M0 669.25h550.09" class="st2"/></g><g id="shape12-11" v:groupContext="groupContent" v:mID="12"><v:textBlock v:margins="rect(4,4,4,4)" v:tabSpace="42.52"/><v:textRect width="51.03" height="25.512" cx="25.512" cy="656.494"/><path d="M0 643.738h51.024v25.512H0z" class="st1"/><text x="11.12" y="660.09" class="st3" v:langID="1033"><v:paragraph v:horizAlign="1"/><v:tabList/>hint 1</text></g></g><g id="group57-14" transform="translate(327.985 -367.512)" v:groupContext="group" v:mID="57"><g id="group7-15" transform="translate(0 -220.459)" v:groupContext="group" v:mID="7"><v:userDefs><v:ud v:nameU="visVersion" v:val="VT0(15):26"/><v:ud v:nameU="ShowActor" v:val="VT0(0):5"/><v:ud v:nameU="ShowDestruction" v:val="VT0(0):5"/></v:userDefs><g id="shape8-16" transform="translate(6.77)" v:groupContext="shape" v:mID="8"><path d="M0 643.738h51.024v25.512H0z" class="st1"/></g><g id="shape9-18" transform="translate(23.778 -29.055)" v:groupContext="shape" v:mID="9"><path d="M8.5 669.25z" class="st1"/></g><g id="shape11-22" transform="rotate(90 16.141 685.391)" v:groupContext="shape" v:mID="11"><path d="M0 669.25h550.09" class="st2"/></g><g id="shape7-25" v:groupContext="groupContent" v:mID="7"><v:textBlock v:margins="rect(4,4,4,4)" v:tabSpace="42.52"/><v:textRect width="64.57" height="25.512" cx="32.282" cy="656.494"/><path d="M0 643.738h64.563v25.512H0z" class="st1"/><text x="7.14" y="660.09" class="st3" v:langID="1033"><v:paragraph v:horizAlign="1"/><v:tabList/>connector</text></g></g><g id="shape50-28" transform="rotate(-90 137.784 770.386)" v:groupContext="shape" v:mID="50"><v:userDefs><v:ud v:nameU="visVersion" v:val="VT0(15):26"/></v:userDefs><path d="M0 660.746h338.133v8.504H0z" class="st1"/></g></g><g id="group2-30" transform="translate(218.218 -587.971)" v:groupContext="group" v:mID="2"><v:userDefs><v:ud v:nameU="visVersion" v:val="VT0(15):26"/><v:ud v:nameU="ShowActor" v:val="VT0(0):5"/><v:ud v:nameU="ShowDestruction" v:val="VT0(0):5"/></v:userDefs><g id="shape3-31" v:groupContext="shape" v:mID="3"><path d="M0 643.738h51.024v25.512H0z" class="st1"/></g><g id="shape4-33" transform="translate(17.008 -29.055)" v:groupContext="shape" v:mID="4"><path d="M8.5 669.25z" class="st1"/></g><g id="shape6-37" transform="rotate(90 12.756 682.006)" v:groupContext="shape" v:mID="6"><path d="M0 669.25h551.51" class="st2"/></g><g id="shape2-40" v:groupContext="groupContent" v:mID="2"><v:textBlock v:margins="rect(4,4,4,4)" v:tabSpace="42.52"/><v:textRect width="51.03" height="25.512" cx="25.512" cy="656.494"/><path d="M0 643.738h51.024v25.512H0z" class="st1"/><text x="8.81" y="660.09" class="st3" v:langID="1033"><v:paragraph v:horizAlign="1"/><v:tabList/>Engine</text></g></g><g id="group37-43" transform="translate(136.013 -587.971)" v:groupContext="group" v:mID="37"><v:userDefs><v:ud v:nameU="visVersion" v:val="VT0(15):26"/><v:ud v:nameU="ShowActor" v:val="VT0(0):5"/><v:ud v:nameU="ShowDestruction" v:val="VT0(0):5"/></v:userDefs><g id="shape38-44" v:groupContext="shape" v:mID="38"><path d="M0 643.738h51.024v25.512H0z" class="st1"/></g><g id="shape39-46" transform="translate(17.008 -29.055)" v:groupContext="shape" v:mID="39"><path d="M8.5 669.25z" class="st1"/></g><g id="shape41-50" transform="rotate(90 12.756 682.006)" v:groupContext="shape" v:mID="41"><path d="M0 669.25h551.51" class="st2"/></g><g id="shape37-53" v:groupContext="groupContent" v:mID="37"><v:textBlock v:margins="rect(4,4,4,4)" v:tabSpace="42.52"/><v:textRect width="51.03" height="25.512" cx="25.512" cy="656.494"/><path d="M0 643.738h51.024v25.512H0z" class="st1"/><text x="18.2" y="660.09" class="st3" v:langID="1033"><v:paragraph v:horizAlign="1"/><v:tabList/>CLI</text></g></g><g id="shape48-56" transform="rotate(-89.984 63.847 485.098)" v:groupContext="shape" v:mID="48"><v:userDefs><v:ud v:nameU="visVersion" v:val="VT0(15):26"/></v:userDefs><path d="M0 660.746h362.857v8.504H0z" class="st1"/></g><g id="shape47-58" transform="rotate(-90 62.727 566.2)" v:groupContext="shape" v:mID="47"><v:userDefs><v:ud v:nameU="visVersion" v:val="VT0(15):26"/></v:userDefs><path d="M0 660.746h513.632v8.504H0z" class="st1"/></g><g id="group17-60" transform="translate(515.855 -587.971)" v:groupContext="group" v:mID="17"><v:userDefs><v:ud v:nameU="visVersion" v:val="VT0(15):26"/><v:ud v:nameU="ShowActor" v:val="VT0(0):5"/><v:ud v:nameU="ShowDestruction" v:val="VT0(0):5"/></v:userDefs><g id="shape18-61" v:groupContext="shape" v:mID="18"><path d="M0 643.738h51.024v25.512H0z" class="st1"/></g><g id="shape19-63" transform="translate(17.008 -29.055)" v:groupContext="shape" v:mID="19"><path d="M8.5 669.25z" class="st1"/></g><g id="shape21-67" transform="rotate(90 12.756 682.006)" v:groupContext="shape" v:mID="21"><path d="M0 669.25h552.36" class="st2"/></g><g id="shape17-70" v:groupContext="groupContent" v:mID="17"><v:textBlock v:margins="rect(4,4,4,4)" v:tabSpace="42.52"/><v:textRect width="51.03" height="25.512" cx="25.512" cy="656.494"/><path d="M0 643.738h51.024v25.512H0z" class="st1"/><text x="5.25" y="660.09" class="st3" v:langID="1033"><v:paragraph v:horizAlign="1"/><v:tabList/>parser 1</text></g></g><g id="group22-73" transform="translate(596.643 -587.971)" v:groupContext="group" v:mID="22"><v:userDefs><v:ud v:nameU="visVersion" v:val="VT0(15):26"/><v:ud v:nameU="ShowActor" v:val="VT0(0):5"/><v:ud v:nameU="ShowDestruction" v:val="VT0(0):5"/></v:userDefs><g id="shape23-74" v:groupContext="shape" v:mID="23"><path d="M0 643.738h51.024v25.512H0z" class="st1"/></g><g id="shape24-76" transform="translate(17.008 -29.055)" v:groupContext="shape" v:mID="24"><path d="M8.5 669.25z" class="st1"/></g><g id="shape26-80" transform="rotate(90 12.756 682.006)" v:groupContext="shape" v:mID="26"><path d="M0 669.25h552.36" class="st2"/></g><g id="shape22-83" v:groupContext="groupContent" v:mID="22"><v:textBlock v:margins="rect(4,4,4,4)" v:tabSpace="42.52"/><v:textRect width="51.03" height="25.512" cx="25.512" cy="656.494"/><path d="M0 643.738h51.024v25.512H0z" class="st1"/><text x="11.12" y="660.09" class="st3" v:langID="1033"><v:paragraph v:horizAlign="1"/><v:tabList/>hint 2</text></g></g><g id="group32-86" transform="translate(668.142 -587.971)" v:groupContext="group" v:mID="32"><v:userDefs><v:ud v:nameU="visVersion" v:val="VT0(15):26"/><v:ud v:nameU="ShowActor" v:val="VT0(0):5"/><v:ud v:nameU="ShowDestruction" v:val="VT0(0):5"/></v:userDefs><g id="shape33-87" transform="translate(6.77)" v:groupContext="shape" v:mID="33"><path d="M0 643.738h51.024v25.512H0z" class="st1"/></g><g id="shape34-89" transform="translate(23.778 -29.055)" v:groupContext="shape" v:mID="34"><path d="M8.5 669.25z" class="st1"/></g><g id="shape36-93" transform="rotate(90 16.141 685.391)" v:groupContext="shape" v:mID="36"><path d="M0 669.25h551.51" class="st2"/></g><g id="shape32-96" v:groupContext="groupContent" v:mID="32"><v:textBlock v:margins="rect(4,4,4,4)" v:tabSpace="42.52"/><v:textRect width="64.57" height="25.512" cx="32.282" cy="656.494"/><path d="M0 643.738h64.563v25.512H0z" class="st1"/><text x="7.87" y="660.09" class="st3" v:langID="1033"><v:paragraph v:horizAlign="1"/><v:tabList/>formatter</text></g></g><g id="shape42-99" transform="translate(158.69 -536.947)" v:groupContext="shape" v:layerMember="0" v:mID="42"><v:userDefs><v:ud v:nameU="IsReturn" v:val="VT0(0):5"/><v:ud v:nameU="IsAsync" v:val="VT0(0):26"/><v:ud v:nameU="IsSelfMessage" v:val="VT0(1):5"/><v:ud v:nameU="visVersion" v:val="VT0(15):26"/></v:userDefs><v:textBlock v:margins="rect(4,4,4,4)" v:tabSpace="42.52"/><v:textRect width="81.11" height="27.203" cx="7.087" cy="686.258"/><path d="M7.09 669.25h18v34.02H15.07" class="st4"/><path d="M-28.561 676.658h71.296v19.2h-71.296z" class="st6" v:rectContext="textBkgnd"/><text x="-15.16" y="683.86" class="st7" v:langID="1033"><v:paragraph v:horizAlign="1"/><v:tabList/>Configuration<v:newlineChar/><tspan x="-28.56" class="st8" dy="1.2em">(hidden for simplicity)</tspan></text></g><g id="shape43-108" transform="translate(43.887 -546.785)" v:groupContext="shape" v:layerMember="0" v:mID="43"><v:userDefs><v:ud v:nameU="IsReturn" v:val="VT0(0):5"/><v:ud v:nameU="IsAsync" v:val="VT0(0):26"/><v:ud v:nameU="IsSelfMessage" v:val="VT0(0):5"/><v:ud v:nameU="visVersion" v:val="VT0(15):26"/></v:userDefs><v:textBlock v:margins="rect(4,4,4,4)" v:tabSpace="42.52"/><v:textRect width="93.46" height="17.604" cx="58.819" cy="662.164"/><path d="M0 662.25l109.66-.16" class="st4"/><path d="M16.997 657.364h83.643v9.6H16.997z" class="st6" v:rectContext="textBkgnd"/><text x="17" y="664.56" class="st7" v:langID="1033"><v:paragraph v:horizAlign="1"/><v:tabList/>hint https://example.com</text></g><g id="shape44-115" transform="translate(165.777 -476.014)" v:groupContext="shape" v:layerMember="0" v:mID="44"><v:userDefs><v:ud v:nameU="IsReturn" v:val="VT0(0):5"/><v:ud v:nameU="IsAsync" v:val="VT0(1):26"/><v:ud v:nameU="IsSelfMessage" v:val="VT0(0):5"/><v:ud v:nameU="visVersion" v:val="VT0(15):26"/></v:userDefs><v:textBlock v:margins="rect(4,4,4,4)" v:tabSpace="42.52"/><v:textRect width="44.99" height="17.604" cx="36.901" cy="662.164"/><path d="M0 662.18l73.8-.03" class="st9"/><path d="M19.316 657.364h35.171v9.6H19.316z" class="st6" v:rectContext="textBkgnd"/><text x="19.32" y="664.56" class="st7" v:langID="1033"><v:paragraph v:horizAlign="1"/><v:tabList/>executeOn</text></g><g id="shape45-123" transform="translate(248.078 -459.327)" v:groupContext="shape" v:layerMember="0" v:mID="45"><v:userDefs><v:ud v:nameU="IsReturn" v:val="VT0(0):5"/><v:ud v:nameU="IsAsync" v:val="VT0(1):26"/><v:ud v:nameU="IsSelfMessage" v:val="VT0(0):5"/><v:ud v:nameU="visVersion" v:val="VT0(15):26"/></v:userDefs><v:textBlock v:margins="rect(4,4,4,4)" v:tabSpace="42.52"/><v:textRect width="40" height="17.604" cx="54.026" cy="662.164"/><path d="M0 662.47l108.05-.62" class="st9"/><path d="M43.368 657.364h21.316v9.6H43.368z" class="st6" v:rectContext="textBkgnd"/><text x="43.37" y="664.56" class="st7" v:langID="1033"><v:paragraph v:horizAlign="1"/><v:tabList/>collect</text></g><g id="shape46-130" transform="translate(239.477 -113.794)" v:groupContext="shape" v:layerMember="0" v:mID="46"><v:userDefs><v:ud v:nameU="IsReturn" v:val="VT0(1):5"/><v:ud v:nameU="IsAsync" v:val="VT0(0):26"/><v:ud v:nameU="IsSelfMessage" v:val="VT0(0):5"/><v:ud v:nameU="visVersion" v:val="VT0(15):26"/></v:userDefs><v:textBlock v:margins="rect(4,4,4,4)" v:tabSpace="42.52"/><v:textRect width="40" height="17.604" cx="-36.85" cy="662.164"/><path d="M0 662.79l-73.7-1.25" class="st10"/><path d="M-48.745 657.364h23.789v9.6h-23.789z" class="st6" v:rectContext="textBkgnd"/><text x="-48.74" y="664.56" class="st7" v:langID="1033"><v:paragraph v:horizAlign="1"/><v:tabList/>reports</text></g><g id="shape49-137" transform="translate(356.129 -456.492)" v:groupContext="shape" v:layerMember="0" v:mID="49"><v:userDefs><v:ud v:nameU="IsReturn" v:val="VT0(1):5"/><v:ud v:nameU="IsAsync" v:val="VT0(0):26"/><v:ud v:nameU="IsSelfMessage" v:val="VT0(0):5"/><v:ud v:nameU="visVersion" v:val="VT0(15):26"/></v:userDefs><v:textBlock v:margins="rect(4,4,4,4)" v:tabSpace="42.52"/><v:textRect width="67.33" height="17.604" cx="-54.028" cy="676.337"/><path d="M0 676.03l-108.06.62" class="st10"/><path d="M-82.783 671.537h57.511v9.6h-57.511z" class="st11" v:rectContext="textBkgnd"/><text x="-82.78" y="678.74" class="st7" v:langID="1033"><v:paragraph v:horizAlign="1"/><v:tabList/>on(&quot;eventName&quot;)</text></g><g id="group51-144" transform="translate(18.375 -587.804)" v:groupContext="group" v:mID="51"><v:userDefs><v:ud v:nameU="visVersion" v:val="VT0(15):26"/><v:ud v:nameU="ShowActor" v:val="VT0(1):5"/><v:ud v:nameU="ShowDestruction" v:val="VT0(0):5"/></v:userDefs><g id="shape52-145" v:groupContext="shape" v:mID="52"><path d="M0 643.738h51.024v25.512H0z" class="st1"/></g><g id="shape53-147" transform="translate(17.008 -29.055)" v:groupContext="shape" v:mID="53"><path d="M3.4 669.25v-17.01 6.81H0v-13.61l1.7-1.7h13.61l1.7 1.7v13.61h-3.4v-6.81 17.01H8.5v-13.61 13.61H3.4zm8.51-30.61a3.402 3.402-180 1 0-6.81 0 3.402 3.402-180 1 0 6.81 0z" class="st1"/></g><g id="shape55-151" transform="rotate(90 12.756 682.006)" v:groupContext="shape" v:mID="55"><path d="M0 669.25h551.34" class="st2"/></g><g id="shape51-154" v:groupContext="groupContent" v:mID="51"><v:textBlock v:margins="rect(4,4,4,4)" v:tabSpace="42.52"/><v:textRect width="51.03" height="25.512" cx="25.512" cy="656.494"/><path d="M0 643.738h51.024v25.512H0z" class="st1"/><text x="14.05" y="660.09" class="st3" v:langID="1033"><v:paragraph v:horizAlign="1"/><v:tabList/>User</text></g></g><g id="shape58-157" transform="translate(248.068 -426.146)" v:groupContext="shape" v:layerMember="0" v:mID="58"><v:userDefs><v:ud v:nameU="IsReturn" v:val="VT0(0):5"/><v:ud v:nameU="IsAsync" v:val="VT0(1):26"/><v:ud v:nameU="IsSelfMessage" v:val="VT0(0):5"/><v:ud v:nameU="visVersion" v:val="VT0(15):26"/></v:userDefs><v:textBlock v:margins="rect(4,4,4,4)" v:tabSpace="42.52"/><v:textRect width="66.29" height="17.851" cx="100.546" cy="662.164"/><path d="M0 663.31l201.09-2.29" class="st9"/><path d="M72.31 657.24h56.472v9.847H72.31z" class="st6" v:rectContext="textBkgnd"/><text x="72.31" y="664.63" class="st12" v:langID="1033"><v:paragraph v:horizAlign="1"/><v:tabList/>⚡<tspan class="st13"> </tspan><tspan class="st13">&quot;eventName&quot;</tspan></text></g><g id="shape59-166" transform="rotate(-90 45.203 256.789)" v:groupContext="shape" v:mID="59"><v:userDefs><v:ud v:nameU="visVersion" v:val="VT0(15):26"/></v:userDefs><path d="M0 660.746h67.12v8.504H0z" class="st1"/></g><g id="shape60-168" transform="translate(450.577 -417.371)" v:groupContext="shape" v:layerMember="0" v:mID="60"><v:userDefs><v:ud v:nameU="IsReturn" v:val="VT0(0):5"/><v:ud v:nameU="IsAsync" v:val="VT0(0):26"/><v:ud v:nameU="IsSelfMessage" v:val="VT0(1):5"/><v:ud v:nameU="visVersion" v:val="VT0(15):26"/></v:userDefs><v:textBlock v:margins="rect(4,4,4,4)" v:tabSpace="42.52"/><v:textRect width="64.2" height="17.604" cx="7.087" cy="686.258"/><path d="M7.09 669.25h18v34.02H15.07" class="st4"/><path d="M-20.102 681.458h54.379v9.6h-54.379z" class="st11" v:rectContext="textBkgnd"/><text x="-20.1" y="688.66" class="st7" v:langID="1033"><v:paragraph v:horizAlign="1"/><v:tabList/>Analyze for hints</text></g><g id="shape61-175" transform="translate(448.026 -374.067)" v:groupContext="shape" v:layerMember="0" v:mID="61"><v:userDefs><v:ud v:nameU="IsReturn" v:val="VT0(1):5"/><v:ud v:nameU="IsAsync" v:val="VT0(0):26"/><v:ud v:nameU="IsSelfMessage" v:val="VT0(0):5"/><v:ud v:nameU="visVersion" v:val="VT0(15):26"/></v:userDefs><v:textBlock v:margins="rect(4,4,4,4)" v:tabSpace="42.52"/><v:textRect width="48.25" height="17.604" cx="-99.972" cy="676.337"/><path d="M0 676.06l-199.94.56" class="st10"/><path d="M-119.188 671.537h38.433v9.6h-38.433z" class="st11" v:rectContext="textBkgnd"/><text x="-119.19" y="678.74" class="st7" v:langID="1033"><v:paragraph v:horizAlign="1"/><v:tabList/>report(hint)</text></g><g id="shape72-182" transform="translate(356.129 -335.21)" v:groupContext="shape" v:layerMember="0" v:mID="72"><v:userDefs><v:ud v:nameU="IsReturn" v:val="VT0(1):5"/><v:ud v:nameU="IsAsync" v:val="VT0(0):26"/><v:ud v:nameU="IsSelfMessage" v:val="VT0(0):5"/><v:ud v:nameU="visVersion" v:val="VT0(15):26"/></v:userDefs><v:textBlock v:margins="rect(4,4,4,4)" v:tabSpace="42.52"/><v:textRect width="95.73" height="17.604" cx="-54.023" cy="662.164"/><path d="M0 663.27l-108.05-2.21" class="st10"/><path d="M-96.978 657.364h85.909v9.6h-85.909z" class="st11" v:rectContext="textBkgnd"/><text x="-96.98" y="664.56" class="st7" v:langID="1033"><v:paragraph v:horizAlign="1"/><v:tabList/>on(&quot;resourceEventName&quot;)</text></g><g id="shape62-189" transform="translate(248.037 -315.064)" v:groupContext="shape" v:layerMember="0" v:mID="62"><v:userDefs><v:ud v:nameU="IsReturn" v:val="VT0(0):5"/><v:ud v:nameU="IsAsync" v:val="VT0(1):26"/><v:ud v:nameU="IsSelfMessage" v:val="VT0(0):5"/><v:ud v:nameU="visVersion" v:val="VT0(15):26"/></v:userDefs><v:textBlock v:margins="rect(4,4,4,4)" v:tabSpace="42.52"/><v:textRect width="94.69" height="17.851" cx="144.755" cy="662.164"/><path d="M0 662.78l289.51-1.23" class="st9"/><path d="M102.32 657.24h84.87v9.847h-84.87z" class="st11" v:rectContext="textBkgnd"/><text x="102.32" y="664.63" class="st12" v:langID="1033"><v:paragraph v:horizAlign="1"/><v:tabList/>⚡<tspan class="st13"> </tspan><tspan class="st13">&quot;resourceEventName&quot;</tspan></text></g><g id="shape63-198" transform="rotate(-90 148.494 271.692)" v:groupContext="shape" v:mID="63"><v:userDefs><v:ud v:nameU="visVersion" v:val="VT0(15):26"/></v:userDefs><path d="M0 660.746h73.701v8.504H0z" class="st1"/></g><g id="shape64-200" transform="translate(538.964 -305.757)" v:groupContext="shape" v:layerMember="0" v:mID="64"><v:userDefs><v:ud v:nameU="IsReturn" v:val="VT0(0):5"/><v:ud v:nameU="IsAsync" v:val="VT0(0):26"/><v:ud v:nameU="IsSelfMessage" v:val="VT0(1):5"/><v:ud v:nameU="visVersion" v:val="VT0(15):26"/></v:userDefs><v:textBlock v:margins="rect(4,4,4,4)" v:tabSpace="42.52"/><v:textRect width="65.36" height="17.604" cx="7.087" cy="686.258"/><path d="M7.09 669.25h18v34.02H15.07" class="st4"/><path d="M-20.684 681.458h55.542v9.6h-55.542z" class="st6" v:rectContext="textBkgnd"/><text x="-20.68" y="688.66" class="st7" v:langID="1033"><v:paragraph v:horizAlign="1"/><v:tabList/>Analyze resource</text></g><g id="shape65-207" transform="translate(537.547 -258.707)" v:groupContext="shape" v:layerMember="0" v:mID="65"><v:userDefs><v:ud v:nameU="IsReturn" v:val="VT0(1):5"/><v:ud v:nameU="IsAsync" v:val="VT0(0):26"/><v:ud v:nameU="IsSelfMessage" v:val="VT0(0):5"/><v:ud v:nameU="visVersion" v:val="VT0(15):26"/></v:userDefs><v:textBlock v:margins="rect(4,4,4,4)" v:tabSpace="42.52"/><v:textRect width="87.98" height="17.604" cx="-144.765" cy="676.337"/><path d="M0 676.06l-289.53.55" class="st10"/><path d="M-183.844 671.537h78.159v9.6h-78.159z" class="st6" v:rectContext="textBkgnd"/><text x="-183.84" y="678.74" class="st7" v:langID="1033"><v:paragraph v:horizAlign="1"/><v:tabList/>on(&quot;parserEventName&quot;)</text></g><g id="shape66-214" transform="translate(248.003 -221.659)" v:groupContext="shape" v:layerMember="0" v:mID="66"><v:userDefs><v:ud v:nameU="IsReturn" v:val="VT0(0):5"/><v:ud v:nameU="IsAsync" v:val="VT0(1):26"/><v:ud v:nameU="IsSelfMessage" v:val="VT0(0):5"/><v:ud v:nameU="visVersion" v:val="VT0(15):26"/></v:userDefs><v:textBlock v:margins="rect(4,4,4,4)" v:tabSpace="42.52"/><v:textRect width="86.94" height="17.851" cx="184.95" cy="662.164"/><path d="M0 662.64l369.9-.95" class="st9"/><path d="M146.389 657.24h77.121v9.847h-77.121z" class="st6" v:rectContext="textBkgnd"/><text x="146.39" y="664.63" class="st12" v:langID="1033"><v:paragraph v:horizAlign="1"/><v:tabList/>⚡<tspan class="st13"> </tspan><tspan class="st13">&quot;parserEventName&quot;</tspan></text></g><g id="shape67-223" transform="rotate(-90 235.443 278.286)" v:groupContext="shape" v:mID="67"><v:userDefs><v:ud v:nameU="visVersion" v:val="VT0(15):26"/></v:userDefs><path d="M0 660.746h73.701v8.504H0z" class="st1"/></g><g id="shape68-225" transform="translate(619.32 -212.214)" v:groupContext="shape" v:layerMember="0" v:mID="68"><v:userDefs><v:ud v:nameU="IsReturn" v:val="VT0(0):5"/><v:ud v:nameU="IsAsync" v:val="VT0(0):26"/><v:ud v:nameU="IsSelfMessage" v:val="VT0(1):5"/><v:ud v:nameU="visVersion" v:val="VT0(15):26"/></v:userDefs><v:textBlock v:margins="rect(4,4,4,4)" v:tabSpace="42.52"/><v:textRect width="64.2" height="17.604" cx="7.087" cy="686.258"/><path d="M7.09 669.25h18v34.02H15.07" class="st4"/><path d="M-20.102 681.458h54.379v9.6h-54.379z" class="st6" v:rectContext="textBkgnd"/><text x="-20.1" y="688.66" class="st7" v:langID="1033"><v:paragraph v:horizAlign="1"/><v:tabList/>Analyze for hints</text></g><g id="shape71-232" transform="translate(617.903 -164.303)" v:groupContext="shape" v:layerMember="0" v:mID="71"><v:userDefs><v:ud v:nameU="IsReturn" v:val="VT0(1):5"/><v:ud v:nameU="IsAsync" v:val="VT0(0):26"/><v:ud v:nameU="IsSelfMessage" v:val="VT0(0):5"/><v:ud v:nameU="visVersion" v:val="VT0(15):26"/></v:userDefs><v:textBlock v:margins="rect(4,4,4,4)" v:tabSpace="42.52"/><v:textRect width="48.25" height="17.604" cx="-184.91" cy="676.337"/><path d="M0 675.2l-369.82 2.28" class="st10"/><path d="M-204.127 671.537h38.433v9.6h-38.433z" class="st6" v:rectContext="textBkgnd"/><text x="-204.13" y="678.74" class="st7" v:langID="1033"><v:paragraph v:horizAlign="1"/><v:tabList/>report(hint)</text></g><g id="shape75-239" transform="translate(356.016 -135.367)" v:groupContext="shape" v:layerMember="0" v:mID="75"><v:userDefs><v:ud v:nameU="IsReturn" v:val="VT0(1):5"/><v:ud v:nameU="IsAsync" v:val="VT0(0):26"/><v:ud v:nameU="IsSelfMessage" v:val="VT0(0):5"/><v:ud v:nameU="visVersion" v:val="VT0(15):26"/></v:userDefs><v:textBlock v:margins="rect(4,4,4,4)" v:tabSpace="42.52"/><v:textRect width="81.48" height="46.404" cx="-54.014" cy="676.337"/><path d="M0 676.02l-108.03.63" class="st10"/><path d="M-89.846 657.137h71.663v38.399h-71.663z" class="st6" v:rectContext="textBkgnd"/><text x="-89.85" y="664.34" class="st7" v:langID="1033"><v:paragraph v:horizAlign="1"/><v:tabList/>collect() returns when<v:lf/><tspan x="-62.49" class="st8" dy="1.2em">all its<v:lf/></tspan><tspan x="-74.43" class="st8" dy="1.2em"> </tspan>events have<v:lf/><tspan x="-75.98" class="st8" dy="1.2em">been emitted</tspan></text></g><g id="shape77-249" transform="translate(165.777 -95.576)" v:groupContext="shape" v:layerMember="0" v:mID="77"><v:userDefs><v:ud v:nameU="IsReturn" v:val="VT0(0):5"/><v:ud v:nameU="IsAsync" v:val="VT0(1):26"/><v:ud v:nameU="IsSelfMessage" v:val="VT0(0):5"/><v:ud v:nameU="visVersion" v:val="VT0(15):26"/></v:userDefs><v:textBlock v:margins="rect(4,4,4,4)" v:tabSpace="42.52"/><v:textRect width="60.81" height="17.604" cx="265.198" cy="662.164"/><path d="M0 662.75l530.4-1.17" class="st9"/><path d="M239.702 657.364h50.992v9.6h-50.992z" class="st6" v:rectContext="textBkgnd"/><text x="239.7" y="664.56" class="st7" v:langID="1033"><v:paragraph v:horizAlign="1"/><v:tabList/>format(reports)</text></g><g id="shape78-256" transform="rotate(-90 327.644 292.218)" v:groupContext="shape" v:mID="78"><v:userDefs><v:ud v:nameU="visVersion" v:val="VT0(15):26"/></v:userDefs><path d="M0 660.746h53.858v8.504H0z" class="st1"/></g><g id="shape79-258" transform="translate(697.589 -94.232)" v:groupContext="shape" v:layerMember="0" v:mID="79"><v:userDefs><v:ud v:nameU="IsReturn" v:val="VT0(0):5"/><v:ud v:nameU="IsAsync" v:val="VT0(0):26"/><v:ud v:nameU="IsSelfMessage" v:val="VT0(1):5"/><v:ud v:nameU="visVersion" v:val="VT0(15):26"/></v:userDefs><v:textBlock v:margins="rect(4,4,4,4)" v:tabSpace="42.52"/><v:textRect width="75.21" height="36.803" cx="7.087" cy="686.258"/><path d="M7.09 669.25h18v34.02H15.07" class="st4"/><path d="M-25.608 671.858h65.39v28.8h-65.39z" class="st6" v:rectContext="textBkgnd"/><text x="-25.61" y="679.06" class="st7" v:langID="1033"><v:paragraph v:horizAlign="1"/><v:tabList/>print on the console<v:lf/><tspan x="-14.8" class="st8" dy="1.2em">write an html<v:lf/></tspan><tspan x="4.06" class="st8" dy="1.2em">...</tspan></text></g><g id="shape80-267" transform="translate(690.186 -59.143)" v:groupContext="shape" v:layerMember="0" v:mID="80"><v:userDefs><v:ud v:nameU="IsReturn" v:val="VT0(1):5"/><v:ud v:nameU="IsAsync" v:val="VT0(0):26"/><v:ud v:nameU="IsSelfMessage" v:val="VT0(0):5"/><v:ud v:nameU="visVersion" v:val="VT0(15):26"/></v:userDefs><path d="M0 674.92l-524.41 2.83" class="st10"/></g><g id="shape81-272" transform="translate(157.273 -50.722)" v:groupContext="shape" v:layerMember="0" v:mID="81"><v:userDefs><v:ud v:nameU="IsReturn" v:val="VT0(1):5"/><v:ud v:nameU="IsAsync" v:val="VT0(0):26"/><v:ud v:nameU="IsSelfMessage" v:val="VT0(0):5"/><v:ud v:nameU="visVersion" v:val="VT0(15):26"/></v:userDefs><v:textBlock v:margins="rect(4,4,4,4)" v:tabSpace="42.52"/><v:textRect width="40" height="17.604" cx="-56.693" cy="676.337"/><path d="M0 676.25l-113.39.17" class="st10"/><path d="M-71.007 671.537h28.628v9.6h-28.628z" class="st6" v:rectContext="textBkgnd"/><text x="-71.01" y="678.74" class="st7" v:langID="1033"><v:paragraph v:horizAlign="1"/><v:tabList/>exitCode</text></g></g></svg>