<svg xmlns="http://www.w3.org/2000/svg" viewBox="0 0 202 39.5"><style>.a{fill:#fff}</style><path d="M19.8 0C8.8 0 0 8.8 0 19.8s8.8 19.8 19.8 19.8 19.8-8.8 19.8-19.8C39.5 8.8 30.7 0 19.8 0zm17.4 19.8c0 9.6-7.8 17.5-17.5 17.5S2.3 29.4 2.3 19.7c0-9.6 7.8-17.5 17.5-17.5 9.6.1 17.4 7.9 17.4 17.6z" class="a"/><path d="M29.4 15.2L30 14l1.9-3.1-4.4 2.6c-.1.1-.2.1-.3.2-.5.5-.5 1.4 0 1.9.2.2.4.3.6.3.5.1 1 0 1.3-.3.1-.1.2-.2.3-.4z" class="a"/><path d="M28.8 16.9c-.3.1-.5.1-.8.1-1.2 0-2.2-1-2.2-2.2 0-.2 0-.5.1-.7-1.1-.7-2.4-1-3.6-.9-6.8 0-7.9 3.2-7.9 7.2.1 1 0 2-.5 2.9-.5.9-1.5 1.5-2.5 1.4-.4 0-1.9-.3-2-.7h.2c1.6 0 2.9-1.3 2.9-3v-.8h-1.4c-1 0-1.9.5-2.5 1.3C8 20.8 7 20.3 6 20.3H4.6v.6C4.6 22.6 6 24 7.8 24h.5c0 1 1.4 5 11.7 5 4 0 10-.7 10-8.3-.1-1.3-.5-2.7-1.2-3.8zm28.6 15.4l-6.3-16.7c-.3-.7.1-1.2.8-1.2h.9c.5-.1 1 .3 1.2.8l5.2 14.1 4.5-13.4c.1-.5.6-.8 1.1-.8h.8c.5 0 1 .3 1.1.8l4.5 13.4 5.2-14c.1-.5.6-.9 1.1-.8h.9c.8 0 1.1.5.8 1.2l-6.3 16.7c-.1.5-.6.9-1.2.8h-1c-.5 0-1-.3-1.1-.8l-4.5-13.2-4.4 13.2c-.1.5-.6.9-1.1.8h-1c-.6-.1-1.1-.4-1.2-.9zm24.2-8.5c0-5.4 4.3-9.8 9.7-9.9h.3c4.6 0 8.9 2.7 9.3 8.8.1.6-.3 1-1 1H84.5c-.3 4.2 3 7.3 7.6 7.3 2 0 4-.6 5.6-1.9.4-.3 1-.3 1.4.1l.3.3c.4.4.4 1 0 1.4l-.2.2c-2 1.6-4.5 2.5-7.1 2.4-6.4 0-10.5-4.4-10.5-9.7zm16.5-2.3c-.5-3.1-3.3-5.2-6.4-5a7 7 0 00-7 5h13.4zm10.1 7.9v2.7c0 .5-.3 1-.9 1h-1c-.5 0-1-.3-1-.8V7c0-.5.3-1 .8-1h1.1c.5 0 1 .3 1 .8V18c1.5-2.6 4.3-4.2 7.3-4.1 5.7 0 9.4 4.4 9.4 9.8s-3.7 9.8-9.4 9.8c-3 .1-5.8-1.5-7.3-4.1zm13.8-5.6c0-4-2.5-7.3-6.8-7.3-3.8-.1-7 2.9-7.1 6.7v.5c-.2 3.8 2.8 7 6.6 7.2h.5c4.3.1 6.8-3.2 6.8-7.1zm7.6 8.3V7c0-.5.3-1 .8-1h1.1c.5 0 1 .3 1 .9v11.5c1-2.7 3.7-4.5 6.6-4.4 4 0 7.4 2.3 7.4 8.5v9.6c0 .5-.3 1-.9 1h-1c-.5 0-1-.3-1-.9v-9.7c0-4.5-2.4-6-4.7-6-2.1 0-6.3 1.5-6.3 7.5v8.1c0 .5-.3 1-.9 1h-1c-.5.1-1-.3-1.1-.8v-.2zm22-24c-.1-1.1.8-2.1 1.9-2.1h.2c1.1 0 2.1.9 2.1 2v.1c0 1.1-.9 2.1-2 2.1h-.1c-1.1 0-2-.8-2.1-1.9v-.2zm.7 24V15.4c0-.5.4-1 .9-1h1c.5-.1.9.3 1 .8v16.9c.1.5-.3.9-.8 1h-1.1c-.5 0-1-.3-1-.9-.1 0-.1-.1 0-.1zm9 0V15.4c0-.5.3-1 .9-1h1c.5 0 1 .3 1 .9v3.1c1-2.7 3.6-4.5 6.5-4.4 4 0 7.4 2.3 7.4 8.5v9.6c0 .5-.3 1-.9 1h-1c-.5 0-1-.3-1-.9v-9.8c0-4.5-2.4-6-4.7-6-2.1 0-6.3 1.5-6.3 7.5V32c0 .5-.3 1-.9 1h-1c-.5.1-1-.3-1-.8v-.1zm23.2-4.9V16.7h-2.6c-.4 0-.6-.2-.6-.6V15c0-.3.2-.6.4-.6h2.8l.6-4.8c0-.5.4-.9.9-.8h.5c.4-.1.8.3.9.7v5h5.4c.3 0 .6.2.6.5v1.2c0 .3-.2.6-.5.6h-5.5v10.8c0 2.7 1.3 3.6 2.7 3.6 1.4.1 2.5-.9 2.7-2.2v-.2c0-.2 0-.5-.1-.7 0-.5.1-.7.5-.7h1.3c.3 0 .6.2.7.5.1.4.1.8.1 1.2 0 2.6-1.8 4.6-5.3 4.6-2.8-.2-5.5-1.5-5.5-6.5z" class="a"/></svg>
