<svg xmlns="http://www.w3.org/2000/svg" viewBox="0 0 60 72"><path fill="#acadda" d="M10.1 26.3L7 23.2c-3.7 4-5.8 9.2-6.1 14.6h4.3c.4-4.2 2.1-8.3 4.9-11.5zM23.2 20v-4.3c-5.4.2-10.6 2.4-14.6 6l3.1 3.1A18 18 0 0 1 23.2 20zm2.1 37.8v4.3c5.4-.2 10.6-2.4 14.6-6L36.8 53a18.3 18.3 0 0 1-11.5 4.8zm-13.7-4.7l-3.1 3.1c4 3.7 9.2 5.8 14.6 6v-4.3c-4.2-.3-8.3-2-11.5-4.8zM5.3 40H1c.2 5.4 2.4 10.6 6 14.6l3.1-3.1A19.5 19.5 0 0 1 5.3 40zm37.9 0c-.2 4.3-1.9 8.3-4.8 11.5l3.1 3.1c3.7-4 5.8-9.2 6-14.6h-4.3z"/><path fill="#2d28a1" d="M29.5 29.4V9.8h-4.3v19.6h-2.6l4.7 8.2 4.7-8.2h-2.5zm29.1 5.7l-8.2-4.7V33H32.6v4.3h17.8v2.6l8.2-4.8z"/></svg>