<svg xmlns="http://www.w3.org/2000/svg" viewBox="0 0 360.3 71.8"><path fill="#0071ce" d="M92.8 61.5a3 3 0 0 1-2.8-2c-.5-1.5.3-3.2 1.9-3.7 5.6-1.8 9.2-6.8 9.2-12.5 0-7.3-6-13.3-13.3-13.3-.5 0-1.1 0-1.7.1l-2.9.4-.4-2.9a25.37 25.37 0 0 0-25-21.7 25.2 25.2 0 0 0-23.4 15.8l-.7 1.8h-1.9c-8.9.2-16.2 7.6-16.2 16.5 0 6.5 3.8 12.5 9.6 15.1 1.5.7 2.1 2.4 1.5 3.9-.7 1.5-2.4 2.1-3.9 1.5A22.48 22.48 0 0 1 9.5 40c0-11.5 8.8-21.1 20.1-22.3A31.24 31.24 0 0 1 57.8 0c14.5 0 27.1 10.2 30.4 24.1 10.4.2 18.9 8.7 18.9 19.2 0 8.3-5.3 15.5-13.3 18.1-.4.1-.7.1-1 .1z"/><path fill="#dc8327" d="M47.7 62.9c-.1 0-.1 0 0 0-.1 0-.1 0 0 0-.1 0-.1 0 0 0-.1 0-.1 0 0 0h-.2c-1.3 0-2.3-1-2.3-2.3v-26h2c.3 0 .5-.2.5-.5 0-.2-.1-.4-.3-.5L37.8 27c-.2-.1-.4-.1-.6 0l-9.6 6.6c-.2.1-.3.4-.2.6.1.2.3.4.5.4h2v26c0 1.8 1.5 3.3 3.3 3.3h14.4c.1 0 .3-.1.3-.1.1-.1.1-.2.1-.3 0-.3-.2-.5-.3-.6z"/><path fill="#f4b21b" d="M68.3 62.9h-.2c-1.3 0-2.3-1-2.3-2.3V40.4h2c.3 0 .5-.2.5-.5 0-.2-.1-.4-.3-.5l-9.6-6.6c-.2-.1-.4-.1-.6 0l-9.6 6.6c-.1.2-.2.4-.2.6s.3.4.5.4h2v20.2c0 1.8 1.5 3.3 3.3 3.3h14.4c.1 0 .3-.1.3-.1.1-.1.1-.2.1-.3 0-.3-.1-.5-.3-.6z"/><path fill="#f2d864" d="M89 62.9h-.2c-1.3 0-2.3-1-2.3-2.3V46.2h2c.3 0 .5-.2.5-.5 0-.2-.1-.4-.3-.5l-9.6-6.6c-.2-.1-.4-.1-.6 0l-9.6 6.6c-.2.1-.3.4-.2.6s.3.4.5.4h2v14.3c0 1.8 1.5 3.3 3.3 3.3h14.4c.1 0 .3-.1.3-.1.1-.1.1-.2.1-.3 0-.2-.1-.4-.3-.5z"/><path fill="#0e2f5a" d="M181.7 40.9c-1-1.1-2.3-2-3.9-2.6a15.27 15.27 0 0 0-10.8 0c-1.5.6-2.8 1.5-3.9 2.6-1.1 1.2-1.8 2.5-2.4 4-.5 1.5-.8 3.2-.8 5 0 1.4.1 2.7.4 3.9.3 1.2.7 2.4 1.3 3.5.6 1 1.4 2 2.3 2.7.9.8 2.1 1.4 3.5 1.8 1.4.4 3 .7 4.8.7 1.8 0 3.5-.2 4.8-.7 1.4-.4 2.5-1 3.5-1.8.9-.8 1.7-1.7 2.3-2.7.6-1.1 1-2.2 1.3-3.5.3-1.2.4-2.5.4-3.9 0-1.8-.3-3.5-.8-5a8 8 0 0 0-2-4zM178.5 53c-.2 1-.6 1.9-1.1 2.7-.5.8-1.2 1.4-2 1.9s-1.8.7-2.9.7c-1.1 0-2.1-.2-2.9-.7-.8-.5-1.5-1.1-2-1.9-.5-.8-.9-1.7-1.1-2.7-.2-1-.4-2-.4-3.2 0-1.2.1-2.3.4-3.3.2-1 .6-1.9 1.2-2.7.5-.8 1.2-1.4 2-1.8.8-.4 1.8-.6 2.9-.7 1.1 0 2.1.2 2.9.7.8.4 1.5 1 2 1.8s.9 1.7 1.2 2.7c.2 1 .4 2.1.4 3.3-.3 1.2-.4 2.3-.6 3.2zm21.8 9c1-.4 1.9-.9 2.6-1.5.8-.6 1.5-1.4 2.1-2.2l.1-.2h.7l.1.5v.9c0 .6.1 1.2.3 1.7.2.4.5.7.8 1 .4.2.9.4 1.5.4s1.1-.1 1.5-.4c.4-.2.7-.6.8-1 .2-.5.3-1 .3-1.6V40.3c0-.6-.1-1.1-.3-1.6-.2-.4-.4-.8-.9-1-.4-.3-1.1-.4-1.9-.4-.8 0-1.4.1-1.8.4-.4.3-.7.6-.9 1-.2.5-.3 1-.3 1.6v11.5c0 1-.2 1.8-.5 2.5s-.8 1.4-1.4 1.9c-.6.5-1.2.9-1.9 1.2-.7.3-1.4.4-2 .4-1.1 0-2-.2-2.7-.7-.7-.5-1.3-1.1-1.6-1.9-.3-.8-.5-1.7-.5-2.7V40.3c0-.6-.1-1.1-.3-1.6-.2-.4-.5-.8-.9-1-.4-.3-1.1-.4-1.9-.4-.8 0-1.4.1-1.9.4-.4.3-.7.6-.9 1-.2.5-.3 1-.3 1.5v13.6c0 1.7.3 3.1.7 4.2.5 1.1 1.1 2 1.9 2.6.8.7 1.7 1.1 2.7 1.4 1 .3 1.9.4 2.9.4h.1c1.7.1 2.8-.1 3.8-.4zm-45.9-33.8c-.5-.2-1-.3-1.6-.3-.6 0-1.2.1-1.6.3-.4.2-.8.5-1 1-.2.4-.4 1-.4 1.7v28.6c0 .7.1 1.3.4 1.7.2.4.6.7 1 1 .5.2 1 .3 1.6.3.6 0 1.2-.1 1.6-.3.4-.2.8-.5 1-1 .2-.4.4-1 .4-1.7V30.9c0-.7-.1-1.3-.4-1.7-.2-.4-.5-.8-1-1zm195.9 11c-.1-.3-.3-.6-.5-.9-.2-.3-.5-.5-.9-.7-.4-.2-.9-.3-1.5-.3-.5 0-1 .1-1.3.3-.4.2-.7.5-.9.9-.3.4-.5.9-.6 1.5l-4.3 16.2h-.7l-.2-.4-4.5-16.3c-.2-.7-.5-1.2-1.1-1.6-.5-.4-1.2-.6-2-.6-.5 0-1 .1-1.5.4-.4.3-.8.6-1 1-.3.4-.4.9-.4 1.5 0 .2 0 .5.1.7.1.3.2.6.3 1 .1.4.3.9.5 1.4l7.3 20.8v.1c-.2.8-.4 1.3-.8 1.7-.3.4-.7.6-1.1.7-.3.1-.6.1-.9.1h-.9c-.6 0-1 .1-1.5.3-.4.2-.7.4-.9.8-.2.3-.3.8-.3 1.3s.1.9.4 1.3c.3.4.7.7 1.2 1 .6.3 1.4.4 2.3.4 1 0 1.9-.1 2.7-.4.8-.3 1.4-.7 2-1.3.6-.6 1.1-1.3 1.6-2.2.5-.9.9-1.9 1.3-3.1l8.1-22.9c.2-.4.3-.8.4-1.2.1-.3.1-.6.1-.8-.4-.1-.4-.3-.5-.7zm-44.8 19.6c-.1-.3-.2-.8-.3-1.3-.1-.5-.1-1.1-.1-1.9V44c0-1.2-.3-2.2-.8-3-.5-.8-1.2-1.5-2.2-2.1-.9-.6-2.1-1-3.4-1.2-1.3-.3-2.8-.4-4.5-.4h-.9c-.7 0-1.3.1-1.8.2h-.3c-.7.1-1.2.2-1.7.4-1.3.4-2.4.9-3.3 1.4-.9.6-1.6 1.2-2 1.9-.4.7-.6 1.3-.6 1.9 0 .4.1.8.3 1.1.2.3.5.6.9.8.4.2.8.3 1.3.3.4 0 .8-.1 1.1-.3.3-.2.7-.5 1.1-.9.4-.4.8-.8 1.3-1.2.5-.4 1.1-.7 1.9-1 .3-.1.7-.2 1.1-.3h.4c.4 0 .7-.1 1.2-.1.8 0 1.6.1 2.3.3.7.2 1.4.6 1.8 1.1.5.5.7 1.2.8 2 0 .8-.2 1.4-.5 1.8-.3.4-.8.7-1.3.9-.5.2-1 .3-1.6.3l-4.2.5c-1.3.1-2.5.4-3.7.7-1.1.3-2.1.8-3 1.3-.8.6-1.5 1.3-1.9 2.2-.5.9-.7 2-.7 3.4 0 1 .2 1.9.6 2.7s.9 1.5 1.6 2.1c.7.6 1.5 1 2.4 1.3.9.3 1.8.5 2.7.5h.1c1.1 0 2.2-.1 3.3-.4.2 0 .4-.1.6-.2.1 0 .3-.1.4-.2l.4-.1c.1 0 .2-.1.3-.1a11.8 11.8 0 0 0 4.2-3l.8-.9v1.2c0 .6.2 1.3.4 1.8s.6.9 1.1 1.3c.5.3 1.2.5 2.1.5.5 0 .9-.1 1.3-.3.4-.2.7-.4 1-.8.2-.3.3-.7.4-1.1 0-.2 0-.4-.1-.7l-.3-.8zm-6.4-5.4c0 .7-.2 1.4-.5 2.1-.3.7-.8 1.2-1.3 1.8-.6.5-1.3.9-2.1 1.2-.3.1-.7.2-1.2.3h-.2c-.5.1-.9.1-1.4.1-.9 0-1.6-.2-2.3-.4-.7-.3-1.2-.7-1.5-1.2-.4-.5-.6-1.1-.6-1.7 0-.8.2-1.5.6-2 .4-.5 1-1 1.7-1.3.7-.3 1.6-.5 2.6-.6l2.5-.4c.3 0 .6-.1.9-.2l1-.3c.3-.1.6-.3.8-.5l.8-.7.2 3.8zM129 33.8c1.1-.5 2.4-.8 3.7-.8 1.3 0 2.3.2 3.1.5.8.3 1.5.7 2.1 1.2.5.5 1 1 1.4 1.6.4.5.7 1 1.1 1.5.3.4.7.8 1.1 1 .4.3 1 .4 1.6.4 1 0 1.8-.3 2.3-.8.5-.5.8-1.3.8-2.2 0-.6-.2-1.3-.5-2-.4-.7-.9-1.5-1.6-2.3-.7-.8-1.6-1.5-2.7-2.1a17.5 17.5 0 0 0-8.6-2.1c-2.1 0-4.1.3-5.8.9-1.7.6-3.2 1.4-4.6 2.5-1.3 1.1-2.4 2.4-3.3 3.8-.9 1.5-1.6 3.1-2 4.8-.4 1.7-.7 3.6-.7 5.5 0 3.9.7 7.1 2 9.7 1.3 2.6 3.2 4.5 5.6 5.8 2.5 1.3 5.5 2 9 2 1.9 0 3.6-.3 5.2-.8s3-1.3 4.2-2.2c1.2-.9 2.1-1.9 2.8-3 .6-1.1 1-2.2 1-3.4 0-.5-.2-1-.5-1.3-.3-.4-.7-.7-1.2-.9-.5-.2-1.1-.3-1.7-.3-.5 0-.9.1-1.3.4-.4.3-.8.6-1.1 1.1-.4.5-.8 1-1.1 1.6-.4.6-.9 1.1-1.4 1.6-.5.5-1.2 1-2 1.3-.8.3-1.7.5-2.8.5-1.8 0-3.3-.3-4.5-1-1.2-.7-2.3-1.6-3-2.7-.8-1.1-1.3-2.4-1.7-3.9a19.64 19.64 0 0 1 .2-9.7c.5-1.5 1.2-2.8 2-3.8s1.8-1.8 2.9-2.4zm109.9-2.9c0-.7-.1-1.2-.4-1.7-.2-.4-.6-.7-1-1-.9-.4-2.3-.5-3.2 0-.4.2-.8.5-1 1-.2.4-.4 1-.4 1.7v9.9h-.8l-.2-.2c-.6-1-1.5-1.9-2.6-2.4-.3-.1-.6-.3-.9-.4-.1 0-.1 0-.2-.1h-.1c-.2-.1-.5-.1-.7-.2h-.4l-.5-.1c-.3 0-.6-.1-1-.1-1.4 0-2.7.2-3.8.7-1.1.4-2 1-2.9 1.8-.8.8-1.5 1.7-2 2.7-.5 1.1-1 2.2-1.2 3.4-.3 1.2-.4 2.5-.4 3.8 0 2.2.3 4.1.9 5.7a12 12 0 0 0 2.3 4c1 1 2.1 1.8 3.3 2.3 1.2.5 2.6.8 4 .8.5 0 1 0 1.5-.1l1.5-.3c.9-.3 1.7-.8 2.4-1.4.7-.6 1.2-1.3 1.5-2.3l.1-.3h.8l.1.5v1.1c0 .9.2 1.7.7 2.1.4.5 1.1.7 2 .7.9 0 1.6-.2 2-.7.4-.5.6-1.2.6-2.1V30.9zm-6 22c-.2 1-.6 1.8-1 2.6-.5.8-1.1 1.4-1.9 1.8l-.6.3c-.1 0-.1 0-.2.1h-.1c-.1 0-.2.1-.3.1h-.3c-.2 0-.3.1-.4.1h-.8a6 6 0 0 1-2.7-.7c-.8-.4-1.4-1-1.9-1.8-.5-.7-.9-1.6-1.1-2.5-.2-.9-.4-1.9-.4-3 0-.7.1-1.4.2-2.1.1-.7.3-1.5.5-2.2.3-.7.6-1.4 1.1-2 .5-.6 1.1-1.1 1.8-1.4.7-.4 1.5-.5 2.5-.5h.8c.1 0 .3 0 .4.1h.4c.1 0 .3.1.4.1h.1c.1 0 .1 0 .2.1l.6.3c.8.5 1.4 1.2 1.9 2 .4.8.8 1.7 1 2.6.2 1 .3 1.9.3 2.8-.2 1.3-.3 2.3-.5 3.2zM325.4 42c.3-.4.4-1 .4-1.8 0-.6-.1-1-.4-1.5-.3-.4-.7-.8-1.2-1-.5-.3-1.1-.4-1.8-.4a4.55 4.55 0 0 0-3.5 1.7c-.4.5-.8 1.1-1.1 1.8-.3.7-.5 1.4-.7 2.1l-.1.4h-.9l-.1-.5V40c0-.6-.1-1.1-.4-1.5-.2-.4-.5-.7-.9-.9-.4-.2-.9-.3-1.4-.3s-1 .1-1.4.3c-.4.2-.7.5-.9.9-.2.4-.3.9-.4 1.5v19.5c0 .6.1 1.1.3 1.6.2.4.5.8.9 1 .4.3 1 .4 1.8.4s1.4-.1 1.9-.4c.4-.3.7-.6.9-1 .2-.5.3-1 .3-1.5v-8.1c0-2 .2-3.5.5-4.7.4-1.2.9-2.1 1.6-2.7.7-.5 1.6-.8 2.6-.8h1.3c.5 0 1-.1 1.5-.3.6-.3.9-.6 1.2-1zm-50-2.9c-.8-.7-1.7-1.1-2.7-1.4-1-.3-1.9-.4-2.9-.4-1.4 0-2.5.2-3.4.5-1 .4-1.9.9-2.6 1.5-.8.6-1.5 1.4-2.1 2.2l-.1.2h-.7l-.1-.5v-.9c0-.6-.1-1.2-.3-1.7-.2-.4-.5-.7-.8-1-.4-.2-.9-.4-1.5-.4s-1.1.1-1.5.4c-.4.2-.7.6-.8 1-.2.5-.3 1-.3 1.6v19.2c0 .6.1 1.1.3 1.6.2.4.5.8.9 1 .4.3 1.1.4 1.9.4.8 0 1.4-.1 1.9-.4.4-.3.7-.6.9-1 .2-.5.3-1 .3-1.5V48c0-1 .2-1.8.5-2.5s.8-1.4 1.4-1.9c.6-.5 1.2-.9 1.9-1.2.7-.3 1.3-.4 2-.4 1.1 0 2 .2 2.7.7.7.5 1.3 1.1 1.6 1.9.3.8.5 1.7.5 2.7v12.2c0 .6.1 1.1.3 1.6.2.4.5.8.9 1 .4.3 1.1.4 1.8.4.8 0 1.4-.1 1.9-.4.4-.3.7-.6.9-1 .2-.5.3-1 .3-1.6V46c0-1.7-.3-3.1-.7-4.2-1-1.2-1.6-2.1-2.4-2.7zM249 37.7c-.4-.3-1.1-.4-1.9-.4a4 4 0 0 0-1.8.4c-.4.3-.7.6-.9 1-.2.5-.3 1-.3 1.5v19.2c0 .6.1 1.1.3 1.6.2.4.5.8.9 1 .4.3 1 .4 1.8.4s1.4-.1 1.9-.4c.4-.3.7-.6.9-1 .2-.5.3-1 .3-1.5V40.3c0-.6-.1-1.1-.3-1.6-.2-.4-.5-.7-.9-1zm-.4-9.4c-.5-.3-1-.4-1.5-.4-.6 0-1.1.1-1.5.4-.5.3-.8.6-1.1 1.1-.3.5-.4 1-.4 1.5 0 .6.1 1.1.4 1.5.3.5.6.8 1.1 1.1.5.3 1 .4 1.5.4.6 0 1.1-.1 1.5-.4.5-.3.8-.6 1.1-1.1.3-.5.4-1 .4-1.5 0-.6-.1-1.1-.4-1.5-.2-.5-.6-.8-1.1-1.1z"/></svg>