<svg xmlns="http://www.w3.org/2000/svg" viewBox="0 0 55 72"><style>.a{opacity:.85;fill:#5753b4;enable-background:new}.e{opacity:.85;fill:#817ec7;enable-background:new}.c{opacity:.53;fill:#0b0687;enable-background:new}.d{fill:#acadda}</style><circle cx="17.2" cy="43.7" r="14" class="a"/><circle cx="27.5" cy="28.2" r="13.9" class="e"/><circle cx="36.9" cy="44" r="14" class="c"/><path d="M44.5 28.3c0-9.5-7.7-17.2-17.2-17.3S10.1 18.7 10 28.2C1.5 32.1-2.4 42.3 1.5 50.9s14.1 12.5 22.8 8.6c1-.5 2-1 2.9-1.7 7.8 5.5 18.5 3.6 24-4.2s3.6-18.5-4.2-24c-.8-.4-1.6-.9-2.5-1.3zm-10.3 12c-.7-3.1-2.2-6-4.4-8.3 3.3-2.1 7.4-2.6 11.2-1.5-.7 4.1-3.2 7.7-6.8 9.8zm-7 13.2c-2.3-2.3-3.6-5.3-3.9-8.5 2.6.6 5.3.6 7.8.1-.3 3.1-1.7 6.1-3.9 8.4zm.1-11.4c-1.3 0-2.7-.2-3.9-.6.5-2.8 1.8-5.4 3.8-7.5 2 2.1 3.4 4.7 3.8 7.5-1.2.4-2.4.6-3.7.6zm-7.1-2c-3.5-2.1-6-5.7-6.6-9.7 3.7-1 7.7-.4 10.9 1.6-2.1 2.3-3.6 5.1-4.3 8.1zm7.1-25.7c7.2 0 13.2 5.5 13.8 12.6-4.8-1.2-9.9-.2-14 2.7-4-2.8-8.9-3.8-13.7-2.7.8-7.1 6.7-12.6 13.9-12.6zM3.4 43.8c0-5 2.7-9.6 7-12 1.1 5.2 4.6 9.7 9.4 12 0 4.4 1.7 8.6 4.7 11.8-6.5 4-15.1 1.9-19.1-4.6-1.3-2.2-2-4.7-2-7.2zm33.7 13.8c-2.6 0-5.1-.7-7.3-2.1 3-3.2 4.7-7.4 4.7-11.7 4.9-2.3 8.5-6.7 9.6-12 6.6 3.9 8.8 12.4 4.8 19-2.4 4.3-7 6.8-11.8 6.8z" class="d"/></svg>
