<svg xmlns="http://www.w3.org/2000/svg" width="12" height="12"><path fill="#fff" fill-rule="evenodd" d="M8.25 3h-.67a7.01 7.01 0 0 0-.6.04 4.28 4.28 0 0 0-1.23.31 4.45 4.45 0 0 0-1.73 1.29 4.65 4.65 0 0 0-.58.9 4.37 4.37 0 0 0-.35 1.03 7.8 7.8 0 0 1 2.1-.99 8 8 0 0 1 2.31-.33h.75v1.19l2.31-2.32-2.31-2.3V3zM7.5 6a7.23 7.23 0 0 0-2.85.59 7.47 7.47 0 0 0-2.4 1.66V7.5a5.2 5.2 0 0 1 .72-2.65 5.25 5.25 0 0 1 1.88-1.88 5.2 5.2 0 0 1 2.65-.72V0l4.13 4.13L7.5 8.25V6zm.75 3L9 8.25v2.25H0V3h.75v6.75h7.5V9z"/></svg>