<svg xmlns="http://www.w3.org/2000/svg" width="12" height="11"><path fill="#FFF" fill-rule="evenodd" d="M8.25 3c-.238 0-.461.001-.668.003a7.015 7.015 0 0 0-.606.032c-.198.02-.396.054-.595.103-.199.049-.41.12-.633.214a4.452 4.452 0 0 0-1.726 1.286 4.653 4.653 0 0 0-.58.908 4.372 4.372 0 0 0-.348 1.028 7.808 7.808 0 0 1 2.103-.99A8 8 0 0 1 7.5 5.25h.75v1.189l2.314-2.314L8.25 1.811V3zM7.5 6c-.5 0-.989.05-1.468.149-.478.1-.94.247-1.386.44A7.47 7.47 0 0 0 2.25 8.25V7.5a5.207 5.207 0 0 1 .718-2.651 5.25 5.25 0 0 1 1.881-1.881A5.207 5.207 0 0 1 7.5 2.25V0l4.125 4.125L7.5 8.25V6zm.75 3L9 8.25v2.25H0V3h.75v6.75h7.5V9z"/></svg>