<?xml version="1.0"?>
<!--Icons from directory ""-->
<svg xmlns="http://www.w3.org/2000/svg" width="22" height="44" viewBox="0 0 22 44"><svg width="22" height="22" id="close" y="0"><path d="M11 0c6.075 0 11 4.925 11 11s-4.925 11-11 11S0 17.075 0 11 4.925 0 11 0zm0 1c5.523 0 10 4.477 10 10s-4.477 10-10 10S1 16.523 1 11 5.477 1 11 1zm5.5 10.5h-11v-1h11v1z" fill="#4046DD" fill-rule="evenodd"/></svg><svg width="22" height="22" id="open" y="22"><path d="M11 0c6.075 0 11 4.925 11 11s-4.925 11-11 11S0 17.075 0 11 4.925 0 11 0zm0 1c5.523 0 10 4.477 10 10s-4.477 10-10 10S1 16.523 1 11 5.477 1 11 1zm5.5 10.5h-5v5h-1v-5h-5v-1h5v-5h1v5h5v1z" fill="#4046DD" fill-rule="evenodd"/></svg></svg>
