<svg xmlns="http://www.w3.org/2000/svg" viewBox="0 0 50 72"><path fill="#2d28a1" d="M38.4 33.6a21.5 21.5 0 0 0-12.3-4.9v7.8a12 12 0 0 1 6.7 2.7l5.6-5.6z"/><path fill="#817ec7" d="M10 35.1a20.4 20.4 0 0 0-5.7 12.5h8.3c.3-2.5 1.3-5 3-6.9L10 35.1z"/><path fill="#5753b4" d="M23.9 28.7c-4.5.2-8.8 1.9-12.3 4.9l5.6 5.6c1.9-1.5 4.2-2.5 6.7-2.7v-7.8z"/><path fill="#0b0687" d="M40 35.1l-5.6 5.6c1.7 1.9 2.7 4.3 3 6.9h8.3c-.5-4.7-2.5-9.1-5.7-12.5z"/><path fill="#acadda" d="M7 32a24.7 24.7 0 0 0-7 15.6h4.3c.4-4.7 2.4-9.1 5.7-12.5L7 32zm16.9-7.6a25 25 0 0 0-15.4 6.1l3.1 3.1c3.5-2.9 7.8-4.6 12.3-4.9v-4.3zm17.5 6.1a25 25 0 0 0-15.3-6.1v4.3c4.5.2 8.8 1.9 12.3 4.9l3-3.1zM50 47.6A24.7 24.7 0 0 0 43 32l-3 3c3.3 3.4 5.3 7.8 5.7 12.5l4.3.1z"/><path fill="none" stroke="#4046dd" stroke-linecap="round" stroke-linejoin="round" stroke-width="4" d="M39.7 42.3l-14.2 4.8"/></svg>