<svg xmlns="http://www.w3.org/2000/svg" viewBox="0 0 47 72"><path fill="#acadda" d="M32.8 59.3h-19C6.2 59.3 0 53.1 0 45.5v-19c0-7.6 6.2-13.8 13.8-13.8h19c7.6 0 13.8 6.2 13.8 13.8v19c0 7.6-6.1 13.8-13.8 13.8zM13.8 17a9.6 9.6 0 0 0-9.5 9.5v19c0 5.2 4.3 9.5 9.5 9.5h19c5.2 0 9.5-4.3 9.5-9.5v-19c0-5.2-4.3-9.5-9.5-9.5h-19z"/><path fill="#2d28a1" d="M16.7 33.4c.5.4.7 1 .6 1.7 0 .7-.2 1.3-.7 1.8-.5.4-1.2.7-1.9.6h-1.1v1.8h-1.7v-6.4h2.8c.7-.1 1.4.1 2 .5zm-1.2 2.4c.2-.2.3-.5.3-.7a1 1 0 0 0-.3-.7.8.8 0 0 0-.8-.2h-1.1v2h1.1l.8-.4zm12.4-3l-2.2 6.4H24l-1.2-4.4-1.2 4.4h-1.7l-2.2-6.4h1.8l1.3 4.7 1.3-4.7h1.6l1.3 4.7 1.2-4.7h1.7zm4.6 5.3h-2.8l-.5 1.1h-1.7l2.8-6.4H32l2.7 6.4h-1.8l-.4-1.1zm-.5-1.3l-.9-2.3-.9 2.3H32z"/></svg>