<svg xmlns="http://www.w3.org/2000/svg" viewBox="0 0 45 72"><style>.s{fill:#2d28a1}</style><path fill="#acadda" d="M31.8 21.3V10.6c0-1.2-1-2.2-2.2-2.1H14.8c-1.2 0-2.2 1-2.2 2.2v10.6C1.6 26.5-3.1 39.8 2.2 50.9s18.5 15.8 29.6 10.5 15.8-18.5 10.5-29.6a22.3 22.3 0 0 0-10.5-10.5zM17 12.8h10.5v6.9c-3.4-.8-7-.8-10.5 0v-6.9zm5.2 46.4c-9.9 0-17.9-8-17.9-17.9s8-17.9 17.9-17.9c9.9 0 17.9 8 17.9 17.9 0 9.9-8 17.9-17.9 17.9z"/><path d="M19.8 41.9h4.8v7.2c0 1.3-1.1 2.4-2.4 2.4s-2.4-1.1-2.4-2.4v-7.2z" class="s"/><circle cx="22.2" cy="38.7" r="4.7" class="s"/></svg>