<svg xmlns="http://www.w3.org/2000/svg" viewBox="0 0 1000 443.9"><style>.a{fill:#dbdbdb}.b{fill:#3b3b63}.c{fill:#53537a}.d{fill:#fff}.e{fill:#c49a7e}.f{fill:#d8b7a0}.g{fill:#333152}</style><path fill="#0d1f31" d="M449.7 306c-18.5 0-33.5-3.2-46.4-9.3l3.9-29.5a97.5 97.5 0 0 0 41.7 9.8c9.4 0 15.5-3.2 15.5-8.8 0-16.2-58.5-12.3-58.5-54.7 0-27.1 24.9-41.3 56-41.3 15.5 0 31.6 4.2 41.9 7.9l-4.2 29a115.2 115.2 0 0 0-38-8.1c-7.6 0-13.8 2.7-13.8 7.6 0 16 59.7 12.8 59.7 54.1.2 27.5-24.3 43.3-57.8 43.3zm161.7-2.8v-73.1c0-16.7-7.4-24.6-21.5-24.6-6.9 0-14.1 1.9-19 4.9v92.8h-43.4V176.5L570 173l-1 20.7h1.4a53.9 53.9 0 0 1 43.2-21.6c22.2 0 41.4 13.7 41.4 46.2v84.9h-43.6zm286.7 0l-34.7-60.3h-3.5v60.3h-43.4V153.1l43.4-67.7v140.1c8.6-10.6 37.7-50.7 37.7-50.7h53.6l-50.8 53.6 52.5 74.9-54.8-.1zm-137.9-128L742.4 233a298 298 0 0 0-6.9 30.9s-2.7-20.7-6.4-31.6l-19-57.1h-48.6l52.8 128c-7.2 17-18.3 31.4-33.1 31.4-2.7 0-5.3-.1-7.9-.4L656 360.9a60.5 60.5 0 0 0 28.2 6.3c32.1 0 53.6-25.9 68.6-64.3l50.4-127.6-43-.1z"/><path d="M173.2 111.6l3 4.9c7.9-2.2 17.8-4.2 27.9-4.2 10.1 0 20.1 2 28 4.2l3-4.9 3.2-22.1a597.7 597.7 0 0 0-68.2 0l3.1 22.1z" class="a"/><path d="M269.3 281.4h-65.4V171.3l-66.3 106.9-10.3 109.6 75.6 54.4 1 .7 77.3-55.4-11.9-106.1z" class="b"/><path fill="#c6c6c6" d="M232.1 116.6l3-4.9 3.2-22.1c-10.6-.6-21.9-1-33.9-1h-.2v23.8c10.1 0 20 2 27.9 4.2zm83.9-16.4c2.5 8.1 4 15.4 4 20.9v3l-16 43.2c8.2 74.8 4.5 84.2 3.1 87.8-.8 2.1-3.2 8.3-18.7 28.9l9.9 91.5 46.1-33V108.1c-.1 0-9.9-3.8-28.4-7.9z"/><path d="M281.5 387.2l-11.9-105.8h-65.4v161.2l77.3-55.4z" class="b"/><path d="M127.3 387.8l76.6 55.1V171.3l-66.3 106.9-10.3 109.6z" class="c"/><path fill="#bc9375" d="M236.9 356.6c0 18.1-17 27.1-32.5 27.1s-32.9-9-32.9-27.1"/><path fill="#083251" d="M227.3 346.3c0 21.3-11.5 27-23.2 27s-23.2-5.7-23.2-27"/><path d="M204.2 366c-12.5 0-18.6-9.2-18.6-28h6c0 22 8.5 22 12.6 22s12.6 0 12.6-22h6c0 18.8-6.1 28-18.6 28z" class="d"/><path d="M303.3 121c0-23-38.8-95.2-38.8-95.2l-13.1 91.6-11.8 19.3-35.3 1.5-.1.3v-.3l-35.3-1.4-11.9-19.4-13.1-91.6S105.1 98 105.1 121l16.4 44.1s-8.3 74.1-4.5 83.8 29.9 42.2 29.9 42.2-.1 27.3 7.1 46.9a28.2 28.2 0 0 0 27.2 19.7c16.5 0 23-15.1 23-15.1s6.6 15.1 23.1 15.1c10.8 0 22-5.7 27.2-19.7 7.2-19.6 7.1-46.9 7.1-46.9s26.2-32.5 29.9-42.2c3.8-9.7-4.5-83.8-4.5-83.8l16.3-44.1z" class="e"/><path d="M204.2 138.4l-.1.1v-.3l-35.3-1.4-11.8-19.4-13.1-91.6S105.1 98 105.1 121l16.4 44.1s-8.3 74.1-4.5 83.8 29.9 42.2 29.9 42.2-.1 27.3 7.1 46.9a28.2 28.2 0 0 0 27.2 19.7c16.5 0 23-15.1 23-15.1l.1.2-.1-204.4z" class="f"/><path d="M287.3 169.5c-3-6.3 1.3-21.2 1.3-21.2-24.5-25.1-30.6-77.5-30.6-77.5-4.6 16.5-14.5 65.2-14.5 65.2s-18.3-6.8-39.1-6.8h-.2l-3.4.1v205.3l1.6 2.3v-1.1h1v1.1-1.1h1.9v1.1-1.1h1v1.1l16.9-24.7 3.7-69.5 21.1 24.1 27.2 7.9 10.2-7.2c4.3-6 5.7-11.2 6.8-13.9 3.6-9.8-4.9-84.1-4.9-84.1z" class="b"/><path d="M204.4 129.1s-.1 0 0 0c-20.9 0-39.2 6.8-39.2 6.8s-10-48.7-14.5-65.2c0 0-6.1 52.4-30.6 77.5 0 0 4.3 14.9 1.3 21.2 0 0-8.5 74.3-4.7 84 1 2.7 2.5 7.8 6.8 13.9l10.2 7.2 27.2-7.9 21.1-24.1 3.7 69.5 16.9 24.7v-1.1h1v1.1-1.1h1l-.2-206.5z" class="c"/><path d="M253.5 216h-31.7v.3c0 11.1 9.6 20 20.8 20 11.3 0 20.8-9 20.8-20v-.3h-9.9z" class="g"/><path d="M229.7 216v.3c0 6.6 5.3 11.9 11.9 11.9s11.9-5.3 11.9-11.9v-.3h-23.8z" class="d"/><path d="M245.3 216h-5.7c.7.1 1.1 1.7.9 2.8a3.1 3.1 0 0 1-3.1 2.7 5.3 5.3 0 0 0 4.4 4.1c2.9.4 5.6-1.6 6-4.4.2-2.2-.8-5.2-2.5-5.2zm-68.4 0h-31.8v.3c0 11.1 9.6 20 20.8 20 11.3 0 20.8-9 20.8-20v-.3h-9.8z" class="g"/><path d="M153.1 216v.3c0 6.6 5.3 11.9 11.9 11.9 6.6 0 11.9-5.3 11.9-11.9v-.3h-23.8z" class="d"/><path d="M168.7 216H163c.7.1 1.1 1.7.9 2.8a3.1 3.1 0 0 1-3.1 2.7 5.3 5.3 0 0 0 4.4 4.1c2.9.4 5.6-1.6 6-4.4.2-2.2-.8-5.2-2.5-5.2z" class="g"/><path d="M251.1 206.5c1.3-1.5 12.7-14.3-2.5-14.3-13.7 0-23.5 11-26.1 14.3h28.6z" class="e"/><path d="M185.8 206.5c-2.6-3.3-12.4-14.3-26.1-14.3-15.1 0-3.8 12.8-2.5 14.3h28.6z" class="f"/><path d="M137.8 210.4h57.9v5.4h-57.9v-5.4z" class="c"/><path d="M311.1 121.2c0-24.3-35.6-91.4-39.7-99L260 1l-16.3 113.9-7.5 12.4c-7.3-2.4-19.6-5.8-32.1-5.8-12.4 0-24.7 3.4-32 5.8l-7.5-12.4-5.7-39.9v-.2L148.3 1l-11.6 21.3c-4.1 7.6-40 74.7-40 99v1.4l16.4 43.7c-2.6 23.8-7.6 75.6-3.7 85.7 2.5 6.3 11.9 19.4 19.9 29.8L118.6 382l14.8 10.4 7.8-72.9c1.1 7.1 2.8 14.6 5.3 21.3a37.6 37.6 0 0 0 17.1 20.6c.5 22.3 21.2 34.3 40.8 34.3 19.4 0 40-12 40.4-34.3a37.4 37.4 0 0 0 17.1-20.5c2.6-7 4.3-14.9 5.4-22.2l7.9 73.1L290 381l-10.7-99.5a182.2 182.2 0 0 0 19.6-29.5c3.9-10.1-1.3-61.9-3.9-85.7l16.1-43.7v-1.4zM113 119.9c.9-12.6 14-42.7 26.5-68.1l3.4 23.2c-1.3 8.7-7.1 42.7-22.7 64.2l-7.2-19.3zM204.4 380c-8.7 0-21.1-3.9-24.2-14.2h.9c1.7 0 3.3-.2 4.8-.4 4.4 6.1 11.3 8 18.3 8s13.9-1.9 18.3-8c1.5.2 3.1.4 4.7.4h1c-3 10.3-15.3 14.2-23.8 14.2zm-10.1-16.9c2.1-.9 4-2.1 5.7-3.3 1.5.5 3 .5 4.2.5 1.1 0 2.6 0 4.1-.4 1.7 1.2 3.6 2.3 5.7 3.3a16 16 0 0 1-9.8 3.1c-3.9-.1-7.2-1.3-9.9-3.2zM284 246.3c-2.3 5.9-18.2 27-28.7 40.1l-1.8 2.2v2.8c0 .3 0 26.1-6.6 44.2a20.4 20.4 0 0 1-19.7 14.5c-11 0-15.7-10-15.9-10.4l-.6-9.4h-13.3l-.6 9.3c-.2.4-4.8 10.4-15.7 10.4-4.3 0-14.9-1.4-19.7-14.5-6.6-18-6.6-43.9-6.6-44.2v-2.8l-1.8-2.2c-10.5-13.1-26.4-34.1-28.7-39.9-1.8-6.2 1.2-46.5 4.9-80.2l.2-1.9-3-8a107 107 0 0 0 22.5-39.3l.5 3.4 16.2 26.6 6.3-2.7c.2-.1 16.4-7 32.2-7 15.7 0 32.2 6.9 32.4 7l6.3 2.7 16.2-26.6.6-4.4a114.1 114.1 0 0 0 22.3 40l-3.1 8.4.2 1.9c3.8 33.7 6.8 73.9 5 80zm4.3-107.5c-16.8-23.6-22.1-62-22.6-65.6l3.1-21.4c12.5 25.4 25.6 55.5 26.5 68.1l-7 18.9z" class="g"/><path d="M222.9 303h-37.2s-5 8.7-5 11.5c0 8.4 22.9 21.8 22.9 21.8s24.2-13.8 24.2-21.8c0-3.8-4.9-11.5-4.9-11.5z" class="g"/><path d="M215.7 328.6c-2.1-3.7-4.8-4.3-6-1.5s-.5 8.1 1.6 11.8c2.1 3.7 4.8 4.4 6 1.5 1.2-2.8.5-8.1-1.6-11.8z" class="e"/><path d="M192.7 328.6c-2.1 3.7-2.8 9-1.5 11.8 1.2 2.8 3.9 2.2 6-1.5s2.8-9 1.5-11.8c-1.2-2.8-3.9-2.2-6 1.5z" class="f"/><path d="M120.1 284.2c-15.7-20.8-18.1-27.1-19-29.2-3.4-8.9-2.5-38.4 2.9-87.8L87.8 124v-3a75 75 0 0 1 4-20.7c-18.1 4.2-27.8 7.8-27.8 7.8v234.3l46.3 33.1 9.8-91.3z" class="a"/></svg>