<svg version="1.1" xmlns="http://www.w3.org/2000/svg" viewBox="0 0 16 16"><g><path d="M8,16c-4.4,0-8-3.6-8-8s3.6-8,8-8s8,3.6,8,8S12.4,16,8,16z M8,1C4.1,1,1,4.1,1,8c0,3.9,3.1,7,7,7c3.9,0,7-3.1,7-7C15,4.1,11.9,1,8,1z"/></g><g><path d="M3,8c0-2.4,1.7-4.4,4-4.9v-1C4.2,2.6,2,5,2,8c0,2,1,3.8,2.6,4.9v-1.3C3.6,10.7,3,9.4,3,8z"/><path d="M14,8c0-3-2.2-5.4-5-5.9v1c2.3,0.5,4,2.5,4,4.9c0,1.4-0.6,2.7-1.6,3.6v1.3C13,11.8,14,10,14,8z"/><path d="M8.5,6.6V2.1h-1v4.6c-0.6,0.2-1,0.7-1,1.4c0,0.8,0.7,1.5,1.5,1.5S9.5,8.8,9.5,8C9.5,7.4,9.1,6.8,8.5,6.6z M8,8.5C7.8,8.5,7.5,8.2,7.5,8S7.8,7.5,8,7.5S8.5,7.8,8.5,8S8.2,8.5,8,8.5z"/></g></svg>
