<svg version="1.1" xmlns="http://www.w3.org/2000/svg" viewBox="0 0 16 16"><style type="text/css">.st0{fill-rule:evenodd;clip-rule:evenodd;}</style><path d="M9.3,9.6c0-0.7-0.6-1.3-1.3-1.3S6.7,8.8,6.7,9.6c0,0.5,0.3,1,0.7,1.2v1.5h1.1v-1.5C9,10.5,9.3,10.1,9.3,9.6z"/><path class="st0" d="M12.8,4.5H12V4c0-2.2-1.8-4-4-4S4,1.8,4,4v0.5H3.2C2.3,4.5,1.7,5.2,1.7,6v8.5c0,0.8,0.7,1.5,1.5,1.5h9.7c0.8,0,1.5-0.7,1.5-1.5V6C14.3,5.2,13.7,4.5,12.8,4.5z M5,4c0-1.6,1.3-3,3-3s3,1.3,3,3v0.5H5V4z M13.3,14.5c0,0.3-0.2,0.5-0.5,0.5H3.2c-0.3,0-0.5-0.2-0.5-0.5V6c0-0.3,0.2-0.5,0.5-0.5h9.7c0.3,0,0.5,0.2,0.5,0.5V14.5z"/></svg>
