<svg version="1.1" xmlns="http://www.w3.org/2000/svg" viewBox="0 0 16 16"><g><rect x="7.5" y="12.3" width="1" height="3.7"/><path d="M10.6,4.5h-0.5c0.4-0.5,0.7-1.1,0.7-1.8C10.8,1.2,9.5,0,8,0S5.2,1.2,5.2,2.7c0,0.7,0.3,1.3,0.7,1.8H5.4C4.6,4.5,3.9,5.2,3.9,6v5.8c0,0.8,0.7,1.5,1.5,1.5h0.1V16h1v-3.7h-1h0H5.4c-0.3,0-0.5-0.2-0.5-0.5V6c0-0.3,0.2-0.5,0.5-0.5h5.2c0.3,0,0.5,0.2,0.5,0.5v5.8c0,0.3-0.2,0.5-0.5,0.5h-0.1h-1V16h1v-2.7h0.1c0.8,0,1.5-0.7,1.5-1.5V6C12.1,5.2,11.4,4.5,10.6,4.5zM8,1c1,0,1.8,0.8,1.8,1.8S9,4.5,8,4.5S6.2,3.7,6.2,2.7S7,1,8,1z"/></g></svg>
